<svg xmlns="http://www.w3.org/2000/svg" xmlns:xlink="http://www.w3.org/1999/xlink" width="1080" zoomAndPan="magnify" viewBox="0 0 810 809.999993" height="1080" preserveAspectRatio="xMidYMid meet" version="1.0"><defs><g/><clipPath id="9c67358513"><path d="M 416 0 L 809.25 0 L 809.25 381 L 416 381 Z M 416 0 " clip-rule="nonzero"/></clipPath><clipPath id="feeec9c201"><path d="M 483 0 L 809.25 0 L 809.25 382 L 483 382 Z M 483 0 " clip-rule="nonzero"/></clipPath></defs><path fill="#fe5151" d="M 260.546875 639.5625 C 202.597656 639.5625 155.585938 592.582031 155.585938 534.578125 C 155.585938 476.59375 202.578125 429.597656 260.546875 429.597656 C 318.550781 429.597656 365.5625 476.574219 365.5625 534.578125 C 365.5625 592.582031 318.550781 639.5625 260.546875 639.5625 Z M 226.742188 809.582031 L 294.421875 809.582031 C 302.742188 809.582031 309.683594 803.464844 310.726562 795.148438 L 314.722656 762.96875 C 315.546875 756.523438 319.707031 751.449219 325.84375 749.417969 C 336.03125 745.992188 345.941406 741.777344 355.597656 736.742188 C 361.40625 733.683594 368.109375 734.304688 373.3125 738.355469 L 399.21875 758.5 C 405.816406 763.648438 415.066406 763.0625 420.984375 757.144531 L 468.824219 709.378906 C 474.683594 703.464844 475.253906 694.160156 470.179688 687.621094 L 448.101562 659.324219 C 444.199219 654.289062 443.539062 647.949219 446.234375 642.199219 C 450.335938 633.425781 453.816406 624.398438 456.621094 615.203125 C 458.542969 608.867188 463.730469 604.507812 470.324219 603.683594 L 506.785156 599.160156 C 515.101562 598.113281 521.222656 591.15625 521.222656 582.804688 L 521.222656 515.203125 C 521.222656 506.851562 515.101562 499.890625 506.785156 498.847656 L 466.074219 493.808594 C 459.84375 493.023438 454.863281 489.140625 452.683594 483.222656 C 448.320312 471.59375 442.863281 460.273438 436.320312 449.433594 C 432.730469 443.460938 433.207031 436.300781 437.457031 430.789062 L 453.5625 410.128906 C 458.710938 403.535156 458.125 394.25 452.207031 388.371094 L 415.179688 351.300781 C 409.261719 345.382812 399.953125 344.816406 393.414062 349.945312 L 368.476562 369.304688 C 363.382812 373.242188 356.898438 373.917969 351.128906 371.0625 C 339.546875 365.402344 329.617188 361.410156 317.359375 358.039062 C 310.820312 356.226562 306.550781 350.933594 305.414062 344.230469 L 300.890625 318.371094 C 299.441406 310.109375 292.882812 303.9375 284.527344 303.9375 L 236.601562 303.9375 C 228.246094 303.9375 221.652344 310.109375 220.238281 318.371094 L 215.714844 344.230469 C 214.578125 350.933594 210.308594 356.226562 203.769531 358.039062 C 191.511719 361.410156 181.601562 365.402344 170.003906 371.0625 C 164.230469 373.917969 157.746094 373.242188 152.597656 369.304688 L 127.71875 349.945312 C 121.121094 344.796875 111.871094 345.382812 105.953125 351.300781 L 68.871094 388.371094 C 63.007812 394.230469 62.4375 403.535156 67.515625 410.128906 L 83.671875 430.789062 C 87.921875 436.28125 88.398438 443.460938 84.773438 449.433594 C 78.285156 460.273438 72.828125 471.59375 68.464844 483.222656 C 66.285156 489.140625 61.304688 493.039062 55.074219 493.808594 L 14.363281 498.847656 C 6.046875 499.890625 -0.0742188 506.851562 -0.0742188 515.203125 L -0.0742188 582.804688 C -0.0742188 591.15625 6.046875 598.113281 14.363281 599.160156 L 50.824219 603.683594 C 57.417969 604.507812 62.566406 608.867188 64.527344 615.203125 C 67.332031 624.398438 70.8125 633.425781 74.914062 642.199219 C 77.609375 647.96875 76.949219 654.289062 72.992188 659.324219 L 50.96875 687.621094 C 45.820312 694.160156 46.40625 703.464844 52.324219 709.378906 L 100.164062 757.144531 C 106.082031 763.0625 115.332031 763.628906 121.929688 758.5 L 147.835938 738.355469 C 153.019531 734.304688 159.726562 733.683594 165.550781 736.742188 C 175.207031 741.777344 185.136719 745.992188 195.304688 749.417969 C 201.425781 751.449219 205.582031 756.523438 206.425781 762.96875 L 210.417969 795.148438 C 211.464844 803.464844 218.371094 809.582031 226.742188 809.582031 Z M 226.742188 809.582031 " fill-opacity="1" fillRule="evenodd"/><path fill="#d50000" d="M 226.742188 809.582031 L 294.421875 809.582031 C 302.742188 809.582031 309.683594 803.464844 310.726562 795.148438 L 314.722656 762.96875 C 315.546875 756.523438 319.707031 751.449219 325.84375 749.417969 C 331.925781 747.347656 337.9375 745.058594 343.816406 742.402344 L 331.816406 733.0625 C 326.632812 729.011719 319.925781 728.390625 314.0625 731.449219 C 304.460938 736.484375 294.53125 740.699219 284.363281 744.125 C 278.246094 746.15625 274.085938 751.230469 273.242188 757.675781 L 269.25 789.855469 C 268.203125 798.171875 261.242188 804.289062 252.941406 804.289062 L 214.671875 804.289062 C 217.65625 807.566406 221.960938 809.582031 226.742188 809.582031 Z M 384.363281 746.980469 L 399.21875 758.5 C 405.816406 763.648438 415.066406 763.0625 420.984375 757.144531 L 468.824219 709.378906 C 474.683594 703.464844 475.253906 694.160156 470.179688 687.621094 L 448.101562 659.324219 C 444.199219 654.289062 443.539062 647.949219 446.234375 642.199219 C 450.335938 633.425781 453.816406 624.398438 456.621094 615.203125 C 458.542969 608.867188 463.730469 604.507812 470.324219 603.683594 L 506.785156 599.160156 C 515.101562 598.113281 521.222656 591.15625 521.222656 582.804688 L 521.222656 515.203125 C 521.222656 506.851562 515.101562 499.890625 506.785156 498.847656 L 467.320312 493.976562 C 474.59375 495.789062 479.722656 502.289062 479.722656 509.910156 L 479.722656 577.511719 C 479.722656 585.863281 473.605469 592.820312 465.285156 593.867188 L 428.828125 598.390625 C 422.230469 599.214844 417.046875 603.574219 415.125 609.910156 C 412.320312 619.105469 408.839844 628.132812 404.734375 636.90625 C 402.042969 642.675781 402.703125 648.996094 406.605469 654.03125 L 428.679688 682.328125 C 433.773438 688.921875 433.207031 698.171875 427.324219 704.085938 Z M 463.96875 493.40625 C 458.726562 492.105469 454.570312 488.480469 452.644531 483.222656 C 448.285156 471.59375 442.824219 460.273438 436.285156 449.433594 C 432.691406 443.460938 433.167969 436.300781 437.421875 430.789062 L 453.523438 410.128906 C 458.671875 403.535156 458.085938 394.25 452.167969 388.371094 L 415.140625 351.300781 C 409.222656 345.382812 399.917969 344.816406 393.375 349.945312 L 384.488281 356.847656 L 410.671875 383.058594 C 416.589844 388.972656 417.15625 398.222656 412.027344 404.816406 L 395.921875 425.53125 C 391.671875 430.988281 391.195312 438.152344 394.785156 444.121094 C 401.328125 454.964844 406.785156 466.28125 411.148438 477.914062 C 413.328125 483.828125 418.3125 487.730469 424.539062 488.5 Z M 329.671875 361.960938 C 325.734375 360.550781 321.667969 359.265625 317.359375 358.058594 C 310.820312 356.246094 306.550781 350.953125 305.414062 344.25 L 300.890625 318.386719 C 299.441406 310.128906 292.882812 303.957031 284.527344 303.957031 L 254.976562 303.957031 C 257.210938 306.390625 258.769531 309.558594 259.390625 313.09375 L 263.863281 338.957031 C 265.054688 345.660156 269.324219 351.007812 275.863281 352.765625 C 288.066406 356.136719 298.03125 360.144531 309.628906 365.804688 C 315.402344 368.664062 321.886719 367.984375 326.980469 364.046875 Z M 89.316406 746.304688 L 100.164062 757.144531 C 106.078125 763.0625 115.332031 763.628906 121.929688 758.5 L 144.683594 740.789062 C 137.664062 738.097656 130.8125 734.984375 124.070312 731.449219 C 118.265625 728.390625 111.558594 729.011719 106.355469 733.0625 Z M 89.316406 746.304688 " fill-opacity="1" fillRule="evenodd"/><g clip-path="url(#9c67358513)"><path fill="#63bbff" d="M 612.917969 253.039062 C 569.296875 253.039062 533.882812 217.636719 533.9375 174.027344 C 533.882812 130.363281 569.296875 95.015625 612.917969 95.015625 C 656.597656 95.015625 691.957031 130.363281 691.957031 174.027344 C 691.957031 217.636719 656.597656 253.039062 612.917969 253.039062 Z M 653.683594 345.914062 C 654.195312 341.136719 656.542969 337.710938 660.335938 335.328125 L 684.425781 326.191406 C 688.84375 323.902344 693.882812 324.320312 697.785156 327.378906 L 717.3125 342.546875 C 722.242188 346.445312 729.203125 346.023438 733.675781 341.554688 L 769.65625 305.585938 C 774.128906 301.117188 774.53125 294.15625 770.703125 289.175781 L 754.085938 267.894531 C 751.171875 264.15625 750.660156 259.375 752.675781 255.015625 C 755.789062 248.421875 758.390625 241.628906 760.515625 234.722656 C 761.960938 229.945312 765.863281 226.683594 770.792969 226.0625 L 798.277344 222.636719 C 804.503906 221.847656 809.121094 216.609375 809.121094 210.328125 L 809.121094 159.449219 C 809.121094 153.167969 804.503906 147.929688 798.277344 147.140625 L 767.585938 143.351562 C 762.914062 142.726562 759.179688 139.816406 757.511719 135.347656 C 754.230469 126.628906 750.128906 118.054688 745.253906 109.90625 C 742.558594 105.4375 742.871094 100.035156 746.078125 95.894531 L 758.226562 80.328125 C 762.074219 75.402344 761.652344 68.386719 757.179688 63.972656 L 729.296875 36.042969 C 724.824219 31.628906 717.863281 31.167969 712.878906 35.050781 L 694.191406 49.648438 C 690.34375 52.617188 685.472656 53.128906 681.109375 50.949219 C 672.390625 46.699219 664.914062 43.734375 655.664062 41.1875 C 650.734375 39.777344 647.566406 35.785156 646.683594 30.75 L 643.3125 11.277344 C 642.214844 5.105469 637.285156 0.4375 631.003906 0.4375 L 594.910156 0.4375 C 588.625 0.4375 583.695312 5.105469 582.597656 11.277344 L 579.226562 30.75 C 578.347656 35.785156 575.121094 39.777344 570.195312 41.1875 C 560.996094 43.734375 553.523438 46.683594 544.800781 50.949219 C 540.441406 53.128906 535.546875 52.617188 531.71875 49.648438 L 512.996094 35.035156 C 508.011719 31.132812 501.050781 31.609375 496.578125 36.023438 L 468.695312 63.953125 C 464.222656 68.367188 463.820312 75.382812 467.648438 80.308594 L 479.796875 95.875 C 483.023438 100.035156 483.332031 105.4375 480.621094 109.886719 C 475.691406 118.039062 471.589844 126.609375 468.308594 135.328125 C 466.699219 139.796875 462.960938 142.691406 458.234375 143.332031 L 427.601562 147.121094 C 421.371094 147.910156 416.753906 153.148438 416.753906 159.429688 L 416.753906 210.308594 C 416.753906 216.59375 421.371094 221.832031 427.601562 222.617188 L 455.027344 226.042969 C 460.011719 226.664062 463.914062 229.945312 465.359375 234.707031 C 467.484375 241.609375 470.085938 248.40625 473.203125 255 C 475.234375 259.359375 474.703125 264.136719 471.753906 267.875 L 455.191406 289.15625 C 451.34375 294.136719 451.765625 301.097656 456.234375 305.566406 L 492.21875 341.539062 C 496.632812 346.007812 503.652344 346.429688 508.578125 342.527344 L 528.054688 327.363281 C 531.996094 324.304688 537.03125 323.882812 541.449219 326.171875 C 548.667969 329.960938 556.140625 333.132812 563.78125 335.675781 C 568.453125 337.234375 571.566406 341.082031 572.136719 345.898438 L 575.140625 370.144531 C 575.929688 376.375 581.167969 380.988281 587.453125 380.988281 L 638.402344 380.988281 C 644.6875 380.988281 649.875 376.375 650.660156 370.144531 C 651.707031 362.070312 652.695312 354.011719 653.683594 345.914062 Z M 653.683594 345.914062 " fill-opacity="1" fillRule="evenodd"/></g><g clip-path="url(#feeec9c201)"><path fill="#2d9aed" d="M 653.683594 345.914062 C 654.195312 341.136719 656.542969 337.710938 660.335938 335.328125 L 679.957031 327.910156 L 670.246094 320.328125 C 666.34375 317.269531 661.304688 316.847656 656.890625 319.136719 L 632.796875 328.277344 C 629.003906 330.660156 626.679688 334.082031 626.148438 338.863281 C 625.15625 346.90625 624.113281 355.019531 623.140625 363.113281 C 622.355469 369.339844 617.113281 373.957031 610.832031 373.957031 L 576.296875 373.957031 C 578.273438 378.167969 582.523438 381.007812 587.453125 381.007812 L 638.402344 381.007812 C 644.6875 381.007812 649.875 376.390625 650.660156 370.164062 C 651.707031 362.070312 652.695312 354.011719 653.683594 345.914062 Z M 706.449219 334.140625 L 717.296875 342.546875 C 722.222656 346.445312 729.1875 346.023438 733.65625 341.554688 L 769.640625 305.585938 C 774.109375 301.117188 774.511719 294.15625 770.683594 289.175781 L 754.066406 267.894531 C 751.152344 264.15625 750.640625 259.375 752.65625 255.015625 C 755.769531 248.421875 758.371094 241.628906 760.496094 234.722656 C 761.945312 229.945312 765.847656 226.683594 770.773438 226.0625 L 798.257812 222.636719 C 804.488281 221.847656 809.101562 216.609375 809.101562 210.328125 L 809.101562 159.449219 C 809.101562 153.167969 804.488281 147.929688 798.257812 147.140625 L 778.984375 144.761719 C 780.59375 146.882812 781.585938 149.539062 781.585938 152.398438 L 781.585938 203.277344 C 781.585938 209.558594 776.96875 214.796875 770.738281 215.585938 L 743.257812 219.007812 C 738.328125 219.632812 734.425781 222.910156 732.921875 227.671875 C 730.851562 234.578125 728.195312 241.371094 725.136719 247.964844 C 723.066406 252.324219 723.632812 257.105469 726.546875 260.839844 L 743.164062 282.125 C 747.011719 287.105469 746.589844 294.066406 742.121094 298.535156 Z M 759.324219 138.660156 C 758.589844 137.671875 757.96875 136.589844 757.511719 135.347656 C 754.230469 126.628906 750.128906 118.054688 745.253906 109.90625 C 742.558594 105.4375 742.871094 100.035156 746.078125 95.894531 L 758.226562 80.328125 C 762.074219 75.402344 761.652344 68.386719 757.179688 63.972656 L 729.296875 36.042969 C 724.824219 31.628906 717.863281 31.167969 712.878906 35.050781 L 710.023438 37.285156 L 729.644531 56.902344 C 734.058594 61.316406 734.515625 68.277344 730.632812 73.257812 L 718.542969 88.824219 C 715.316406 92.984375 714.949219 98.386719 717.660156 102.835938 C 722.589844 110.988281 726.695312 119.503906 729.972656 128.277344 C 731.640625 132.746094 735.378906 135.640625 740.050781 136.28125 Z M 664.492188 43.917969 C 661.691406 42.925781 658.777344 41.992188 655.664062 41.167969 C 650.734375 39.757812 647.566406 35.765625 646.683594 30.730469 L 643.3125 11.261719 C 642.214844 5.089844 637.285156 0.417969 631.003906 0.417969 L 614.53125 0.417969 C 615.097656 1.554688 615.519531 2.855469 615.777344 4.210938 L 619.148438 23.679688 C 620.027344 28.714844 623.199219 32.707031 628.125 34.0625 C 637.378906 36.609375 644.851562 39.613281 653.519531 43.878906 C 657.109375 45.636719 661.066406 45.636719 664.492188 43.917969 Z M 483.917969 333.257812 L 492.238281 341.574219 C 496.652344 346.042969 503.667969 346.464844 508.597656 342.5625 L 528.074219 327.398438 C 528.640625 326.976562 529.171875 326.609375 529.796875 326.300781 C 524.390625 324.230469 519.097656 321.832031 513.910156 319.136719 C 509.550781 316.847656 504.511719 317.269531 500.554688 320.328125 Z M 483.917969 333.257812 " fill-opacity="1" fillRule="evenodd"/></g><path fill="#efd233" d="M 436.871094 81.867188 C 448.191406 81.867188 459.40625 82.542969 470.417969 83.789062 L 479.816406 95.875 C 483.039062 100.035156 483.351562 105.4375 480.640625 109.886719 C 475.710938 118.039062 471.609375 126.609375 468.328125 135.328125 C 466.878906 139.320312 463.65625 142.121094 459.605469 143.058594 C 456.804688 142.945312 454.054688 142.910156 451.199219 142.910156 C 331.652344 142.910156 234.730469 239.777344 234.730469 359.25 C 234.730469 447.398438 287.496094 523.261719 363.164062 556.996094 C 355.890625 590.421875 332.621094 617.949219 301.769531 631.136719 C 208.917969 582.4375 145.542969 485.148438 145.542969 373.058594 C 145.5625 212.234375 275.972656 81.867188 436.871094 81.867188 Z M 564.714844 111.351562 C 661.527344 158.699219 728.160156 258.128906 728.160156 373.058594 C 728.160156 528.921875 605.699219 656.210938 451.65625 663.902344 L 448.066406 659.34375 C 444.164062 654.304688 443.503906 647.96875 446.195312 642.21875 C 450.300781 633.445312 453.78125 624.414062 456.585938 615.222656 C 458.507812 608.882812 463.691406 604.523438 470.289062 603.699219 L 506.746094 599.175781 C 515.066406 598.132812 521.183594 591.171875 521.183594 582.820312 L 521.183594 564.085938 C 606.359375 535.019531 667.644531 454.285156 667.644531 359.265625 C 667.644531 269.558594 613.011719 192.5625 535.164062 159.796875 C 538.753906 140.164062 549.5625 123.09375 564.714844 111.351562 Z M 564.714844 111.351562 " fill-opacity="1" fillRule="evenodd"/><path fill="#efd233" d="M 436.871094 81.867188 C 448.191406 81.867188 459.40625 82.542969 470.417969 83.789062 L 479.816406 95.875 C 483.039062 100.035156 483.351562 105.4375 480.640625 109.886719 C 475.710938 118.039062 471.609375 126.609375 468.328125 135.328125 C 466.878906 139.320312 463.65625 142.121094 459.605469 143.058594 C 456.804688 142.945312 454.054688 142.910156 451.199219 142.910156 C 331.652344 142.910156 234.730469 239.777344 234.730469 359.25 C 234.730469 447.398438 287.496094 523.261719 363.164062 556.996094 C 355.890625 590.421875 332.621094 617.949219 301.769531 631.136719 C 208.917969 582.4375 145.542969 485.148438 145.542969 373.058594 C 145.5625 212.234375 275.972656 81.867188 436.871094 81.867188 Z M 564.714844 111.351562 C 661.527344 158.699219 728.160156 258.128906 728.160156 373.058594 C 728.160156 528.921875 605.699219 656.210938 451.65625 663.902344 L 448.066406 659.34375 C 444.164062 654.304688 443.503906 647.96875 446.195312 642.21875 C 450.300781 633.445312 453.78125 624.414062 456.585938 615.222656 C 458.507812 608.882812 463.691406 604.523438 470.289062 603.699219 L 506.746094 599.175781 C 515.066406 598.132812 521.183594 591.171875 521.183594 582.820312 L 521.183594 564.085938 C 606.359375 535.019531 667.644531 454.285156 667.644531 359.265625 C 667.644531 269.558594 613.011719 192.5625 535.164062 159.796875 C 538.753906 140.164062 549.5625 123.09375 564.714844 111.351562 Z M 564.714844 111.351562 " fill-opacity="1" fillRule="evenodd"/><path fill="#ff9609" d="M 473.898438 122.359375 C 472.652344 124.90625 469.28125 133 468.347656 135.347656 C 466.898438 139.339844 463.675781 142.140625 459.625 143.074219 C 456.820312 142.964844 454.074219 142.929688 451.214844 142.929688 C 331.667969 142.929688 234.75 239.796875 234.75 359.265625 C 234.75 411.539062 253.347656 459.523438 284.199219 496.90625 C 240.996094 457.34375 213.882812 400.496094 213.882812 337.308594 C 213.863281 193.183594 338.285156 106.574219 473.898438 122.359375 Z M 637.378906 161.867188 C 693.257812 214.925781 728.160156 289.945312 728.160156 373.058594 C 728.160156 528.921875 605.699219 656.210938 451.65625 663.902344 L 448.066406 659.34375 C 444.164062 654.304688 443.503906 647.96875 446.195312 642.21875 C 446.398438 641.703125 446.671875 641.175781 446.875 640.660156 C 593.222656 625.238281 707.273438 501.464844 707.273438 351.117188 C 707.292969 278.84375 680.945312 212.746094 637.378906 161.867188 Z M 597.292969 199.613281 C 579.171875 183.058594 558.195312 169.503906 535.183594 159.796875 C 535.804688 156.261719 536.683594 152.78125 537.839844 149.46875 C 560.574219 162.488281 580.730469 179.523438 597.292969 199.613281 Z M 597.292969 199.613281 " fill-opacity="1" fillRule="evenodd"/><path fill="#efd233" d="M 317.359375 155.234375 L 250.578125 141.425781 C 208.148438 128.40625 225.917969 84.0625 255.507812 86.699219 L 357.355469 96.464844 C 368.109375 98.128906 378.1875 104.464844 384.417969 114.632812 C 390.390625 124.90625 391.175781 136.792969 387.53125 147.03125 L 347.738281 241.261719 C 336.046875 268.570312 288.011719 263.113281 297.261719 219.613281 Z M 317.359375 155.234375 " fill-opacity="1" fillRule="evenodd"/><path fill="#ff9609" d="M 359.28125 96.828125 C 369.300781 98.898438 378.554688 105.089844 384.417969 114.632812 C 390.390625 124.90625 391.175781 136.792969 387.53125 147.03125 L 347.738281 241.261719 C 339.070312 261.519531 310.453125 263.734375 299.957031 245.878906 C 310.710938 246.300781 321.976562 240.585938 326.851562 229.210938 L 366.625 134.925781 C 370.253906 124.703125 369.484375 112.800781 363.511719 102.523438 C 362.285156 100.457031 360.835938 98.53125 359.28125 96.828125 Z M 359.28125 96.828125 " fill-opacity="1" fillRule="evenodd"/><path fill="#ffffff" d="M 163.058594 651.394531 C 176.671875 663.226562 158.644531 683.941406 145.03125 672.109375 C 116.414062 647.234375 96.371094 613.1875 88.894531 575.699219 C 85.359375 557.949219 112.308594 552.601562 115.84375 570.292969 C 122.183594 602.070312 138.855469 630.3125 163.058594 651.394531 Z M 113.683594 527.308594 C 111.960938 545.277344 84.699219 542.675781 86.421875 524.761719 C 87.042969 518.167969 87.980469 511.886719 89.390625 505.457031 C 93.128906 487.804688 119.984375 493.460938 116.25 511.117188 C 115.019531 516.722656 114.398438 521.648438 113.683594 527.308594 Z M 113.683594 527.308594 " fill-opacity="1" fillRule="nonzero"/><g fill="#fbc906" fill-opacity="1"><g transform="translate(675.62469, 241.697938)"><g><path d="M 3.9375 0.140625 C 3.382812 0.140625 2.945312 -0.015625 2.625 -0.328125 C 2.300781 -0.640625 2.140625 -1.050781 2.140625 -1.5625 C 2.140625 -2.070312 2.300781 -2.488281 2.625 -2.8125 C 2.945312 -3.144531 3.382812 -3.3125 3.9375 -3.3125 C 4.507812 -3.3125 4.953125 -3.15625 5.265625 -2.84375 C 5.585938 -2.53125 5.75 -2.113281 5.75 -1.59375 C 5.75 -1.082031 5.585938 -0.664062 5.265625 -0.34375 C 4.941406 -0.0195312 4.5 0.140625 3.9375 0.140625 Z M 3.9375 0.140625 "/></g></g></g></svg>