<svg xmlns="http://www.w3.org/2000/svg" xmlns:xlink="http://www.w3.org/1999/xlink" width="1080" zoomAndPan="magnify" viewBox="0 0 810 809.999993" height="1080" preserveAspectRatio="xMidYMid meet" version="1.0"><defs><g/></defs><path fill="#4c536e" d="M 101.722656 113.601562 C 101.722656 68.089844 99.191406 43.3125 162.117188 38.644531 C 225.042969 33.976562 527.988281 0.402344 577.992188 0.402344 C 628 0.402344 651.589844 4.34375 659.792969 57 C 668 109.660156 703.902344 606.6875 705.664062 658.9375 C 707.425781 711.183594 710.476562 752.003906 652.148438 766.78125 C 593.824219 781.554688 247.738281 806.550781 222.511719 808.082031 C 197.28125 809.609375 158.089844 808.996094 150.648438 758.367188 C 143.210938 707.738281 101.722656 133.371094 101.722656 113.601562 Z M 101.722656 113.601562 " fill-opacity="1" fillRule="nonzero"/><path fill="#f5ede3" d="M 446.75 681.855469 C 437.421875 675.171875 423.515625 675.0625 413.863281 681.265625 C 404.210938 687.46875 398.597656 699.167969 399.039062 710.636719 C 399.480469 722.109375 405.675781 733.054688 414.824219 739.976562 C 419.050781 743.179688 423.992188 745.609375 429.261719 746.179688 C 437.230469 747.039062 445.125 743.570312 451.527344 738.746094 C 460.324219 732.125 467.289062 722.09375 467.375 711.078125 C 467.472656 698.628906 458.035156 687.097656 446.75 681.855469 Z M 446.75 681.855469 " fill-opacity="1" fillRule="nonzero"/><path fill="#f5ede3" d="M 154.472656 115.128906 C 151.609375 91.269531 158.960938 81.738281 191.929688 78.417969 C 224.902344 75.09375 527.976562 54.53125 556.589844 51.648438 C 585.203125 48.765625 610.949219 34.078125 616.984375 116.660156 C 623.015625 199.238281 643.730469 503.757812 646.796875 545.738281 C 649.863281 587.722656 654.398438 609.082031 605.515625 619.929688 C 556.632812 630.773438 284.597656 652.050781 249.265625 654.347656 C 213.9375 656.640625 199.117188 660.75 194.222656 609.984375 C 194.222656 609.984375 158.964844 152.578125 154.472656 115.128906 Z M 154.472656 115.128906 " fill-opacity="1" fillRule="nonzero"/><path fill="#4c536e" d="M 267.996094 174.667969 C 287.882812 172.644531 307.773438 170.660156 327.675781 168.765625 C 344.519531 167.164062 361.371094 165.625 378.226562 164.171875 C 393.984375 162.8125 409.75 161.53125 425.519531 160.316406 C 442.152344 159.03125 458.785156 157.816406 475.421875 156.632812 C 494.882812 155.25 514.34375 153.902344 533.804688 152.558594 C 536.488281 152.371094 539.167969 152.1875 541.851562 152.003906 C 544.121094 151.84375 544.140625 148.289062 541.851562 148.445312 C 521.910156 149.824219 501.964844 151.199219 482.027344 152.609375 C 465.148438 153.804688 448.269531 155.023438 431.398438 156.308594 C 415.625 157.511719 399.859375 158.773438 384.097656 160.113281 C 367.480469 161.527344 350.867188 163.023438 334.265625 164.585938 C 314.84375 166.417969 295.429688 168.335938 276.023438 170.300781 C 273.347656 170.570312 270.671875 170.839844 267.996094 171.113281 C 265.742188 171.34375 265.71875 174.902344 267.996094 174.667969 Z M 267.996094 174.667969 " fill-opacity="1" fillRule="nonzero"/><path fill="#4c536e" d="M 224.566406 221.324219 C 271.667969 214.4375 318.929688 208.628906 366.296875 203.910156 C 413.585938 199.199219 460.980469 195.574219 508.4375 193.03125 C 535.039062 191.605469 561.660156 190.523438 588.292969 189.78125 C 590.574219 189.714844 590.582031 186.160156 588.292969 186.222656 C 540.546875 187.558594 492.835938 189.984375 445.203125 193.507812 C 397.808594 197.015625 350.496094 201.605469 303.316406 207.277344 C 276.707031 210.476562 250.140625 214.019531 223.621094 217.898438 C 221.367188 218.226562 222.324219 221.652344 224.566406 221.324219 Z M 224.566406 221.324219 " fill-opacity="1" fillRule="nonzero"/><path fill="#4c536e" d="M 221.160156 264.730469 C 269.460938 257.414062 317.929688 251.214844 366.519531 246.136719 C 415.019531 241.074219 463.636719 237.125 512.316406 234.296875 C 539.609375 232.714844 566.921875 231.484375 594.246094 230.605469 C 596.527344 230.53125 596.535156 226.976562 594.246094 227.050781 C 545.257812 228.628906 496.3125 231.332031 447.453125 235.175781 C 398.835938 239 350.3125 243.941406 301.925781 250 C 274.640625 253.414062 247.402344 257.1875 220.214844 261.304688 C 217.960938 261.644531 218.917969 265.070312 221.160156 264.730469 Z M 221.160156 264.730469 " fill-opacity="1" fillRule="nonzero"/><path fill="#4c536e" d="M 229.515625 305.828125 C 276.082031 300.683594 322.695312 295.925781 369.34375 291.5625 C 415.753906 287.222656 462.203125 283.265625 508.679688 279.699219 C 535 277.679688 561.332031 275.78125 587.671875 274.007812 C 589.941406 273.855469 589.957031 270.300781 587.671875 270.453125 C 540.925781 273.601562 494.207031 277.136719 447.519531 281.0625 C 401.066406 284.972656 354.652344 289.265625 308.273438 293.945312 C 282.007812 296.597656 255.753906 299.375 229.515625 302.273438 C 227.265625 302.519531 227.242188 306.078125 229.515625 305.828125 Z M 229.515625 305.828125 " fill-opacity="1" fillRule="nonzero"/><path fill="#4c536e" d="M 231.519531 348.066406 C 278.011719 341.765625 324.609375 336.242188 371.285156 331.5 C 417.648438 326.789062 464.089844 322.84375 510.585938 319.671875 C 536.78125 317.882812 562.996094 316.34375 589.222656 315.042969 C 591.5 314.929688 591.511719 311.375 589.222656 311.488281 C 542.203125 313.816406 495.226562 316.929688 448.3125 320.828125 C 401.632812 324.710938 355.019531 329.367188 308.5 334.800781 C 282.496094 337.839844 256.519531 341.121094 230.578125 344.636719 C 228.320312 344.945312 229.28125 348.371094 231.519531 348.066406 Z M 231.519531 348.066406 " fill-opacity="1" fillRule="nonzero"/><path fill="#4c536e" d="M 231.96875 392.21875 C 278.558594 385.835938 325.210938 379.933594 371.921875 374.523438 C 418.554688 369.125 465.242188 364.207031 511.976562 359.78125 C 538.308594 357.285156 564.65625 354.945312 591.015625 352.761719 C 593.277344 352.574219 593.296875 349.015625 591.015625 349.203125 C 543.996094 353.105469 497.015625 357.492188 450.085938 362.375 C 403.160156 367.257812 356.28125 372.632812 309.464844 378.5 C 283.296875 381.777344 257.152344 385.210938 231.023438 388.792969 C 228.769531 389.101562 229.730469 392.527344 231.96875 392.21875 Z M 231.96875 392.21875 " fill-opacity="1" fillRule="nonzero"/><path fill="#4c536e" d="M 235.695312 445.542969 C 281.476562 437.03125 327.464844 429.652344 373.609375 423.429688 C 419.597656 417.234375 465.742188 412.191406 511.980469 408.289062 C 537.960938 406.101562 563.976562 404.273438 590.007812 402.808594 C 592.28125 402.679688 592.296875 399.125 590.007812 399.253906 C 566.765625 400.5625 543.535156 402.15625 520.332031 404.042969 C 497.128906 405.929688 473.945312 408.105469 450.796875 410.570312 C 427.53125 413.050781 404.296875 415.820312 381.097656 418.878906 C 358.089844 421.914062 335.121094 425.226562 312.191406 428.828125 C 289.195312 432.441406 266.238281 436.34375 243.339844 440.53125 C 240.476562 441.054688 237.613281 441.582031 234.753906 442.113281 C 232.507812 442.53125 233.457031 445.957031 235.695312 445.542969 Z M 235.695312 445.542969 " fill-opacity="1" fillRule="nonzero"/><path fill="#4c536e" d="M 234.671875 489.949219 C 281.167969 482.046875 327.824219 475.0625 374.601562 469.023438 C 421.066406 463.023438 467.648438 457.941406 514.3125 453.785156 C 540.710938 451.433594 567.132812 449.378906 593.574219 447.617188 C 595.84375 447.464844 595.863281 443.910156 593.574219 444.0625 C 546.355469 447.210938 499.199219 451.292969 452.144531 456.320312 C 405.402344 461.3125 358.757812 467.234375 312.25 474.074219 C 286.027344 477.929688 259.851562 482.082031 233.726562 486.519531 C 231.476562 486.902344 232.429688 490.328125 234.671875 489.949219 Z M 234.671875 489.949219 " fill-opacity="1" fillRule="nonzero"/><path fill="#4c536e" d="M 238.515625 534.039062 C 284.652344 529.410156 330.785156 524.777344 376.917969 520.148438 C 422.820312 515.542969 468.71875 510.933594 514.621094 506.328125 C 540.382812 503.742188 566.140625 501.15625 591.902344 498.570312 C 594.15625 498.34375 594.179688 494.789062 591.902344 495.015625 C 545.765625 499.648438 499.632812 504.277344 453.5 508.90625 C 407.597656 513.515625 361.699219 518.121094 315.796875 522.726562 C 290.035156 525.3125 264.277344 527.898438 238.515625 530.484375 C 236.261719 530.710938 236.238281 534.265625 238.515625 534.039062 Z M 238.515625 534.039062 " fill-opacity="1" fillRule="nonzero"/><path fill="#4c536e" d="M 256.484375 579.980469 C 302.160156 574.5625 347.867188 569.359375 393.59375 564.375 C 439.320312 559.394531 485.074219 554.628906 530.847656 550.078125 C 556.636719 547.515625 582.4375 545.023438 608.242188 542.597656 C 610.496094 542.386719 610.519531 538.828125 608.242188 539.042969 C 562.445312 543.347656 516.667969 547.867188 470.914062 552.605469 C 425.160156 557.34375 379.425781 562.300781 333.71875 567.472656 C 307.964844 570.386719 282.222656 573.371094 256.484375 576.425781 C 254.238281 576.691406 254.214844 580.25 256.484375 579.980469 Z M 256.484375 579.980469 " fill-opacity="1" fillRule="nonzero"/><path fill="#4c536e" d="M 363.773438 619.007812 C 374.699219 616.796875 385.765625 615.386719 396.894531 614.796875 C 400.078125 614.628906 403.261719 614.527344 406.449219 614.488281 C 408.734375 614.460938 408.742188 610.90625 406.449219 610.933594 C 395.039062 611.070312 383.648438 612.054688 372.378906 613.851562 C 369.183594 614.359375 366 614.9375 362.828125 615.578125 C 361.886719 615.769531 361.347656 616.886719 361.589844 617.765625 C 361.859375 618.746094 362.832031 619.199219 363.773438 619.007812 Z M 363.773438 619.007812 " fill-opacity="1" fillRule="nonzero"/><path fill="#4c536e" d="M 449.566406 610.996094 C 462.6875 609.582031 475.785156 607.957031 488.859375 606.136719 C 492.34375 605.652344 495.828125 605.152344 499.3125 604.644531 C 500.265625 604.507812 500.785156 603.300781 500.554688 602.460938 C 500.273438 601.4375 499.320312 601.078125 498.367188 601.21875 C 486.0625 603.007812 473.738281 604.671875 461.386719 606.113281 C 457.445312 606.574219 453.507812 607.015625 449.566406 607.441406 C 448.613281 607.542969 447.789062 608.183594 447.789062 609.21875 C 447.789062 610.097656 448.605469 611.097656 449.566406 610.996094 Z M 449.566406 610.996094 " fill-opacity="1" fillRule="nonzero"/><path fill="#4c536e" d="M 417.1875 702.84375 C 428.1875 701.296875 439.183594 699.746094 450.179688 698.195312 C 451.132812 698.0625 451.652344 696.847656 451.421875 696.007812 C 451.140625 694.984375 450.191406 694.632812 449.234375 694.769531 C 438.238281 696.316406 427.242188 697.867188 416.242188 699.417969 C 415.292969 699.550781 414.773438 700.765625 415.003906 701.605469 C 415.285156 702.628906 416.234375 702.980469 417.1875 702.84375 Z M 417.1875 702.84375 " fill-opacity="1" fillRule="nonzero"/><path fill="#4c536e" d="M 417.992188 714.046875 C 428.425781 712.8125 438.855469 711.578125 449.289062 710.34375 C 450.242188 710.230469 451.066406 709.605469 451.066406 708.566406 C 451.066406 707.691406 450.246094 706.671875 449.289062 706.789062 C 438.855469 708.023438 428.425781 709.257812 417.992188 710.492188 C 417.042969 710.605469 416.21875 711.230469 416.21875 712.269531 C 416.21875 713.144531 417.035156 714.160156 417.992188 714.046875 Z M 417.992188 714.046875 " fill-opacity="1" fillRule="nonzero"/><path fill="#4c536e" d="M 418.160156 727.808594 C 428.816406 726.492188 439.472656 725.171875 450.128906 723.855469 C 451.082031 723.738281 451.90625 723.125 451.90625 722.078125 C 451.90625 721.210938 451.089844 720.183594 450.128906 720.300781 C 439.472656 721.617188 428.816406 722.9375 418.160156 724.253906 C 417.210938 724.371094 416.382812 724.988281 416.382812 726.03125 C 416.382812 726.902344 417.203125 727.925781 418.160156 727.808594 Z M 418.160156 727.808594 " fill-opacity="1" fillRule="nonzero"/><path fill="#f5ede3" d="M 532.363281 687.082031 C 528.964844 694.609375 528.714844 703.769531 532.796875 710.949219 C 535.1875 715.152344 538.875 718.464844 542.777344 721.316406 C 546.535156 724.058594 550.628906 726.472656 555.148438 727.550781 C 567.800781 730.566406 580.824219 722.28125 588.097656 711.496094 C 590.367188 708.136719 592.261719 704.472656 593.171875 700.519531 C 595.605469 689.96875 590.257812 678.457031 581.339844 672.324219 C 572.421875 666.1875 563.316406 666.785156 550.164062 671.386719 C 544.023438 673.535156 535.761719 679.554688 532.363281 687.082031 Z M 532.363281 687.082031 " fill-opacity="1" fillRule="nonzero"/><path fill="#f5ede3" d="M 285.6875 695.183594 C 277.125 700.25 269.34375 711.085938 267.246094 720.816406 C 266.441406 724.550781 266.128906 728.449219 266.933594 732.179688 C 268.492188 739.417969 273.957031 745.105469 279.414062 750.105469 C 283.222656 753.597656 287.335938 757.0625 292.335938 758.355469 C 298.210938 759.878906 304.464844 758.15625 309.976562 755.613281 C 318.546875 751.660156 326.304688 745.523438 331.023438 737.347656 C 335.742188 729.171875 337.582031 718.648438 333.53125 710.121094 C 318.207031 677.867188 285.6875 695.183594 285.6875 695.183594 Z M 285.6875 695.183594 " fill-opacity="1" fillRule="nonzero"/><path fill="#4c536e" d="M 307.230469 708.546875 C 309.796875 718.546875 311.40625 728.78125 312.03125 739.078125 C 302.570312 735.144531 293.1875 731.03125 283.894531 726.746094 C 285.179688 725.070312 301.074219 713.1875 307.230469 708.546875 Z M 307.230469 708.546875 " fill-opacity="1" fillRule="nonzero"/><path fill="#4c536e" d="M 555.875 711.980469 C 562.820312 705.136719 569.765625 698.296875 576.710938 691.457031 C 567.980469 690.75 559.339844 688.945312 551.058594 686.09375 C 551.058594 686.09375 552.933594 704.058594 555.875 711.980469 Z M 555.875 711.980469 " fill-opacity="1" fillRule="nonzero"/><path fill="#4c536e" d="M 570.664062 103.308594 C 570.128906 99.597656 569.484375 95.90625 568.726562 92.234375 C 568.359375 90.445312 568.082031 88.402344 566.109375 87.710938 C 564.457031 87.128906 562.417969 87.761719 560.792969 88.191406 C 561.523438 88.605469 562.25 89.019531 562.980469 89.433594 C 562.683594 87.8125 562.476562 86.175781 562.175781 84.554688 C 561.992188 83.566406 561.800781 82.34375 561.035156 81.617188 C 560.410156 81.019531 559.535156 80.914062 558.71875 80.824219 C 556.753906 80.601562 554.746094 80.6875 552.773438 80.742188 C 545.621094 80.941406 538.472656 81.507812 531.34375 82.089844 C 523.390625 82.738281 515.441406 83.476562 507.503906 84.316406 C 504.515625 84.632812 501.527344 84.960938 498.546875 85.339844 C 496.765625 85.5625 494.945312 85.730469 493.191406 86.128906 C 492.359375 86.316406 491.65625 86.730469 491.410156 87.617188 C 491.171875 88.476562 491.253906 89.519531 491.253906 90.402344 C 491.257812 93.945312 491.414062 97.496094 491.597656 101.035156 C 491.800781 104.972656 492.042969 108.921875 492.511719 112.839844 C 492.675781 114.210938 492.824219 115.617188 493.183594 116.953125 C 493.445312 117.933594 493.902344 118.917969 494.96875 119.203125 C 496.273438 119.550781 497.878906 119.292969 499.199219 119.226562 C 501.878906 119.09375 504.558594 118.898438 507.234375 118.695312 C 514.917969 118.113281 522.589844 117.429688 530.261719 116.710938 C 537.804688 116.003906 545.347656 115.265625 552.875 114.433594 C 555.382812 114.15625 557.890625 113.871094 560.390625 113.539062 C 561.257812 113.421875 562.121094 113.308594 562.980469 113.160156 C 563.4375 113.078125 563.921875 113 564.328125 112.757812 C 565.257812 112.199219 565.296875 111.136719 565.28125 110.171875 C 565.253906 108.667969 565.128906 107.164062 565.007812 105.667969 C 564.414062 106.257812 563.820312 106.851562 563.230469 107.445312 C 564.773438 107.328125 566.328125 107.25 567.867188 107.09375 C 568.757812 107.003906 569.574219 106.785156 570.164062 106.058594 C 570.691406 105.414062 570.828125 104.589844 570.726562 103.78125 C 570.605469 102.828125 569.996094 102 568.949219 102 C 568.082031 102 567.050781 102.820312 567.171875 103.78125 C 567.191406 103.941406 567.183594 104.167969 567.242188 104.152344 C 567.253906 104.148438 567.742188 103.515625 567.757812 103.550781 C 567.71875 103.472656 566.34375 103.65625 566.199219 103.667969 C 565.210938 103.742188 564.21875 103.816406 563.230469 103.890625 C 562.332031 103.957031 561.371094 104.652344 561.453125 105.667969 C 561.578125 107.1875 561.707031 108.714844 561.726562 110.242188 C 561.730469 110.421875 561.726562 110.605469 561.726562 110.785156 C 561.726562 110.835938 561.6875 110.984375 561.710938 111.03125 C 561.640625 110.875 561.867188 110.390625 561.914062 110.308594 C 562.117188 109.960938 562.609375 109.5625 562.859375 109.550781 C 562.480469 109.566406 562.039062 109.730469 561.660156 109.792969 C 561.3125 109.847656 560.960938 109.902344 560.613281 109.949219 C 560.40625 109.980469 560.191406 109.996094 559.984375 110.035156 C 560.742188 109.878906 559.890625 110.046875 559.695312 110.074219 C 558.535156 110.226562 557.371094 110.363281 556.210938 110.5 C 549.398438 111.292969 542.574219 111.972656 535.75 112.632812 C 527.992188 113.382812 520.226562 114.089844 512.460938 114.726562 C 507.292969 115.152344 502.09375 115.667969 496.90625 115.757812 C 496.625 115.761719 496.34375 115.765625 496.0625 115.757812 C 495.761719 115.75 495.183594 115.582031 495.976562 115.789062 C 495.933594 115.773438 495.882812 115.769531 495.839844 115.757812 C 496.140625 115.855469 496.351562 115.96875 496.558594 116.171875 C 496.359375 115.980469 496.878906 116.621094 496.726562 116.390625 C 496.46875 116 496.851562 116.847656 496.722656 116.390625 C 496.667969 116.199219 496.609375 116.011719 496.5625 115.820312 C 496.425781 115.273438 496.332031 114.71875 496.246094 114.164062 C 496.222656 114.015625 496.203125 113.871094 496.179688 113.722656 C 496.148438 113.503906 496.101562 113.109375 496.15625 113.566406 C 496.105469 113.148438 496.050781 112.730469 496.003906 112.3125 C 495.800781 110.503906 495.648438 108.691406 495.511719 106.878906 C 495.21875 102.890625 495.019531 98.894531 494.894531 94.898438 C 494.847656 93.398438 494.808594 91.898438 494.808594 90.402344 C 494.808594 89.90625 494.8125 89.414062 494.832031 88.921875 C 494.835938 88.753906 494.847656 88.589844 494.855469 88.425781 C 494.878906 87.953125 494.757812 88.839844 494.835938 88.5625 C 494.769531 88.808594 494.378906 89.34375 494.089844 89.511719 C 494.085938 89.515625 493.507812 89.683594 493.832031 89.632812 C 494.019531 89.601562 494.207031 89.539062 494.394531 89.5 C 495.070312 89.367188 495.75 89.269531 496.429688 89.175781 C 496.660156 89.140625 496.886719 89.109375 497.117188 89.078125 C 497.496094 89.027344 497.125 89.078125 497.046875 89.085938 C 497.1875 89.070312 497.332031 89.050781 497.472656 89.03125 C 498.035156 88.957031 498.601562 88.886719 499.167969 88.816406 C 500.554688 88.644531 501.945312 88.484375 503.332031 88.328125 C 510.660156 87.5 518.003906 86.796875 525.351562 86.152344 C 532.878906 85.492188 540.417969 84.878906 547.96875 84.496094 C 550.609375 84.359375 553.253906 84.238281 555.898438 84.253906 C 556.738281 84.257812 557.582031 84.269531 558.421875 84.347656 C 558.558594 84.359375 558.703125 84.394531 558.84375 84.394531 C 558.117188 84.386719 558.566406 84.351562 558.804688 84.402344 C 558.886719 84.421875 558.972656 84.457031 559.054688 84.46875 C 559.386719 84.511719 558.558594 84.199219 558.859375 84.390625 C 558.660156 84.265625 558.503906 84.132812 558.367188 83.914062 C 558.441406 84.03125 558.414062 84.121094 558.316406 83.757812 C 558.34375 83.859375 558.390625 83.957031 558.421875 84.058594 C 558.585938 84.59375 558.6875 85.152344 558.785156 85.703125 C 559.066406 87.257812 559.269531 88.824219 559.550781 90.378906 C 559.726562 91.332031 560.875 91.847656 561.738281 91.621094 C 562.417969 91.441406 563.097656 91.257812 563.792969 91.144531 C 564.0625 91.097656 564.332031 91.066406 564.605469 91.058594 C 564.613281 91.058594 564.878906 91.035156 564.839844 91.035156 C 565.300781 91.011719 564.792969 91.125 564.839844 90.992188 C 564.839844 90.996094 564.886719 91.25 564.921875 91.394531 C 565.007812 91.746094 565.074219 92.109375 565.152344 92.464844 C 565.320312 93.273438 565.488281 94.085938 565.648438 94.898438 C 566.257812 98 566.785156 101.121094 567.234375 104.25 C 567.375 105.203125 568.578125 105.726562 569.421875 105.492188 C 570.441406 105.210938 570.800781 104.261719 570.664062 103.308594 Z M 570.664062 103.308594 " fill-opacity="1" fillRule="nonzero"/><path fill="#4c536e" d="M 214.324219 114.578125 C 214.351562 114.027344 214.222656 114.863281 214.351562 114.339844 C 214.390625 114.171875 214.4375 114 214.507812 113.839844 C 214.355469 114.1875 214.871094 113.316406 214.667969 113.582031 C 214.773438 113.445312 214.898438 113.316406 215.027344 113.195312 C 215.027344 113.191406 215.46875 112.832031 215.214844 113.019531 C 215.335938 112.929688 215.464844 112.847656 215.59375 112.773438 C 215.648438 112.742188 216.148438 112.484375 215.90625 112.589844 C 216.632812 112.273438 216.875 112.238281 217.585938 112.257812 C 218.082031 112.273438 218.605469 112.433594 219.222656 112.828125 C 220.300781 113.507812 221.085938 114.792969 221.464844 116.078125 C 221.84375 117.371094 222.019531 118.949219 221.394531 120.261719 C 220.695312 121.71875 218.867188 122.195312 217.515625 122.855469 C 215.914062 123.636719 214.441406 124.746094 213.234375 126.054688 C 211.957031 127.445312 210.96875 129.027344 210.265625 130.773438 C 209.953125 131.554688 209.695312 132.355469 209.765625 133.207031 C 209.871094 134.480469 210.707031 135.492188 211.996094 135.695312 C 213.167969 135.878906 214.476562 135.621094 215.660156 135.546875 C 216.933594 135.464844 218.207031 135.382812 219.480469 135.300781 C 222.027344 135.140625 224.574219 134.976562 227.121094 134.816406 C 228.082031 134.753906 228.898438 134.042969 228.898438 133.039062 C 228.898438 132.121094 228.085938 131.199219 227.121094 131.257812 C 222.421875 131.558594 217.71875 131.882812 213.015625 132.160156 C 212.917969 132.164062 212.820312 132.171875 212.722656 132.179688 C 212.132812 132.148438 212.324219 132.390625 213.296875 132.902344 C 213.296875 132.945312 213.300781 132.984375 213.300781 133.023438 C 213.3125 132.804688 213.308594 132.773438 213.285156 132.925781 C 213.390625 132.511719 213.523438 132.109375 213.691406 131.71875 C 213.992188 131.027344 214.445312 130.257812 214.902344 129.601562 C 215.832031 128.277344 217.101562 127.152344 218.511719 126.347656 C 220.179688 125.390625 222.105469 124.882812 223.464844 123.441406 C 224.910156 121.910156 225.4375 119.746094 225.316406 117.679688 C 225.097656 113.984375 223.023438 110.136719 219.3125 108.972656 C 215.496094 107.777344 210.976562 110.484375 210.769531 114.578125 C 210.722656 115.535156 211.621094 116.355469 212.546875 116.355469 C 213.550781 116.355469 214.277344 115.539062 214.324219 114.578125 Z M 214.324219 114.578125 " fill-opacity="1" fillRule="nonzero"/><path fill="#4c536e" d="M 248.925781 109.785156 C 247.03125 106.957031 244.089844 105.03125 240.667969 104.757812 C 238.28125 104.566406 235.800781 105.378906 234.109375 107.097656 C 231.152344 110.109375 230.738281 114.914062 230.925781 118.910156 C 231.097656 122.574219 231.625 126.628906 233.5 129.859375 C 235.1875 132.765625 238.167969 134.953125 241.660156 134.0625 C 244.671875 133.292969 247.203125 130.691406 248.804688 128.128906 C 252.210938 122.683594 252.425781 115.234375 248.925781 109.785156 C 248.40625 108.976562 247.347656 108.644531 246.492188 109.144531 C 245.691406 109.617188 245.335938 110.765625 245.855469 111.578125 C 247.082031 113.488281 247.773438 115.699219 247.886719 117.847656 C 247.949219 119.003906 247.875 120.242188 247.703125 121.175781 C 247.511719 122.238281 247.117188 123.585938 246.765625 124.390625 C 245.855469 126.492188 244.5625 128.320312 242.703125 129.632812 C 242.195312 129.992188 241.652344 130.335938 241.0625 130.53125 C 240.476562 130.730469 239.855469 130.761719 239.425781 130.652344 C 238.53125 130.425781 237.761719 129.769531 237.160156 128.976562 C 236.167969 127.667969 235.667969 126.269531 235.289062 124.683594 C 235.121094 123.984375 234.980469 123.273438 234.859375 122.5625 C 234.832031 122.386719 234.804688 122.210938 234.777344 122.035156 C 234.765625 121.953125 234.683594 121.371094 234.710938 121.589844 C 234.742188 121.816406 234.667969 121.222656 234.65625 121.121094 C 234.628906 120.882812 234.605469 120.640625 234.582031 120.398438 C 234.417969 118.617188 234.382812 116.8125 234.5625 115.027344 C 234.574219 114.921875 234.664062 114.253906 234.601562 114.679688 C 234.628906 114.484375 234.660156 114.289062 234.695312 114.09375 C 234.773438 113.640625 234.875 113.191406 234.996094 112.75 C 235.101562 112.363281 235.226562 111.988281 235.363281 111.613281 C 235.394531 111.527344 235.429688 111.441406 235.464844 111.359375 C 235.3125 111.734375 235.429688 111.441406 235.476562 111.347656 C 235.578125 111.148438 235.675781 110.949219 235.785156 110.753906 C 235.890625 110.566406 236.007812 110.378906 236.128906 110.199219 C 236.179688 110.125 236.230469 110.058594 236.277344 109.988281 C 236.359375 109.871094 236.050781 110.234375 236.320312 109.941406 C 236.464844 109.785156 236.601562 109.628906 236.757812 109.480469 C 236.835938 109.40625 237.289062 109.035156 237.113281 109.164062 C 236.910156 109.3125 237.140625 109.148438 237.191406 109.117188 C 237.304688 109.050781 237.410156 108.976562 237.519531 108.910156 C 237.617188 108.855469 238.148438 108.59375 237.957031 108.675781 C 237.730469 108.773438 238.003906 108.660156 238.058594 108.640625 C 238.191406 108.59375 238.320312 108.550781 238.453125 108.511719 C 238.722656 108.433594 238.996094 108.367188 239.269531 108.328125 C 241.746094 107.976562 244.394531 109.394531 245.855469 111.578125 C 246.390625 112.375 247.421875 112.722656 248.289062 112.214844 C 249.078125 111.753906 249.460938 110.585938 248.925781 109.785156 Z M 248.925781 109.785156 " fill-opacity="1" fillRule="nonzero"/><path fill="#4c536e" d="M 278.375 103.019531 C 276.90625 103.238281 275.429688 103.4375 273.964844 103.683594 C 272.316406 103.964844 271.28125 105.109375 271.242188 106.800781 C 271.210938 108.265625 271.445312 109.785156 271.550781 111.246094 C 271.664062 112.785156 271.773438 114.320312 271.886719 115.859375 C 271.988281 117.296875 273.292969 117.949219 274.558594 117.394531 C 275.546875 116.960938 276.722656 116.445312 277.828125 116.527344 C 278.71875 116.59375 279.292969 117.167969 279.734375 117.902344 C 280.660156 119.433594 280.835938 121.234375 280.285156 122.902344 C 279.769531 124.464844 278.636719 125.367188 277.050781 125.667969 C 276.832031 125.703125 276.804688 125.707031 276.972656 125.679688 C 276.878906 125.691406 276.789062 125.699219 276.695312 125.703125 C 276.480469 125.707031 276.265625 125.714844 276.046875 125.703125 C 275.679688 125.6875 275.578125 125.671875 275.078125 125.519531 C 274.726562 125.414062 274.632812 125.375 274.195312 125.101562 C 274.023438 124.980469 273.996094 124.96875 274.117188 125.066406 C 274.023438 124.988281 273.933594 124.910156 273.847656 124.828125 C 273.792969 124.777344 273.402344 124.316406 273.53125 124.496094 C 272.96875 123.71875 271.988281 123.339844 271.101562 123.855469 C 270.335938 124.304688 269.898438 125.507812 270.464844 126.289062 C 273.054688 129.871094 278.539062 130.253906 281.707031 127.160156 C 285.027344 123.917969 284.933594 117.742188 281.578125 114.539062 C 279.007812 112.082031 275.644531 113.058594 272.765625 114.324219 C 273.65625 114.835938 274.546875 115.347656 275.4375 115.859375 C 275.25 113.265625 275.0625 110.671875 274.878906 108.078125 C 274.855469 107.789062 274.832031 107.503906 274.816406 107.214844 C 274.804688 107.074219 274.796875 106.9375 274.796875 106.800781 C 274.824219 106.539062 274.8125 106.523438 274.761719 106.753906 C 274.730469 107.003906 274.574219 107.167969 274.289062 107.246094 C 274.425781 107.203125 274.5625 107.167969 274.703125 107.144531 C 274.953125 107.097656 275.210938 107.066406 275.460938 107.027344 C 276.746094 106.835938 278.035156 106.640625 279.320312 106.445312 C 280.269531 106.304688 280.792969 105.105469 280.5625 104.261719 C 280.28125 103.242188 279.328125 102.875 278.375 103.019531 Z M 278.375 103.019531 " fill-opacity="1" fillRule="nonzero"/><path fill="#4c536e" d="M 306.945312 105.042969 C 304.722656 100.367188 298.578125 97.453125 293.902344 100.46875 C 290.582031 102.613281 289.4375 106.675781 289.054688 110.390625 C 288.730469 113.550781 288.800781 117.15625 290.128906 120.09375 C 291.253906 122.574219 293.464844 124.707031 296.113281 125.457031 C 298.828125 126.226562 301.628906 125.316406 303.644531 123.421875 C 305.804688 121.394531 307.054688 118.453125 307.679688 115.601562 C 308.46875 112.042969 308.441406 108.414062 306.945312 105.042969 C 306.554688 104.167969 305.277344 103.960938 304.515625 104.40625 C 303.613281 104.933594 303.484375 105.957031 303.878906 106.839844 C 304.847656 109.019531 304.832031 111.597656 304.40625 113.90625 C 304 116.113281 303.355469 118.097656 302.046875 119.898438 C 301.609375 120.503906 300.886719 121.195312 300.246094 121.578125 C 299.492188 122.027344 298.753906 122.230469 297.804688 122.175781 C 297.726562 122.171875 297.582031 122.15625 297.359375 122.105469 C 297.09375 122.046875 296.824219 121.96875 296.570312 121.871094 C 296.300781 121.761719 295.707031 121.421875 295.351562 121.152344 C 294.648438 120.617188 294 119.816406 293.535156 118.976562 C 293.183594 118.339844 292.972656 117.726562 292.816406 116.980469 C 292.773438 116.769531 292.734375 116.558594 292.699219 116.34375 C 292.679688 116.207031 292.660156 116.070312 292.640625 115.933594 C 292.703125 116.328125 292.660156 116.09375 292.632812 115.855469 C 292.480469 114.484375 292.441406 113.097656 292.507812 111.722656 C 292.523438 111.378906 292.546875 111.03125 292.578125 110.6875 C 292.597656 110.488281 292.617188 110.292969 292.640625 110.09375 C 292.652344 109.992188 292.664062 109.894531 292.675781 109.792969 C 292.644531 110.046875 292.65625 109.925781 292.6875 109.746094 C 292.8125 108.980469 292.96875 108.222656 293.1875 107.480469 C 293.285156 107.152344 293.394531 106.828125 293.511719 106.507812 C 293.546875 106.417969 293.582031 106.328125 293.617188 106.238281 C 293.59375 106.300781 293.464844 106.5625 293.609375 106.265625 C 293.695312 106.097656 293.769531 105.921875 293.855469 105.753906 C 294.015625 105.445312 294.195312 105.144531 294.386719 104.855469 C 294.472656 104.730469 294.691406 104.445312 294.472656 104.71875 C 294.601562 104.558594 294.734375 104.402344 294.871094 104.253906 C 295.011719 104.109375 295.160156 103.972656 295.304688 103.832031 C 295.355469 103.785156 295.410156 103.746094 295.460938 103.703125 C 295.613281 103.5625 295.195312 103.867188 295.472656 103.691406 C 295.824219 103.472656 296.164062 103.253906 296.542969 103.085938 C 296.195312 103.238281 296.648438 103.058594 296.785156 103.019531 C 297 102.953125 297.214844 102.90625 297.433594 102.855469 C 297.503906 102.839844 297.582031 102.828125 297.65625 102.816406 C 297.355469 102.859375 297.992188 102.796875 297.988281 102.796875 C 298.277344 102.785156 298.570312 102.789062 298.855469 102.824219 C 299.789062 102.933594 300.886719 103.417969 301.746094 104.085938 C 302.660156 104.792969 303.367188 105.761719 303.878906 106.839844 C 304.289062 107.707031 305.53125 107.933594 306.308594 107.476562 C 307.195312 106.957031 307.359375 105.914062 306.945312 105.042969 Z M 306.945312 105.042969 " fill-opacity="1" fillRule="nonzero"/><path fill="#4c536e" d="M 497.78125 92.398438 C 496.75 90.535156 508.257812 89.941406 508.257812 91.578125 C 508.257812 93.214844 510.710938 110.574219 510.550781 111.554688 C 510.386719 112.539062 499.417969 114.011719 499.257812 112.046875 C 499.09375 110.082031 498.601562 93.871094 497.78125 92.398438 Z M 497.78125 92.398438 " fill-opacity="1" fillRule="nonzero"/><path fill="#4c536e" d="M 513.660156 91.578125 C 513.441406 89.460938 525.769531 88.632812 525.769531 90.269531 C 525.769531 91.90625 527.898438 108.773438 527.734375 109.753906 C 527.570312 110.738281 516.359375 112.785156 516.195312 110.820312 C 516.03125 108.855469 513.90625 93.953125 513.660156 91.578125 Z M 513.660156 91.578125 " fill-opacity="1" fillRule="nonzero"/><path fill="#4c536e" d="M 531.988281 90.269531 C 531.5 87.730469 543.773438 86.832031 543.773438 88.46875 C 543.773438 90.105469 546.230469 107.460938 546.066406 108.445312 C 545.902344 109.425781 535.097656 110.882812 534.773438 108.9375 C 534.363281 106.480469 532.308594 91.925781 531.988281 90.269531 Z M 531.988281 90.269531 " fill-opacity="1" fillRule="nonzero"/><g fill="#fbc906" fill-opacity="1"><g transform="translate(675.62469, 241.697938)"><g><path d="M 3.9375 0.140625 C 3.382812 0.140625 2.945312 -0.015625 2.625 -0.328125 C 2.300781 -0.640625 2.140625 -1.050781 2.140625 -1.5625 C 2.140625 -2.070312 2.300781 -2.488281 2.625 -2.8125 C 2.945312 -3.144531 3.382812 -3.3125 3.9375 -3.3125 C 4.507812 -3.3125 4.953125 -3.15625 5.265625 -2.84375 C 5.585938 -2.53125 5.75 -2.113281 5.75 -1.59375 C 5.75 -1.082031 5.585938 -0.664062 5.265625 -0.34375 C 4.941406 -0.0195312 4.5 0.140625 3.9375 0.140625 Z M 3.9375 0.140625 "/></g></g></g></svg>