<svg xmlns="http://www.w3.org/2000/svg" xmlns:xlink="http://www.w3.org/1999/xlink" width="500" zoomAndPan="magnify" viewBox="0 0 375 374.999991" height="500" preserveAspectRatio="xMidYMid meet" version="1.0"><defs><clipPath id="a4bfdeb650"><path d="M 0 210.277344 L 105.425781 210.277344 L 105.425781 235.773438 L 0 235.773438 Z M 0 210.277344 " clip-rule="nonzero"/></clipPath><clipPath id="5ca72e675b"><path d="M 241.042969 204 L 312 204 L 312 237 L 241.042969 237 Z M 241.042969 204 " clip-rule="nonzero"/></clipPath></defs><path fill="#ef4444" d="M 152.140625 235.472656 L 129.203125 163.394531 L 128.328125 163.394531 L 105.359375 235.472656 L 83.125 235.472656 L 115.828125 140.613281 L 141.671875 140.613281 L 174.40625 235.472656 Z M 152.140625 235.472656 " fill-opacity="1" fillRule="nonzero"/><g clip-path="url(#a4bfdeb650)"><path fill="#ef4444" d="M 0 210.277344 L 105.472656 210.277344 L 105.472656 235.773438 L 0 235.773438 Z M 0 210.277344 " fill-opacity="1" fillRule="nonzero"/></g><path fill="#ef4444" d="M 174.433594 235.425781 L 174.433594 206.332031 L 194.027344 206.332031 L 194.027344 211.410156 L 180.574219 211.410156 L 180.574219 218.332031 L 193.027344 218.332031 L 193.027344 223.410156 L 180.574219 223.410156 L 180.574219 230.347656 L 194.089844 230.347656 L 194.089844 235.425781 Z M 174.433594 235.425781 " fill-opacity="1" fillRule="nonzero"/><path fill="#ef4444" d="M 198.933594 235.425781 L 198.933594 206.332031 L 210.402344 206.332031 C 212.609375 206.332031 214.488281 206.753906 216.042969 207.597656 C 217.59375 208.433594 218.78125 209.59375 219.605469 211.082031 C 220.425781 212.5625 220.839844 214.265625 220.839844 216.191406 C 220.839844 218.128906 220.421875 219.832031 219.589844 221.300781 C 218.753906 222.769531 217.546875 223.921875 215.964844 224.753906 C 214.390625 225.578125 212.484375 225.988281 210.246094 225.988281 L 205.074219 225.988281 L 205.074219 235.425781 Z M 205.074219 221.066406 L 209.261719 221.066406 C 211.019531 221.066406 212.332031 220.613281 213.199219 219.707031 C 214.0625 218.800781 214.496094 217.628906 214.496094 216.191406 C 214.496094 214.746094 214.0625 213.578125 213.199219 212.691406 C 212.332031 211.808594 211.011719 211.363281 209.230469 211.363281 L 205.074219 211.363281 Z M 205.074219 221.066406 " fill-opacity="1" fillRule="nonzero"/><path fill="#ef4444" d="M 224.839844 235.425781 L 224.839844 206.332031 L 230.980469 206.332031 L 230.980469 230.347656 L 243.464844 230.347656 L 243.464844 235.425781 Z M 224.839844 235.425781 " fill-opacity="1" fillRule="nonzero"/><path fill="#ef4444" d="M 312.480469 206.332031 L 320.058594 206.332031 L 328.074219 225.878906 L 328.417969 225.878906 L 336.433594 206.332031 L 344.011719 206.332031 L 344.011719 235.425781 L 338.042969 235.425781 L 338.042969 216.488281 L 337.808594 216.488281 L 330.277344 235.285156 L 326.214844 235.285156 L 318.683594 216.425781 L 318.449219 216.425781 L 318.449219 235.425781 L 312.480469 235.425781 Z M 312.480469 206.332031 " fill-opacity="1" fillRule="nonzero"/><g clip-path="url(#5ca72e675b)"><path fill="#ef4444" d="M 241.34375 220.894531 C 241.0625 208.832031 254.222656 200.359375 265.777344 206.980469 C 269.582031 209.160156 272.8125 212.390625 276.289062 215.917969 C 276.445312 216.078125 276.519531 216.0625 276.664062 215.914062 C 282.101562 210.4375 289.96875 202.082031 300.988281 205.332031 C 305.625 206.699219 308.847656 209.710938 310.5 214.242188 C 316.023438 229.417969 300.175781 241.984375 286.582031 233.652344 C 283.152344 231.554688 280.191406 228.65625 276.691406 225.089844 C 276.507812 224.898438 276.421875 224.925781 276.25 225.097656 C 272.273438 229.109375 267.996094 233.46875 262.710938 235.292969 C 251.953125 239.003906 241.640625 232.59375 241.34375 220.890625 Z M 248.074219 220.660156 C 248.417969 227.625 253.777344 230.875 259.488281 229.640625 C 264.421875 228.570312 268.5625 224.230469 272.085938 220.605469 C 272.207031 220.484375 272.140625 220.433594 272.058594 220.359375 C 268.996094 217.5 266.003906 214.007812 262.234375 212.210938 C 254.929688 208.730469 248.050781 213.835938 248.074219 220.660156 Z M 304.875 220.363281 C 304.660156 213.632812 299.347656 209.960938 293.226562 211.398438 C 288.410156 212.527344 284.292969 216.847656 280.875 220.359375 C 280.753906 220.480469 280.800781 220.539062 280.898438 220.628906 C 285.171875 224.621094 290.21875 230.917969 297.035156 229.769531 C 301.574219 229.007812 304.886719 225.050781 304.875 220.363281 Z M 304.875 220.363281 " fill-opacity="1" fillRule="nonzero"/></g></svg>