<svg xmlns="http://www.w3.org/2000/svg" xmlns:xlink="http://www.w3.org/1999/xlink" width="1080" zoomAndPan="magnify" viewBox="0 0 810 809.999993" height="1080" preserveAspectRatio="xMidYMid meet" version="1.0"><defs><g/><clipPath id="bbe34b371c"><path d="M 537 183 L 782.34375 183 L 782.34375 603 L 537 603 Z M 537 183 " clip-rule="nonzero"/></clipPath><clipPath id="081cad3adf"><path d="M 537 578 L 782.34375 578 L 782.34375 632 L 537 632 Z M 537 578 " clip-rule="nonzero"/></clipPath></defs><path fill="#366088" d="M 421.179688 786.417969 C 421.175781 786.417969 421.175781 786.417969 421.171875 786.417969 L 420.949219 786.417969 C 418.691406 786.417969 416.863281 784.585938 416.863281 782.332031 C 416.863281 780.074219 418.691406 778.246094 420.949219 778.246094 L 421.171875 778.246094 C 421.175781 778.246094 421.179688 778.246094 421.179688 778.246094 C 435.832031 778.246094 450.597656 777.414062 465.0625 775.773438 C 467.300781 775.523438 469.328125 777.132812 469.582031 779.375 C 469.839844 781.617188 468.226562 783.640625 465.984375 783.894531 C 451.214844 785.566406 436.140625 786.417969 421.179688 786.417969 Z M 509.5 776.359375 C 507.644531 776.359375 505.960938 775.082031 505.523438 773.195312 C 505.015625 771 506.382812 768.804688 508.582031 768.292969 C 522.882812 764.980469 537.136719 760.792969 550.953125 755.855469 C 553.074219 755.09375 555.414062 756.203125 556.175781 758.328125 C 556.933594 760.449219 555.828125 762.789062 553.703125 763.546875 C 539.59375 768.59375 525.03125 772.867188 510.429688 776.253906 C 510.117188 776.324219 509.808594 776.359375 509.5 776.359375 Z M 593.421875 746.363281 C 591.917969 746.363281 590.46875 745.527344 589.757812 744.085938 C 588.757812 742.0625 589.585938 739.613281 591.609375 738.617188 C 604.761719 732.121094 617.683594 724.789062 630.023438 716.820312 C 631.921875 715.59375 634.449219 716.136719 635.671875 718.03125 C 636.898438 719.925781 636.355469 722.457031 634.460938 723.679688 C 621.855469 731.820312 608.660156 739.308594 595.230469 745.941406 C 594.648438 746.226562 594.03125 746.363281 593.421875 746.363281 Z M 668.296875 698.011719 C 667.117188 698.011719 665.945312 697.503906 665.136719 696.519531 C 663.703125 694.777344 663.957031 692.203125 665.699219 690.769531 C 677.039062 681.453125 687.96875 671.378906 698.179688 660.828125 C 699.746094 659.207031 702.332031 659.164062 703.957031 660.730469 C 705.578125 662.300781 705.621094 664.886719 704.050781 666.507812 C 693.625 677.28125 682.46875 687.566406 670.886719 697.082031 C 670.128906 697.707031 669.210938 698.011719 668.296875 698.011719 Z M 668.296875 698.011719 " fill-opacity="1" fillRule="nonzero"/><path fill="#366088" d="M 725.074219 153.492188 C 723.878906 153.492188 722.691406 152.96875 721.886719 151.964844 C 712.304688 140.03125 701.902344 128.542969 690.96875 117.824219 C 689.355469 116.246094 689.332031 113.660156 690.910156 112.046875 C 692.492188 110.4375 695.078125 110.410156 696.6875 111.992188 C 707.855469 122.9375 718.476562 134.664062 728.257812 146.851562 C 729.671875 148.609375 729.390625 151.179688 727.628906 152.59375 C 726.875 153.199219 725.972656 153.492188 725.074219 153.492188 Z M 658.710938 88.441406 C 657.839844 88.441406 656.960938 88.164062 656.21875 87.59375 C 644.082031 78.242188 631.261719 69.53125 618.121094 61.703125 C 616.183594 60.550781 615.546875 58.042969 616.703125 56.105469 C 617.855469 54.164062 620.363281 53.53125 622.300781 54.683594 C 635.722656 62.675781 648.8125 71.574219 661.207031 81.121094 C 662.992188 82.5 663.328125 85.066406 661.949219 86.851562 C 661.144531 87.894531 659.933594 88.441406 658.710938 88.441406 Z M 578.859375 40.898438 C 578.304688 40.898438 577.742188 40.785156 577.203125 40.546875 C 563.199219 34.339844 548.679688 28.925781 534.046875 24.449219 C 531.886719 23.789062 530.671875 21.507812 531.332031 19.347656 C 531.992188 17.191406 534.277344 15.976562 536.433594 16.636719 C 551.382812 21.207031 566.214844 26.738281 580.515625 33.078125 C 582.578125 33.992188 583.511719 36.40625 582.59375 38.46875 C 581.921875 39.992188 580.425781 40.898438 578.859375 40.898438 Z M 489.984375 13.722656 C 489.746094 13.722656 489.503906 13.699219 489.261719 13.65625 C 474.222656 10.976562 458.828125 9.171875 443.503906 8.296875 C 441.25 8.167969 439.527344 6.238281 439.65625 3.988281 C 439.785156 1.734375 441.714844 0.0117188 443.96875 0.140625 C 459.613281 1.035156 475.335938 2.875 490.695312 5.613281 C 492.917969 6.007812 494.398438 8.128906 494 10.351562 C 493.648438 12.332031 491.925781 13.722656 489.984375 13.722656 Z M 489.984375 13.722656 " fill-opacity="1" fillRule="nonzero"/><path fill="#366088" d="M 66.804688 558.820312 C 65.257812 558.820312 63.773438 557.9375 63.085938 556.433594 C 56.582031 542.214844 50.875 527.457031 46.128906 512.570312 C 45.445312 510.421875 46.632812 508.121094 48.78125 507.4375 C 50.933594 506.75 53.230469 507.9375 53.914062 510.089844 C 58.5625 524.664062 64.148438 539.113281 70.519531 553.035156 C 71.457031 555.089844 70.554688 557.511719 68.503906 558.449219 C 67.953125 558.703125 67.375 558.820312 66.804688 558.820312 Z M 38.578125 470.308594 C 36.65625 470.308594 34.941406 468.945312 34.570312 466.988281 C 31.652344 451.667969 29.625 435.976562 28.550781 420.351562 C 28.398438 418.101562 30.097656 416.152344 32.347656 415.996094 C 34.597656 415.839844 36.550781 417.542969 36.703125 419.792969 C 37.757812 435.09375 39.738281 450.457031 42.597656 465.457031 C 43.019531 467.675781 41.5625 469.8125 39.347656 470.234375 C 39.089844 470.285156 38.832031 470.308594 38.578125 470.308594 Z M 32.179688 377.613281 C 32.109375 377.613281 32.042969 377.613281 31.972656 377.609375 C 29.71875 377.496094 27.984375 375.582031 28.09375 373.328125 C 28.863281 357.675781 30.578125 341.945312 33.191406 326.574219 C 33.570312 324.347656 35.679688 322.851562 37.902344 323.230469 C 40.128906 323.609375 41.625 325.71875 41.246094 327.941406 C 38.6875 342.996094 37.007812 358.398438 36.257812 373.726562 C 36.148438 375.914062 34.34375 377.613281 32.179688 377.613281 Z M 47.761719 286.011719 C 47.378906 286.011719 46.988281 285.953125 46.597656 285.839844 C 44.433594 285.199219 43.203125 282.925781 43.84375 280.761719 C 48.292969 265.78125 53.707031 250.910156 59.929688 236.5625 C 60.828125 234.492188 63.234375 233.542969 65.304688 234.4375 C 67.375 235.335938 68.324219 237.742188 67.425781 239.8125 C 61.335938 253.859375 56.035156 268.417969 51.679688 283.085938 C 51.152344 284.863281 49.527344 286.011719 47.761719 286.011719 Z M 47.761719 286.011719 " fill-opacity="1" fillRule="nonzero"/><path fill="#a4edf5" d="M 707.128906 392.953125 C 707.128906 397.632812 707.015625 402.308594 706.785156 406.980469 C 706.554688 411.65625 706.210938 416.320312 705.753906 420.976562 C 705.292969 425.632812 704.722656 430.273438 704.035156 434.902344 C 703.347656 439.53125 702.546875 444.140625 701.632812 448.726562 C 700.722656 453.316406 699.695312 457.878906 698.558594 462.417969 C 697.421875 466.957031 696.175781 471.464844 694.816406 475.941406 C 693.457031 480.421875 691.988281 484.863281 690.414062 489.265625 C 688.835938 493.671875 687.152344 498.035156 685.363281 502.359375 C 683.570312 506.679688 681.675781 510.957031 679.675781 515.1875 C 677.671875 519.417969 675.570312 523.59375 673.363281 527.71875 C 671.15625 531.847656 668.851562 535.917969 666.445312 539.929688 C 664.039062 543.941406 661.535156 547.894531 658.9375 551.785156 C 656.335938 555.675781 653.644531 559.5 650.855469 563.257812 C 648.066406 567.015625 645.1875 570.703125 642.21875 574.320312 C 639.25 577.9375 636.195312 581.476562 633.050781 584.945312 C 629.910156 588.410156 626.683594 591.796875 623.375 595.105469 C 620.066406 598.414062 616.675781 601.640625 613.210938 604.78125 C 609.742188 607.925781 606.199219 610.980469 602.582031 613.949219 C 598.964844 616.914062 595.273438 619.792969 591.515625 622.582031 C 587.757812 625.367188 583.933594 628.0625 580.042969 630.660156 C 576.148438 633.261719 572.199219 635.761719 568.183594 638.167969 C 564.167969 640.574219 560.097656 642.878906 555.972656 645.082031 C 551.84375 647.289062 547.664062 649.390625 543.433594 651.394531 C 539.203125 653.394531 534.925781 655.289062 530.601562 657.078125 C 526.277344 658.871094 521.914062 660.554688 517.507812 662.128906 C 513.101562 663.707031 508.660156 665.171875 504.179688 666.53125 C 499.703125 667.890625 495.195312 669.136719 490.652344 670.273438 C 486.113281 671.410156 481.550781 672.433594 476.960938 673.347656 C 472.371094 674.261719 467.761719 675.058594 463.128906 675.746094 C 458.5 676.433594 453.859375 677.003906 449.199219 677.464844 C 444.542969 677.921875 439.878906 678.265625 435.203125 678.496094 C 430.527344 678.726562 425.851562 678.839844 421.171875 678.839844 C 416.492188 678.839844 411.816406 678.726562 407.140625 678.496094 C 402.464844 678.265625 397.800781 677.921875 393.144531 677.464844 C 388.484375 677.003906 383.84375 676.433594 379.214844 675.746094 C 374.582031 675.058594 369.972656 674.261719 365.382812 673.347656 C 360.792969 672.433594 356.230469 671.410156 351.691406 670.273438 C 347.148438 669.136719 342.640625 667.890625 338.164062 666.53125 C 333.683594 665.171875 329.242188 663.707031 324.835938 662.128906 C 320.429688 660.554688 316.0625 658.871094 311.742188 657.078125 C 307.417969 655.289062 303.140625 653.394531 298.910156 651.394531 C 294.679688 649.390625 290.5 647.289062 286.371094 645.082031 C 282.246094 642.878906 278.175781 640.574219 274.160156 638.167969 C 270.144531 635.761719 266.195312 633.261719 262.300781 630.660156 C 258.410156 628.0625 254.585938 625.367188 250.828125 622.582031 C 247.066406 619.792969 243.378906 616.914062 239.761719 613.949219 C 236.144531 610.980469 232.601562 607.925781 229.132812 604.78125 C 225.667969 601.640625 222.277344 598.414062 218.96875 595.105469 C 215.660156 591.796875 212.433594 588.410156 209.292969 584.945312 C 206.148438 581.476562 203.09375 577.9375 200.125 574.320312 C 197.15625 570.703125 194.277344 567.015625 191.488281 563.257812 C 188.699219 559.5 186.007812 555.675781 183.40625 551.785156 C 180.808594 547.894531 178.304688 543.941406 175.898438 539.929688 C 173.492188 535.917969 171.1875 531.847656 168.980469 527.71875 C 166.773438 523.59375 164.671875 519.417969 162.667969 515.1875 C 160.667969 510.957031 158.773438 506.679688 156.980469 502.359375 C 155.191406 498.035156 153.507812 493.671875 151.929688 489.265625 C 150.355469 484.863281 148.886719 480.421875 147.527344 475.941406 C 146.167969 471.464844 144.921875 466.957031 143.785156 462.417969 C 142.648438 457.878906 141.621094 453.316406 140.710938 448.726562 C 139.796875 444.140625 138.996094 439.53125 138.308594 434.902344 C 137.621094 430.273438 137.050781 425.632812 136.589844 420.976562 C 136.132812 416.320312 135.789062 411.65625 135.558594 406.980469 C 135.328125 402.308594 135.214844 397.632812 135.214844 392.953125 C 135.214844 388.277344 135.328125 383.601562 135.558594 378.925781 C 135.789062 374.253906 136.132812 369.589844 136.589844 364.933594 C 137.050781 360.277344 137.621094 355.632812 138.308594 351.007812 C 138.996094 346.378906 139.796875 341.769531 140.710938 337.179688 C 141.621094 332.59375 142.648438 328.027344 143.785156 323.488281 C 144.921875 318.953125 146.167969 314.445312 147.527344 309.964844 C 148.886719 305.488281 150.355469 301.046875 151.929688 296.640625 C 153.507812 292.238281 155.191406 287.875 156.980469 283.550781 C 158.773438 279.226562 160.667969 274.953125 162.667969 270.722656 C 164.671875 266.492188 166.773438 262.316406 168.980469 258.1875 C 171.1875 254.0625 173.492188 249.992188 175.898438 245.980469 C 178.304688 241.964844 180.808594 238.015625 183.40625 234.125 C 186.007812 230.234375 188.699219 226.410156 191.488281 222.652344 C 194.277344 218.894531 197.15625 215.207031 200.125 211.589844 C 203.09375 207.972656 206.148438 204.433594 209.292969 200.964844 C 212.433594 197.5 215.660156 194.109375 218.96875 190.800781 C 222.277344 187.492188 225.667969 184.269531 229.132812 181.125 C 232.601562 177.984375 236.144531 174.929688 239.761719 171.960938 C 243.378906 168.992188 247.066406 166.117188 250.828125 163.328125 C 254.585938 160.542969 258.410156 157.847656 262.300781 155.25 C 266.195312 152.648438 270.144531 150.148438 274.160156 147.742188 C 278.175781 145.335938 282.246094 143.03125 286.371094 140.824219 C 290.5 138.621094 294.679688 136.515625 298.910156 134.515625 C 303.140625 132.515625 307.417969 130.621094 311.742188 128.828125 C 316.0625 127.039062 320.429688 125.355469 324.835938 123.78125 C 329.242188 122.203125 333.683594 120.738281 338.164062 119.378906 C 342.640625 118.019531 347.148438 116.773438 351.691406 115.636719 C 356.230469 114.5 360.792969 113.472656 365.382812 112.5625 C 369.972656 111.648438 374.582031 110.847656 379.214844 110.164062 C 383.84375 109.476562 388.484375 108.902344 393.144531 108.445312 C 397.800781 107.984375 402.464844 107.640625 407.140625 107.414062 C 411.816406 107.183594 416.492188 107.066406 421.171875 107.066406 C 425.851562 107.066406 430.527344 107.183594 435.203125 107.414062 C 439.878906 107.640625 444.542969 107.984375 449.199219 108.445312 C 453.859375 108.902344 458.5 109.476562 463.128906 110.164062 C 467.761719 110.847656 472.371094 111.648438 476.960938 112.5625 C 481.550781 113.472656 486.113281 114.5 490.652344 115.636719 C 495.195312 116.773438 499.703125 118.019531 504.179688 119.378906 C 508.660156 120.738281 513.101562 122.203125 517.507812 123.78125 C 521.914062 125.355469 526.277344 127.039062 530.601562 128.828125 C 534.925781 130.621094 539.203125 132.515625 543.433594 134.515625 C 547.664062 136.515625 551.84375 138.621094 555.972656 140.824219 C 560.097656 143.03125 564.167969 145.335938 568.183594 147.742188 C 572.199219 150.148438 576.148438 152.648438 580.042969 155.25 C 583.933594 157.847656 587.757812 160.542969 591.515625 163.328125 C 595.273438 166.117188 598.964844 168.992188 602.582031 171.960938 C 606.199219 174.929688 609.742188 177.984375 613.210938 181.125 C 616.675781 184.269531 620.066406 187.492188 623.375 190.800781 C 626.683594 194.109375 629.910156 197.5 633.050781 200.964844 C 636.195312 204.433594 639.25 207.972656 642.21875 211.589844 C 645.1875 215.207031 648.066406 218.894531 650.855469 222.652344 C 653.644531 226.410156 656.335938 230.234375 658.9375 234.125 C 661.535156 238.015625 664.039062 241.964844 666.445312 245.980469 C 668.851562 249.992188 671.15625 254.0625 673.363281 258.1875 C 675.570312 262.316406 677.671875 266.492188 679.675781 270.722656 C 681.675781 274.953125 683.570312 279.226562 685.363281 283.550781 C 687.152344 287.875 688.835938 292.238281 690.414062 296.640625 C 691.988281 301.046875 693.457031 305.488281 694.816406 309.964844 C 696.175781 314.445312 697.421875 318.953125 698.558594 323.488281 C 699.695312 328.027344 700.722656 332.59375 701.632812 337.179688 C 702.546875 341.769531 703.347656 346.378906 704.035156 351.007812 C 704.722656 355.632812 705.292969 360.277344 705.753906 364.933594 C 706.210938 369.589844 706.554688 374.253906 706.785156 378.925781 C 707.015625 383.601562 707.128906 388.277344 707.128906 392.953125 Z M 707.128906 392.953125 " fill-opacity="1" fillRule="nonzero"/><path fill="#ffffff" d="M 778.109375 210.640625 L 778.109375 598.90625 L 541.226562 598.90625 L 541.226562 210.640625 C 541.226562 198.054688 551.4375 187.847656 564.027344 187.847656 L 755.3125 187.847656 C 767.902344 187.847656 778.109375 198.054688 778.109375 210.640625 Z M 778.109375 210.640625 " fill-opacity="1" fillRule="nonzero"/><g clip-path="url(#bbe34b371c)"><path fill="#366088" d="M 778.109375 602.992188 L 541.226562 602.992188 C 538.972656 602.992188 537.140625 601.164062 537.140625 598.90625 L 537.140625 210.640625 C 537.140625 195.820312 549.203125 183.765625 564.027344 183.765625 L 755.3125 183.765625 C 770.136719 183.765625 782.195312 195.820312 782.195312 210.640625 L 782.195312 598.90625 C 782.195312 601.164062 780.367188 602.992188 778.109375 602.992188 Z M 545.3125 594.820312 L 774.023438 594.820312 L 774.023438 210.640625 C 774.023438 200.328125 765.628906 191.933594 755.3125 191.933594 L 564.027344 191.933594 C 553.707031 191.933594 545.3125 200.328125 545.3125 210.640625 Z M 545.3125 594.820312 " fill-opacity="1" fillRule="nonzero"/></g><path fill="#d0fdff" d="M 778.109375 582.226562 L 778.109375 604.871094 C 778.109375 617.457031 767.902344 627.664062 755.3125 627.664062 L 564.027344 627.664062 C 551.433594 627.664062 541.226562 617.457031 541.226562 604.871094 L 541.226562 582.226562 Z M 778.109375 582.226562 " fill-opacity="1" fillRule="nonzero"/><g clip-path="url(#081cad3adf)"><path fill="#366088" d="M 755.3125 631.75 L 564.027344 631.75 C 549.203125 631.75 537.140625 619.691406 537.140625 604.871094 L 537.140625 582.226562 C 537.140625 579.96875 538.972656 578.140625 541.226562 578.140625 L 778.109375 578.140625 C 780.367188 578.140625 782.195312 579.96875 782.195312 582.226562 L 782.195312 604.871094 C 782.195312 619.691406 770.136719 631.75 755.3125 631.75 Z M 545.3125 586.3125 L 545.3125 604.871094 C 545.3125 615.183594 553.707031 623.578125 564.027344 623.578125 L 755.3125 623.578125 C 765.628906 623.578125 774.023438 615.183594 774.023438 604.871094 L 774.023438 586.3125 Z M 545.3125 586.3125 " fill-opacity="1" fillRule="nonzero"/></g><path fill="#ffffff" d="M 731.375 522.785156 L 587.960938 522.785156 C 582.710938 522.785156 578.453125 518.527344 578.453125 513.277344 L 578.453125 468.011719 C 578.453125 462.761719 582.710938 458.503906 587.960938 458.503906 L 731.375 458.503906 C 736.628906 458.503906 740.886719 462.761719 740.886719 468.011719 L 740.886719 513.277344 C 740.886719 518.527344 736.628906 522.785156 731.375 522.785156 Z M 731.375 522.785156 " fill-opacity="1" fillRule="nonzero"/><path fill="#366088" d="M 731.375 526.871094 L 587.960938 526.871094 C 580.464844 526.871094 574.367188 520.773438 574.367188 513.277344 L 574.367188 468.011719 C 574.367188 460.515625 580.464844 454.417969 587.960938 454.417969 L 731.375 454.417969 C 738.871094 454.417969 744.972656 460.515625 744.972656 468.011719 L 744.972656 513.277344 C 744.972656 520.773438 738.871094 526.871094 731.375 526.871094 Z M 587.960938 462.589844 C 584.972656 462.589844 582.539062 465.019531 582.539062 468.011719 L 582.539062 513.277344 C 582.539062 516.265625 584.972656 518.699219 587.960938 518.699219 L 731.375 518.699219 C 734.367188 518.699219 736.800781 516.265625 736.800781 513.277344 L 736.800781 468.011719 C 736.800781 465.019531 734.367188 462.589844 731.375 462.589844 Z M 587.960938 462.589844 " fill-opacity="1" fillRule="nonzero"/><path fill="#d0fdff" d="M 688.757812 369.179688 C 688.757812 370.921875 688.671875 372.660156 688.5 374.394531 C 688.328125 376.128906 688.074219 377.851562 687.734375 379.558594 C 687.394531 381.269531 686.96875 382.957031 686.464844 384.625 C 685.957031 386.292969 685.371094 387.929688 684.707031 389.539062 C 684.039062 391.152344 683.292969 392.722656 682.472656 394.261719 C 681.648438 395.796875 680.753906 397.292969 679.785156 398.738281 C 678.820312 400.1875 677.78125 401.585938 676.675781 402.933594 C 675.570312 404.28125 674.402344 405.570312 673.167969 406.804688 C 671.933594 408.035156 670.644531 409.203125 669.296875 410.308594 C 667.949219 411.414062 666.550781 412.453125 665.101562 413.421875 C 663.652344 414.386719 662.160156 415.285156 660.625 416.105469 C 659.085938 416.925781 657.511719 417.671875 655.902344 418.335938 C 654.292969 419.003906 652.652344 419.589844 650.984375 420.097656 C 649.316406 420.601562 647.628906 421.023438 645.917969 421.367188 C 644.207031 421.707031 642.484375 421.960938 640.75 422.132812 C 639.015625 422.300781 637.277344 422.386719 635.535156 422.386719 C 633.792969 422.386719 632.050781 422.300781 630.316406 422.132812 C 628.582031 421.960938 626.859375 421.707031 625.152344 421.367188 C 623.441406 421.023438 621.753906 420.601562 620.085938 420.097656 C 618.417969 419.589844 616.777344 419.003906 615.167969 418.335938 C 613.554688 417.671875 611.984375 416.925781 610.445312 416.105469 C 608.910156 415.285156 607.414062 414.386719 605.964844 413.421875 C 604.515625 412.453125 603.117188 411.414062 601.769531 410.308594 C 600.421875 409.203125 599.132812 408.035156 597.902344 406.804688 C 596.667969 405.570312 595.5 404.28125 594.394531 402.933594 C 593.289062 401.585938 592.25 400.1875 591.28125 398.738281 C 590.3125 397.292969 589.417969 395.796875 588.597656 394.261719 C 587.773438 392.722656 587.03125 391.152344 586.363281 389.539062 C 585.695312 387.929688 585.109375 386.292969 584.605469 384.625 C 584.097656 382.957031 583.675781 381.269531 583.335938 379.558594 C 582.996094 377.851562 582.738281 376.128906 582.570312 374.394531 C 582.398438 372.660156 582.3125 370.921875 582.3125 369.179688 C 582.3125 367.4375 582.398438 365.699219 582.570312 363.964844 C 582.738281 362.230469 582.996094 360.507812 583.335938 358.796875 C 583.675781 357.089844 584.097656 355.402344 584.605469 353.734375 C 585.109375 352.066406 585.695312 350.425781 586.363281 348.816406 C 587.03125 347.207031 587.773438 345.632812 588.597656 344.097656 C 589.417969 342.558594 590.3125 341.066406 591.28125 339.617188 C 592.25 338.167969 593.289062 336.769531 594.394531 335.421875 C 595.5 334.078125 596.667969 332.785156 597.902344 331.554688 C 599.132812 330.320312 600.421875 329.152344 601.769531 328.046875 C 603.117188 326.941406 604.515625 325.90625 605.964844 324.9375 C 607.414062 323.96875 608.910156 323.074219 610.445312 322.253906 C 611.984375 321.429688 613.554688 320.6875 615.167969 320.019531 C 616.777344 319.351562 618.417969 318.765625 620.085938 318.261719 C 621.753906 317.753906 623.441406 317.332031 625.152344 316.992188 C 626.859375 316.652344 628.582031 316.398438 630.316406 316.226562 C 632.050781 316.054688 633.792969 315.96875 635.535156 315.96875 C 637.277344 315.96875 639.015625 316.054688 640.75 316.226562 C 642.484375 316.398438 644.207031 316.652344 645.917969 316.992188 C 647.628906 317.332031 649.316406 317.753906 650.984375 318.261719 C 652.652344 318.765625 654.292969 319.351562 655.902344 320.019531 C 657.511719 320.6875 659.085938 321.429688 660.621094 322.253906 C 662.160156 323.074219 663.652344 323.96875 665.101562 324.9375 C 666.550781 325.90625 667.949219 326.941406 669.296875 328.046875 C 670.644531 329.152344 671.933594 330.320312 673.167969 331.554688 C 674.402344 332.785156 675.570312 334.078125 676.675781 335.421875 C 677.78125 336.769531 678.820312 338.167969 679.785156 339.617188 C 680.753906 341.066406 681.648438 342.558594 682.472656 344.097656 C 683.292969 345.632812 684.039062 347.207031 684.707031 348.816406 C 685.371094 350.425781 685.957031 352.066406 686.464844 353.734375 C 686.96875 355.402344 687.394531 357.089844 687.734375 358.796875 C 688.074219 360.507812 688.328125 362.230469 688.5 363.964844 C 688.671875 365.699219 688.757812 367.4375 688.757812 369.179688 Z M 688.757812 369.179688 " fill-opacity="1" fillRule="nonzero"/><path fill="#366088" d="M 635.535156 426.472656 C 603.933594 426.472656 578.226562 400.769531 578.226562 369.179688 C 578.226562 337.585938 603.933594 311.882812 635.535156 311.882812 C 667.132812 311.882812 692.84375 337.585938 692.84375 369.179688 C 692.84375 400.769531 667.132812 426.472656 635.535156 426.472656 Z M 635.535156 320.054688 C 608.441406 320.054688 586.398438 342.089844 586.398438 369.179688 C 586.398438 396.265625 608.441406 418.300781 635.535156 418.300781 C 662.628906 418.300781 684.671875 396.265625 684.671875 369.179688 C 684.671875 342.09375 662.628906 320.054688 635.535156 320.054688 Z M 635.535156 320.054688 " fill-opacity="1" fillRule="nonzero"/><path fill="#ffffff" d="M 656.003906 369.179688 C 656.003906 369.847656 655.972656 370.519531 655.90625 371.183594 C 655.839844 371.851562 655.742188 372.515625 655.609375 373.171875 C 655.480469 373.828125 655.316406 374.476562 655.121094 375.121094 C 654.929688 375.761719 654.703125 376.390625 654.445312 377.011719 C 654.191406 377.628906 653.902344 378.234375 653.585938 378.824219 C 653.269531 379.417969 652.925781 379.992188 652.554688 380.546875 C 652.183594 381.105469 651.78125 381.644531 651.359375 382.160156 C 650.933594 382.679688 650.484375 383.175781 650.007812 383.648438 C 649.535156 384.125 649.039062 384.574219 648.519531 385 C 648.003906 385.421875 647.464844 385.824219 646.90625 386.195312 C 646.347656 386.566406 645.773438 386.910156 645.183594 387.226562 C 644.59375 387.542969 643.988281 387.828125 643.367188 388.085938 C 642.75 388.34375 642.117188 388.566406 641.476562 388.761719 C 640.835938 388.957031 640.183594 389.121094 639.527344 389.25 C 638.871094 389.382812 638.207031 389.480469 637.539062 389.546875 C 636.875 389.609375 636.203125 389.644531 635.535156 389.644531 C 634.863281 389.644531 634.195312 389.609375 633.527344 389.546875 C 632.859375 389.480469 632.199219 389.382812 631.539062 389.25 C 630.882812 389.121094 630.234375 388.957031 629.59375 388.761719 C 628.949219 388.566406 628.320312 388.34375 627.699219 388.085938 C 627.082031 387.828125 626.476562 387.542969 625.882812 387.226562 C 625.292969 386.910156 624.71875 386.566406 624.160156 386.195312 C 623.605469 385.824219 623.066406 385.421875 622.546875 385 C 622.03125 384.574219 621.535156 384.125 621.058594 383.648438 C 620.585938 383.175781 620.136719 382.679688 619.710938 382.160156 C 619.285156 381.644531 618.886719 381.105469 618.515625 380.546875 C 618.140625 379.992188 617.796875 379.417969 617.480469 378.824219 C 617.164062 378.234375 616.878906 377.628906 616.621094 377.011719 C 616.367188 376.390625 616.140625 375.761719 615.945312 375.121094 C 615.75 374.476562 615.589844 373.828125 615.457031 373.171875 C 615.328125 372.515625 615.230469 371.851562 615.164062 371.183594 C 615.097656 370.519531 615.0625 369.847656 615.0625 369.179688 C 615.0625 368.507812 615.097656 367.839844 615.164062 367.171875 C 615.230469 366.507812 615.328125 365.84375 615.457031 365.1875 C 615.589844 364.527344 615.75 363.878906 615.945312 363.238281 C 616.140625 362.597656 616.367188 361.964844 616.621094 361.347656 C 616.878906 360.726562 617.164062 360.121094 617.480469 359.53125 C 617.796875 358.941406 618.140625 358.367188 618.515625 357.808594 C 618.886719 357.25 619.285156 356.714844 619.710938 356.195312 C 620.136719 355.679688 620.585938 355.183594 621.058594 354.707031 C 621.535156 354.234375 622.03125 353.785156 622.546875 353.359375 C 623.066406 352.933594 623.605469 352.535156 624.160156 352.164062 C 624.71875 351.789062 625.292969 351.445312 625.882812 351.128906 C 626.476562 350.8125 627.082031 350.527344 627.699219 350.273438 C 628.320312 350.015625 628.949219 349.789062 629.59375 349.59375 C 630.234375 349.402344 630.882812 349.238281 631.539062 349.105469 C 632.199219 348.976562 632.859375 348.878906 633.527344 348.8125 C 634.195312 348.746094 634.863281 348.714844 635.535156 348.714844 C 636.203125 348.714844 636.875 348.746094 637.539062 348.8125 C 638.207031 348.878906 638.871094 348.976562 639.527344 349.105469 C 640.183594 349.238281 640.835938 349.402344 641.476562 349.59375 C 642.117188 349.789062 642.75 350.015625 643.367188 350.273438 C 643.988281 350.527344 644.59375 350.8125 645.183594 351.128906 C 645.773438 351.445312 646.347656 351.789062 646.90625 352.164062 C 647.464844 352.535156 648.003906 352.933594 648.519531 353.359375 C 649.039062 353.785156 649.535156 354.234375 650.007812 354.707031 C 650.484375 355.183594 650.933594 355.679688 651.359375 356.195312 C 651.78125 356.714844 652.183594 357.25 652.554688 357.808594 C 652.925781 358.367188 653.269531 358.941406 653.585938 359.53125 C 653.902344 360.121094 654.191406 360.726562 654.445312 361.347656 C 654.703125 361.964844 654.929688 362.597656 655.121094 363.238281 C 655.316406 363.878906 655.480469 364.527344 655.609375 365.1875 C 655.742188 365.84375 655.839844 366.507812 655.90625 367.171875 C 655.972656 367.839844 656.003906 368.507812 656.003906 369.179688 Z M 656.003906 369.179688 " fill-opacity="1" fillRule="nonzero"/><path fill="#366088" d="M 635.535156 393.730469 C 621.992188 393.730469 610.976562 382.714844 610.976562 369.179688 C 610.976562 355.640625 621.992188 344.628906 635.535156 344.628906 C 649.074219 344.628906 660.089844 355.640625 660.089844 369.179688 C 660.089844 382.714844 649.074219 393.730469 635.535156 393.730469 Z M 635.535156 352.800781 C 626.5 352.800781 619.152344 360.148438 619.152344 369.179688 C 619.152344 378.210938 626.5 385.558594 635.535156 385.558594 C 644.570312 385.558594 651.917969 378.210938 651.917969 369.179688 C 651.917969 360.148438 644.570312 352.800781 635.535156 352.800781 Z M 635.535156 352.800781 " fill-opacity="1" fillRule="nonzero"/><path fill="#366088" d="M 598.6875 334.871094 C 596.429688 334.871094 594.601562 333.042969 594.601562 330.785156 L 594.601562 246.378906 L 574.125 246.378906 C 571.867188 246.378906 570.039062 244.550781 570.039062 242.292969 C 570.039062 240.039062 571.867188 238.210938 574.125 238.210938 L 598.6875 238.210938 C 600.945312 238.210938 602.773438 240.039062 602.773438 242.292969 L 602.773438 330.785156 C 602.773438 333.042969 600.945312 334.871094 598.6875 334.871094 Z M 598.6875 334.871094 " fill-opacity="1" fillRule="nonzero"/><path fill="#366088" d="M 688.757812 320.054688 L 680.570312 320.054688 C 678.3125 320.054688 676.484375 318.226562 676.484375 315.96875 C 676.484375 313.714844 678.3125 311.882812 680.570312 311.882812 L 688.757812 311.882812 C 691.019531 311.882812 692.859375 310.042969 692.859375 307.785156 C 692.859375 305.523438 691.019531 303.679688 688.757812 303.679688 L 598.6875 303.679688 C 596.433594 303.679688 594.601562 301.851562 594.601562 299.597656 C 594.601562 297.339844 596.429688 295.511719 598.6875 295.511719 L 688.757812 295.511719 C 695.523438 295.511719 701.03125 301.015625 701.03125 307.78125 C 701.03125 314.550781 695.523438 320.054688 688.757812 320.054688 Z M 688.757812 320.054688 " fill-opacity="1" fillRule="nonzero"/><path fill="#366088" d="M 737.882812 410.101562 L 713.320312 410.101562 C 711.0625 410.101562 709.234375 408.273438 709.234375 406.015625 L 709.234375 369.171875 L 688.757812 369.171875 C 686.5 369.171875 684.671875 367.34375 684.671875 365.085938 C 684.671875 362.828125 686.5 361 688.757812 361 L 713.320312 361 C 715.578125 361 717.40625 362.828125 717.40625 365.085938 L 717.40625 401.929688 L 737.882812 401.929688 C 740.140625 401.929688 741.96875 403.761719 741.96875 406.015625 C 741.96875 408.273438 740.140625 410.101562 737.882812 410.101562 Z M 737.882812 410.101562 " fill-opacity="1" fillRule="nonzero"/><path fill="#ffffff" d="M 479.445312 586.636719 C 480.394531 578.542969 480.96875 570.28125 481.128906 561.863281 C 482.175781 506.863281 439.042969 459.761719 384.019531 459.632812 C 338.566406 459.523438 300.347656 490.550781 289.488281 532.574219 C 278.621094 490.511719 240.34375 459.46875 194.835938 459.632812 C 139.808594 459.828125 96.792969 506.984375 97.847656 561.984375 C 98.011719 570.390625 98.578125 578.625 99.519531 586.6875 C 104.765625 631.617188 130.195312 681.609375 168.082031 706.34375 L 289.488281 775.710938 L 410.871094 706.359375 C 448.777344 681.613281 474.15625 631.589844 479.445312 586.636719 Z M 479.445312 586.636719 " fill-opacity="1" fillRule="nonzero"/><path fill="#366088" d="M 289.488281 779.796875 C 288.789062 779.796875 288.089844 779.617188 287.460938 779.257812 L 166.054688 709.890625 C 165.984375 709.847656 165.914062 709.808594 165.847656 709.761719 C 147.285156 697.644531 130.734375 679.078125 117.984375 656.070312 C 106.15625 634.71875 98.15625 610.246094 95.460938 587.160156 C 94.496094 578.898438 93.925781 570.453125 93.761719 562.0625 C 93.488281 547.65625 96.066406 533.59375 101.433594 520.265625 C 106.644531 507.328125 114.199219 495.746094 123.886719 485.839844 C 142.890625 466.398438 168.082031 455.644531 194.820312 455.546875 C 206.414062 455.503906 217.792969 457.40625 228.640625 461.1875 C 239.121094 464.847656 248.890625 470.183594 257.667969 477.050781 C 271.84375 488.140625 282.859375 502.910156 289.488281 519.488281 C 296.109375 502.929688 307.109375 488.167969 321.261719 477.085938 C 330.03125 470.222656 339.785156 464.882812 350.25 461.21875 C 361.085938 457.429688 372.460938 455.515625 384.03125 455.546875 C 410.800781 455.609375 436.03125 466.355469 455.074219 485.808594 C 464.765625 495.703125 472.320312 507.269531 477.53125 520.1875 C 482.902344 533.503906 485.488281 547.550781 485.214844 561.941406 C 485.054688 570.339844 484.480469 578.808594 483.5 587.117188 C 480.785156 610.222656 472.78125 634.707031 460.964844 656.054688 C 448.21875 679.082031 431.667969 697.660156 413.105469 709.777344 C 413.039062 709.824219 412.96875 709.867188 412.898438 709.90625 L 291.515625 779.257812 C 290.886719 779.617188 290.1875 779.796875 289.488281 779.796875 Z M 170.214844 702.855469 L 289.488281 771.007812 L 408.738281 702.871094 C 443.035156 680.425781 469.8125 633.539062 475.386719 586.160156 C 476.332031 578.117188 476.890625 569.917969 477.042969 561.785156 C 477.539062 535.6875 467.40625 510.078125 449.238281 491.523438 C 431.738281 473.648438 408.574219 463.773438 384.011719 463.71875 C 383.9375 463.71875 383.859375 463.71875 383.789062 463.71875 C 341.210938 463.71875 304.082031 492.421875 293.445312 533.597656 C 292.976562 535.398438 291.351562 536.660156 289.488281 536.660156 C 287.625 536.660156 286 535.398438 285.53125 533.597656 C 274.890625 492.410156 237.765625 463.71875 195.1875 463.71875 C 195.074219 463.71875 194.964844 463.71875 194.851562 463.71875 C 170.320312 463.804688 147.191406 473.6875 129.730469 491.550781 C 111.5625 510.128906 101.433594 535.773438 101.933594 561.90625 C 102.089844 570.03125 102.644531 578.210938 103.578125 586.210938 C 109.101562 633.527344 135.875 680.382812 170.214844 702.855469 Z M 410.871094 706.359375 L 410.875 706.359375 Z M 410.871094 706.359375 " fill-opacity="1" fillRule="nonzero"/><path fill="#ffffff" d="M 400.003906 559.242188 C 400.003906 560.253906 399.957031 561.265625 399.855469 562.273438 C 399.757812 563.28125 399.609375 564.28125 399.410156 565.273438 C 399.214844 566.265625 398.96875 567.246094 398.675781 568.214844 C 398.378906 569.183594 398.039062 570.136719 397.652344 571.070312 C 397.265625 572.007812 396.832031 572.921875 396.355469 573.8125 C 395.878906 574.707031 395.359375 575.574219 394.796875 576.414062 C 394.234375 577.257812 393.628906 578.070312 392.988281 578.851562 C 392.34375 579.632812 391.667969 580.382812 390.949219 581.101562 C 390.234375 581.816406 389.484375 582.496094 388.703125 583.136719 C 387.917969 583.777344 387.105469 584.382812 386.265625 584.945312 C 385.421875 585.507812 384.554688 586.027344 383.664062 586.503906 C 382.769531 586.980469 381.855469 587.414062 380.917969 587.800781 C 379.984375 588.1875 379.03125 588.527344 378.0625 588.820312 C 377.09375 589.117188 376.113281 589.363281 375.121094 589.558594 C 374.125 589.757812 373.125 589.90625 372.117188 590.003906 C 371.109375 590.101562 370.101562 590.152344 369.089844 590.152344 C 368.074219 590.152344 367.066406 590.101562 366.058594 590.003906 C 365.050781 589.90625 364.050781 589.757812 363.054688 589.558594 C 362.0625 589.363281 361.082031 589.117188 360.113281 588.820312 C 359.144531 588.527344 358.191406 588.1875 357.257812 587.800781 C 356.320312 587.414062 355.40625 586.980469 354.515625 586.503906 C 353.621094 586.027344 352.753906 585.507812 351.910156 584.945312 C 351.070312 584.382812 350.257812 583.777344 349.472656 583.136719 C 348.691406 582.496094 347.941406 581.816406 347.226562 581.101562 C 346.511719 580.382812 345.832031 579.632812 345.1875 578.851562 C 344.546875 578.070312 343.945312 577.257812 343.382812 576.414062 C 342.820312 575.574219 342.296875 574.707031 341.820312 573.8125 C 341.34375 572.921875 340.910156 572.007812 340.523438 571.070312 C 340.136719 570.136719 339.796875 569.183594 339.5 568.214844 C 339.207031 567.246094 338.960938 566.265625 338.765625 565.273438 C 338.566406 564.28125 338.417969 563.28125 338.320312 562.273438 C 338.21875 561.265625 338.171875 560.253906 338.171875 559.242188 C 338.171875 558.230469 338.21875 557.222656 338.320312 556.214844 C 338.417969 555.207031 338.566406 554.207031 338.765625 553.214844 C 338.960938 552.21875 339.207031 551.238281 339.5 550.269531 C 339.796875 549.300781 340.136719 548.351562 340.523438 547.414062 C 340.910156 546.480469 341.34375 545.566406 341.820312 544.671875 C 342.296875 543.78125 342.820312 542.910156 343.382812 542.070312 C 343.945312 541.230469 344.546875 540.417969 345.1875 539.632812 C 345.832031 538.851562 346.511719 538.101562 347.226562 537.386719 C 347.941406 536.671875 348.691406 535.992188 349.472656 535.347656 C 350.257812 534.707031 351.070312 534.105469 351.910156 533.542969 C 352.753906 532.980469 353.621094 532.460938 354.515625 531.984375 C 355.40625 531.503906 356.320312 531.074219 357.257812 530.6875 C 358.191406 530.296875 359.144531 529.957031 360.113281 529.664062 C 361.082031 529.371094 362.0625 529.125 363.054688 528.925781 C 364.050781 528.730469 365.050781 528.582031 366.058594 528.480469 C 367.066406 528.382812 368.074219 528.332031 369.089844 528.332031 C 370.101562 528.332031 371.109375 528.382812 372.117188 528.480469 C 373.125 528.582031 374.125 528.730469 375.121094 528.925781 C 376.113281 529.125 377.09375 529.371094 378.0625 529.664062 C 379.03125 529.957031 379.984375 530.296875 380.917969 530.6875 C 381.855469 531.074219 382.769531 531.503906 383.664062 531.984375 C 384.554688 532.460938 385.421875 532.980469 386.265625 533.542969 C 387.105469 534.105469 387.917969 534.707031 388.703125 535.347656 C 389.484375 535.992188 390.234375 536.671875 390.949219 537.386719 C 391.667969 538.101562 392.34375 538.851562 392.988281 539.632812 C 393.628906 540.417969 394.234375 541.230469 394.796875 542.070312 C 395.359375 542.910156 395.878906 543.78125 396.355469 544.671875 C 396.832031 545.566406 397.265625 546.480469 397.652344 547.414062 C 398.039062 548.351562 398.378906 549.300781 398.675781 550.269531 C 398.96875 551.238281 399.214844 552.21875 399.410156 553.214844 C 399.609375 554.207031 399.757812 555.207031 399.855469 556.214844 C 399.957031 557.222656 400.003906 558.230469 400.003906 559.242188 Z M 400.003906 559.242188 " fill-opacity="1" fillRule="nonzero"/><path fill="#366088" d="M 369.089844 594.238281 C 349.789062 594.238281 334.085938 578.539062 334.085938 559.242188 C 334.085938 539.949219 349.789062 524.25 369.089844 524.25 C 388.390625 524.25 404.089844 539.949219 404.089844 559.242188 C 404.089844 578.539062 388.390625 594.238281 369.089844 594.238281 Z M 369.089844 532.417969 C 354.292969 532.417969 342.257812 544.453125 342.257812 559.242188 C 342.257812 574.035156 354.292969 586.066406 369.089844 586.066406 C 383.882812 586.066406 395.917969 574.035156 395.917969 559.242188 C 395.917969 544.453125 383.882812 532.417969 369.089844 532.417969 Z M 369.089844 532.417969 " fill-opacity="1" fillRule="nonzero"/><path fill="#d0fdff" d="M 341.261719 776.804688 L 341.261719 685.03125 L 341.261719 710.699219 C 341.261719 717.527344 335.726562 723.0625 328.894531 723.0625 C 322.066406 723.0625 316.527344 717.527344 316.527344 710.699219 L 316.527344 645.789062 C 316.527344 628.71875 330.371094 614.878906 347.445312 614.878906 L 390.730469 614.878906 C 407.804688 614.878906 421.648438 628.71875 421.648438 645.789062 L 421.648438 710.699219 C 421.648438 717.527344 416.113281 723.0625 409.28125 723.0625 C 402.453125 723.0625 396.914062 717.527344 396.914062 710.699219 L 396.914062 661.246094 L 396.914062 750.574219 Z M 341.261719 776.804688 " fill-opacity="1" fillRule="nonzero"/><path fill="#366088" d="M 341.261719 780.890625 C 339.003906 780.890625 337.175781 779.0625 337.175781 776.804688 L 337.175781 724.910156 C 334.742188 726.332031 331.914062 727.148438 328.894531 727.148438 C 319.824219 727.148438 312.441406 719.769531 312.441406 710.699219 L 312.441406 645.789062 C 312.441406 626.492188 328.144531 610.796875 347.445312 610.796875 L 390.730469 610.796875 C 410.03125 610.796875 425.734375 626.492188 425.734375 645.789062 L 425.734375 710.699219 C 425.734375 719.769531 418.351562 727.148438 409.28125 727.148438 C 406.261719 727.148438 403.433594 726.332031 401 724.910156 L 401 750.574219 C 401 752.832031 399.167969 754.660156 396.914062 754.660156 C 394.65625 754.660156 392.828125 752.832031 392.828125 750.574219 L 392.828125 661.246094 C 392.828125 658.988281 394.65625 657.160156 396.914062 657.160156 C 399.167969 657.160156 401 658.988281 401 661.246094 L 401 710.699219 C 401 715.265625 404.714844 718.980469 409.28125 718.980469 C 413.847656 718.980469 417.5625 715.265625 417.5625 710.699219 L 417.5625 645.789062 C 417.5625 631 405.523438 618.964844 390.730469 618.964844 L 347.445312 618.964844 C 332.652344 618.964844 320.613281 631 320.613281 645.789062 L 320.613281 710.699219 C 320.613281 715.265625 324.328125 718.980469 328.894531 718.980469 C 333.460938 718.980469 337.175781 715.265625 337.175781 710.699219 L 337.175781 685.027344 C 337.175781 682.773438 339.003906 680.945312 341.261719 680.945312 C 343.519531 680.945312 345.347656 682.773438 345.347656 685.027344 L 345.347656 776.804688 C 345.347656 779.0625 343.519531 780.890625 341.261719 780.890625 Z M 341.261719 780.890625 " fill-opacity="1" fillRule="nonzero"/><path fill="#366088" d="M 369.089844 767.777344 C 366.832031 767.777344 365 765.945312 365 763.691406 L 365 714.949219 C 365 712.695312 366.832031 710.863281 369.089844 710.863281 C 371.34375 710.863281 373.175781 712.695312 373.175781 714.949219 L 373.175781 763.691406 C 373.175781 765.945312 371.34375 767.777344 369.089844 767.777344 Z M 369.089844 767.777344 " fill-opacity="1" fillRule="nonzero"/><path fill="#ffffff" d="M 240.019531 559.242188 C 240.019531 560.253906 239.972656 561.265625 239.871094 562.273438 C 239.773438 563.28125 239.625 564.28125 239.425781 565.273438 C 239.230469 566.265625 238.984375 567.246094 238.6875 568.214844 C 238.394531 569.183594 238.054688 570.136719 237.667969 571.070312 C 237.28125 572.007812 236.847656 572.921875 236.371094 573.8125 C 235.890625 574.707031 235.371094 575.574219 234.808594 576.414062 C 234.246094 577.257812 233.644531 578.070312 233.003906 578.851562 C 232.359375 579.632812 231.679688 580.382812 230.964844 581.101562 C 230.25 581.816406 229.5 582.496094 228.71875 583.136719 C 227.933594 583.777344 227.121094 584.382812 226.28125 584.945312 C 225.4375 585.507812 224.570312 586.027344 223.675781 586.503906 C 222.785156 586.980469 221.871094 587.414062 220.933594 587.800781 C 220 588.1875 219.046875 588.527344 218.078125 588.820312 C 217.109375 589.117188 216.128906 589.363281 215.132812 589.558594 C 214.140625 589.757812 213.140625 589.90625 212.132812 590.003906 C 211.125 590.101562 210.117188 590.152344 209.101562 590.152344 C 208.089844 590.152344 207.082031 590.101562 206.074219 590.003906 C 205.066406 589.90625 204.066406 589.757812 203.070312 589.558594 C 202.078125 589.363281 201.097656 589.117188 200.128906 588.820312 C 199.160156 588.527344 198.207031 588.1875 197.269531 587.800781 C 196.335938 587.414062 195.421875 586.980469 194.527344 586.503906 C 193.636719 586.027344 192.769531 585.507812 191.925781 584.945312 C 191.085938 584.382812 190.273438 583.777344 189.488281 583.136719 C 188.707031 582.496094 187.957031 581.816406 187.242188 581.101562 C 186.523438 580.382812 185.847656 579.632812 185.203125 578.851562 C 184.5625 578.070312 183.957031 577.257812 183.394531 576.414062 C 182.832031 575.574219 182.3125 574.707031 181.835938 573.8125 C 181.359375 572.921875 180.925781 572.007812 180.539062 571.070312 C 180.152344 570.136719 179.8125 569.183594 179.515625 568.214844 C 179.222656 567.246094 178.976562 566.265625 178.78125 565.273438 C 178.582031 564.28125 178.433594 563.28125 178.335938 562.273438 C 178.234375 561.265625 178.183594 560.253906 178.183594 559.242188 C 178.183594 558.230469 178.234375 557.222656 178.335938 556.214844 C 178.433594 555.207031 178.582031 554.207031 178.78125 553.214844 C 178.976562 552.21875 179.222656 551.238281 179.515625 550.269531 C 179.8125 549.300781 180.152344 548.351562 180.539062 547.414062 C 180.925781 546.480469 181.359375 545.566406 181.835938 544.671875 C 182.3125 543.78125 182.832031 542.910156 183.394531 542.070312 C 183.957031 541.230469 184.5625 540.417969 185.203125 539.632812 C 185.847656 538.851562 186.523438 538.101562 187.242188 537.386719 C 187.957031 536.671875 188.707031 535.992188 189.488281 535.347656 C 190.273438 534.707031 191.085938 534.105469 191.925781 533.542969 C 192.769531 532.980469 193.636719 532.460938 194.527344 531.984375 C 195.421875 531.503906 196.335938 531.074219 197.269531 530.6875 C 198.207031 530.296875 199.160156 529.957031 200.128906 529.664062 C 201.097656 529.371094 202.078125 529.125 203.070312 528.925781 C 204.066406 528.730469 205.066406 528.582031 206.074219 528.480469 C 207.082031 528.382812 208.089844 528.332031 209.101562 528.332031 C 210.117188 528.332031 211.125 528.382812 212.132812 528.480469 C 213.140625 528.582031 214.140625 528.730469 215.132812 528.925781 C 216.128906 529.125 217.109375 529.371094 218.078125 529.664062 C 219.046875 529.957031 220 530.296875 220.933594 530.6875 C 221.871094 531.074219 222.785156 531.503906 223.675781 531.984375 C 224.570312 532.460938 225.4375 532.980469 226.28125 533.542969 C 227.121094 534.105469 227.933594 534.707031 228.71875 535.347656 C 229.5 535.992188 230.25 536.671875 230.964844 537.386719 C 231.679688 538.101562 232.359375 538.851562 233.003906 539.632812 C 233.644531 540.417969 234.246094 541.230469 234.808594 542.070312 C 235.371094 542.910156 235.890625 543.78125 236.371094 544.671875 C 236.847656 545.566406 237.28125 546.480469 237.667969 547.414062 C 238.054688 548.351562 238.394531 549.300781 238.6875 550.269531 C 238.984375 551.238281 239.230469 552.21875 239.425781 553.214844 C 239.625 554.207031 239.773438 555.207031 239.871094 556.214844 C 239.972656 557.222656 240.019531 558.230469 240.019531 559.242188 Z M 240.019531 559.242188 " fill-opacity="1" fillRule="nonzero"/><path fill="#366088" d="M 209.101562 594.238281 C 189.800781 594.238281 174.101562 578.539062 174.101562 559.242188 C 174.101562 539.949219 189.800781 524.25 209.101562 524.25 C 228.402344 524.25 244.105469 539.949219 244.105469 559.242188 C 244.105469 578.539062 228.402344 594.238281 209.101562 594.238281 Z M 209.101562 532.417969 C 194.308594 532.417969 182.273438 544.453125 182.273438 559.242188 C 182.273438 574.035156 194.308594 586.066406 209.101562 586.066406 C 223.898438 586.066406 235.933594 574.035156 235.933594 559.242188 C 235.933594 544.453125 223.898438 532.417969 209.101562 532.417969 Z M 209.101562 532.417969 " fill-opacity="1" fillRule="nonzero"/><path fill="#d0fdff" d="M 181.277344 750.574219 L 181.277344 685.027344 L 181.277344 710.699219 C 181.277344 717.527344 175.742188 723.0625 168.910156 723.0625 C 162.082031 723.0625 156.542969 717.527344 156.542969 710.699219 L 156.542969 645.789062 C 156.542969 628.71875 170.386719 614.878906 187.460938 614.878906 L 230.746094 614.878906 C 247.820312 614.878906 261.664062 628.71875 261.664062 645.789062 L 261.664062 710.699219 C 261.664062 717.527344 256.125 723.0625 249.296875 723.0625 C 242.464844 723.0625 236.929688 717.527344 236.929688 710.699219 L 236.929688 685.699219 L 236.929688 776.804688 Z M 181.277344 750.574219 " fill-opacity="1" fillRule="nonzero"/><path fill="#366088" d="M 236.929688 780.890625 C 234.671875 780.890625 232.84375 779.0625 232.84375 776.804688 L 232.84375 685.699219 C 232.84375 683.441406 234.671875 681.613281 236.929688 681.613281 C 239.183594 681.613281 241.015625 683.441406 241.015625 685.699219 L 241.015625 710.699219 C 241.015625 715.265625 244.730469 718.980469 249.296875 718.980469 C 253.863281 718.980469 257.578125 715.265625 257.578125 710.699219 L 257.578125 645.789062 C 257.578125 631 245.539062 618.964844 230.746094 618.964844 L 187.460938 618.964844 C 172.667969 618.964844 160.628906 631 160.628906 645.789062 L 160.628906 710.699219 C 160.628906 715.265625 164.34375 718.980469 168.910156 718.980469 C 173.476562 718.980469 177.191406 715.265625 177.191406 710.699219 L 177.191406 685.027344 C 177.191406 682.773438 179.023438 680.945312 181.277344 680.945312 C 183.535156 680.945312 185.363281 682.773438 185.363281 685.027344 L 185.363281 750.574219 C 185.363281 752.832031 183.535156 754.660156 181.277344 754.660156 C 179.023438 754.660156 177.191406 752.832031 177.191406 750.574219 L 177.191406 724.910156 C 174.757812 726.332031 171.929688 727.148438 168.910156 727.148438 C 159.839844 727.148438 152.457031 719.769531 152.457031 710.699219 L 152.457031 645.789062 C 152.457031 626.492188 168.160156 610.796875 187.460938 610.796875 L 230.746094 610.796875 C 250.046875 610.796875 265.75 626.492188 265.75 645.789062 L 265.75 710.699219 C 265.75 719.769531 258.367188 727.148438 249.296875 727.148438 C 246.277344 727.148438 243.449219 726.332031 241.015625 724.910156 L 241.015625 776.804688 C 241.015625 779.0625 239.1875 780.890625 236.929688 780.890625 Z M 236.929688 780.890625 " fill-opacity="1" fillRule="nonzero"/><path fill="#366088" d="M 209.101562 767.777344 C 206.847656 767.777344 205.015625 765.945312 205.015625 763.691406 L 205.015625 714.949219 C 205.015625 712.695312 206.847656 710.863281 209.101562 710.863281 C 211.359375 710.863281 213.1875 712.695312 213.1875 714.949219 L 213.1875 763.691406 C 213.1875 765.945312 211.359375 767.777344 209.101562 767.777344 Z M 209.101562 767.777344 " fill-opacity="1" fillRule="nonzero"/><path fill="#ffffff" d="M 320.40625 594.402344 C 320.40625 595.417969 320.355469 596.425781 320.257812 597.433594 C 320.15625 598.441406 320.007812 599.441406 319.8125 600.433594 C 319.613281 601.425781 319.367188 602.40625 319.074219 603.375 C 318.78125 604.34375 318.441406 605.296875 318.050781 606.234375 C 317.664062 607.167969 317.234375 608.082031 316.753906 608.976562 C 316.277344 609.867188 315.757812 610.734375 315.195312 611.578125 C 314.632812 612.417969 314.03125 613.230469 313.386719 614.011719 C 312.746094 614.796875 312.066406 615.542969 311.351562 616.261719 C 310.632812 616.976562 309.886719 617.65625 309.101562 618.296875 C 308.320312 618.941406 307.507812 619.542969 306.664062 620.105469 C 305.824219 620.667969 304.957031 621.1875 304.0625 621.664062 C 303.167969 622.140625 302.253906 622.574219 301.320312 622.960938 C 300.382812 623.347656 299.433594 623.6875 298.464844 623.984375 C 297.496094 624.277344 296.511719 624.523438 295.519531 624.71875 C 294.527344 624.917969 293.527344 625.066406 292.519531 625.164062 C 291.511719 625.265625 290.5 625.3125 289.488281 625.3125 C 288.476562 625.3125 287.464844 625.265625 286.457031 625.164062 C 285.449219 625.066406 284.449219 624.917969 283.457031 624.71875 C 282.464844 624.523438 281.484375 624.277344 280.511719 623.984375 C 279.542969 623.6875 278.59375 623.347656 277.65625 622.960938 C 276.722656 622.574219 275.808594 622.140625 274.914062 621.664062 C 274.019531 621.1875 273.152344 620.667969 272.3125 620.105469 C 271.46875 619.542969 270.65625 618.941406 269.875 618.296875 C 269.089844 617.65625 268.34375 616.976562 267.625 616.261719 C 266.910156 615.542969 266.230469 614.796875 265.589844 614.011719 C 264.945312 613.230469 264.34375 612.417969 263.78125 611.578125 C 263.21875 610.734375 262.699219 609.867188 262.222656 608.976562 C 261.746094 608.082031 261.3125 607.167969 260.925781 606.234375 C 260.535156 605.296875 260.195312 604.34375 259.902344 603.375 C 259.609375 602.40625 259.363281 601.425781 259.164062 600.433594 C 258.96875 599.441406 258.820312 598.441406 258.71875 597.433594 C 258.621094 596.425781 258.570312 595.417969 258.570312 594.402344 C 258.570312 593.390625 258.621094 592.382812 258.71875 591.375 C 258.820312 590.367188 258.96875 589.367188 259.164062 588.375 C 259.363281 587.378906 259.609375 586.398438 259.902344 585.429688 C 260.195312 584.460938 260.535156 583.511719 260.925781 582.574219 C 261.3125 581.640625 261.746094 580.726562 262.222656 579.832031 C 262.699219 578.941406 263.21875 578.074219 263.78125 577.230469 C 264.34375 576.390625 264.945312 575.578125 265.589844 574.796875 C 266.230469 574.011719 266.910156 573.261719 267.625 572.546875 C 268.34375 571.832031 269.089844 571.152344 269.875 570.511719 C 270.65625 569.867188 271.46875 569.265625 272.3125 568.703125 C 273.152344 568.140625 274.019531 567.621094 274.914062 567.144531 C 275.808594 566.667969 276.722656 566.234375 277.65625 565.847656 C 278.59375 565.460938 279.542969 565.117188 280.511719 564.824219 C 281.484375 564.53125 282.464844 564.285156 283.457031 564.089844 C 284.449219 563.890625 285.449219 563.742188 286.457031 563.644531 C 287.464844 563.542969 288.476562 563.492188 289.488281 563.492188 C 290.5 563.492188 291.511719 563.542969 292.519531 563.644531 C 293.527344 563.742188 294.527344 563.890625 295.519531 564.089844 C 296.511719 564.285156 297.496094 564.53125 298.464844 564.824219 C 299.433594 565.117188 300.382812 565.460938 301.320312 565.847656 C 302.253906 566.234375 303.167969 566.667969 304.0625 567.144531 C 304.957031 567.621094 305.824219 568.140625 306.664062 568.703125 C 307.507812 569.265625 308.320312 569.867188 309.101562 570.511719 C 309.886719 571.152344 310.632812 571.832031 311.351562 572.546875 C 312.066406 573.261719 312.746094 574.011719 313.386719 574.796875 C 314.03125 575.578125 314.632812 576.390625 315.195312 577.230469 C 315.757812 578.074219 316.277344 578.941406 316.753906 579.832031 C 317.234375 580.726562 317.664062 581.640625 318.050781 582.574219 C 318.441406 583.511719 318.78125 584.460938 319.074219 585.429688 C 319.367188 586.398438 319.613281 587.378906 319.8125 588.375 C 320.007812 589.367188 320.15625 590.367188 320.257812 591.375 C 320.355469 592.382812 320.40625 593.390625 320.40625 594.402344 Z M 320.40625 594.402344 " fill-opacity="1" fillRule="nonzero"/><path fill="#366088" d="M 289.488281 629.398438 C 270.1875 629.398438 254.484375 613.699219 254.484375 594.402344 C 254.484375 575.109375 270.1875 559.410156 289.488281 559.410156 C 308.789062 559.410156 324.492188 575.109375 324.492188 594.402344 C 324.492188 613.699219 308.789062 629.398438 289.488281 629.398438 Z M 289.488281 567.578125 C 274.695312 567.578125 262.65625 579.613281 262.65625 594.402344 C 262.65625 609.195312 274.691406 621.226562 289.488281 621.226562 C 304.285156 621.226562 316.320312 609.195312 316.320312 594.402344 C 316.320312 579.613281 304.28125 567.578125 289.488281 567.578125 Z M 289.488281 567.578125 " fill-opacity="1" fillRule="nonzero"/><path fill="#ffffff" d="M 261.664062 795.042969 L 261.664062 696.40625 L 261.664062 745.859375 C 261.664062 752.6875 256.125 758.226562 249.296875 758.226562 C 242.464844 758.226562 236.929688 752.6875 236.929688 745.859375 L 236.929688 680.949219 C 236.929688 663.878906 250.773438 650.039062 267.847656 650.039062 L 311.128906 650.039062 C 328.207031 650.039062 342.046875 663.878906 342.046875 680.949219 L 342.046875 745.859375 C 342.046875 752.6875 336.511719 758.226562 329.679688 758.226562 C 322.851562 758.226562 317.316406 752.6875 317.316406 745.859375 L 317.316406 696.40625 L 317.316406 795.042969 Z M 261.664062 795.042969 " fill-opacity="1" fillRule="nonzero"/><path fill="#366088" d="M 317.3125 799.128906 C 315.058594 799.128906 313.226562 797.300781 313.226562 795.042969 L 313.226562 696.40625 C 313.226562 694.148438 315.058594 692.320312 317.3125 692.320312 C 319.570312 692.320312 321.398438 694.148438 321.398438 696.40625 L 321.398438 745.859375 C 321.398438 750.425781 325.113281 754.140625 329.679688 754.140625 C 334.246094 754.140625 337.960938 750.425781 337.960938 745.859375 L 337.960938 680.949219 C 337.960938 666.160156 325.925781 654.125 311.128906 654.125 L 267.847656 654.125 C 253.050781 654.125 241.015625 666.160156 241.015625 680.949219 L 241.015625 745.859375 C 241.015625 750.425781 244.730469 754.140625 249.296875 754.140625 C 253.863281 754.140625 257.578125 750.425781 257.578125 745.859375 L 257.578125 696.40625 C 257.578125 694.148438 259.40625 692.320312 261.664062 692.320312 C 263.917969 692.320312 265.75 694.148438 265.75 696.40625 L 265.75 795.042969 C 265.75 797.296875 263.917969 799.128906 261.664062 799.128906 C 259.40625 799.128906 257.578125 797.300781 257.578125 795.042969 L 257.578125 760.070312 C 255.144531 761.492188 252.3125 762.308594 249.296875 762.308594 C 240.222656 762.308594 232.84375 754.929688 232.84375 745.859375 L 232.84375 680.949219 C 232.84375 661.65625 248.546875 645.957031 267.847656 645.957031 L 311.128906 645.957031 C 330.429688 645.957031 346.132812 661.65625 346.132812 680.949219 L 346.132812 745.859375 C 346.132812 754.929688 338.753906 762.308594 329.679688 762.308594 C 326.664062 762.308594 323.832031 761.492188 321.398438 760.070312 L 321.398438 795.042969 C 321.398438 797.300781 319.570312 799.128906 317.3125 799.128906 Z M 317.3125 799.128906 " fill-opacity="1" fillRule="nonzero"/><path fill="#366088" d="M 289.488281 810 C 287.230469 810 285.402344 808.171875 285.402344 805.914062 L 285.402344 750.109375 C 285.402344 747.855469 287.230469 746.027344 289.488281 746.027344 C 291.746094 746.027344 293.574219 747.855469 293.574219 750.109375 L 293.574219 805.914062 C 293.574219 808.171875 291.746094 810 289.488281 810 Z M 289.488281 810 " fill-opacity="1" fillRule="nonzero"/><path fill="#ffffff" d="M 266.589844 106.871094 C 266.589844 106.871094 234.910156 183.171875 272.351562 307.699219 C 309.789062 432.230469 427.148438 183.890625 427.148438 183.890625 Z M 266.589844 106.871094 " fill-opacity="1" fillRule="nonzero"/><path fill="#ffffff" d="M 256.386719 140.328125 C 256.386719 75.550781 308.792969 23.015625 373.527344 22.777344 C 439.433594 22.539062 489.082031 85.894531 491.535156 145.113281 C 496.554688 266.105469 420.015625 316.054688 366.917969 340.132812 C 354.027344 345.980469 344.863281 357.371094 340.027344 370.671875 C 330.886719 395.839844 305.945312 413.425781 277.191406 411.457031 C 239.734375 408.890625 214.492188 372.640625 220.957031 335.664062 C 229.222656 288.363281 266.460938 259.863281 327.207031 250.726562 C 355.601562 250.726562 378.617188 227.714844 378.617188 199.324219 C 378.617188 170.9375 355.746094 141.667969 314.328125 144.28125 Z M 256.386719 140.328125 " fill-opacity="1" fillRule="nonzero"/><path fill="#366088" d="M 281.617188 415.695312 C 280.058594 415.695312 278.488281 415.640625 276.914062 415.53125 C 258.671875 414.28125 242.289062 405.511719 230.785156 390.835938 C 218.511719 375.175781 213.460938 354.8125 216.929688 334.960938 C 221.191406 310.582031 232.945312 290.636719 251.867188 275.679688 C 270.269531 261.132812 295.410156 251.375 326.597656 246.6875 C 326.800781 246.65625 327.003906 246.640625 327.207031 246.640625 C 353.300781 246.640625 374.53125 225.414062 374.53125 199.324219 C 374.53125 185.476562 368.734375 172.089844 358.621094 162.597656 C 350.871094 155.324219 336.9375 146.945312 314.582031 148.355469 C 312.324219 148.5 310.390625 146.789062 310.25 144.535156 C 310.105469 142.285156 311.816406 140.34375 314.070312 140.203125 C 339.34375 138.609375 355.289062 148.261719 364.214844 156.640625 C 375.964844 167.671875 382.703125 183.230469 382.703125 199.324219 C 382.703125 229.816406 357.976562 254.640625 327.519531 254.808594 C 267.34375 263.933594 232.84375 291.371094 224.980469 336.367188 C 221.910156 353.941406 226.367188 371.957031 237.21875 385.796875 C 247.273438 398.625 261.570312 406.292969 277.472656 407.382812 C 303.246094 409.144531 327.394531 393.480469 336.1875 369.277344 C 341.714844 354.070312 352.027344 342.398438 365.230469 336.414062 C 451.191406 297.429688 491.171875 234.914062 487.453125 145.285156 C 485.128906 89.191406 437.941406 26.863281 373.902344 26.863281 C 373.78125 26.863281 373.664062 26.863281 373.542969 26.863281 C 311.195312 27.089844 260.472656 77.992188 260.472656 140.328125 C 260.472656 142.582031 258.644531 144.414062 256.386719 144.414062 C 254.128906 144.414062 252.300781 142.582031 252.300781 140.328125 C 252.300781 123.945312 255.503906 108.050781 261.820312 93.078125 C 267.921875 78.621094 276.65625 65.628906 287.785156 54.46875 C 298.914062 43.304688 311.875 34.527344 326.3125 28.378906 C 341.257812 22.011719 357.136719 18.753906 373.511719 18.691406 C 373.640625 18.691406 373.769531 18.691406 373.898438 18.691406 C 405.597656 18.691406 435.929688 32.964844 459.359375 58.910156 C 481.136719 83.03125 494.351562 114.390625 495.617188 144.945312 C 496.816406 173.875 493.421875 200.648438 485.527344 224.523438 C 478.601562 245.472656 468.050781 264.660156 454.179688 281.558594 C 433.496094 306.742188 405.507812 327.117188 368.605469 343.851562 C 357.421875 348.925781 348.636719 358.945312 343.867188 372.066406 C 339.074219 385.265625 329.964844 396.832031 318.226562 404.640625 C 307.292969 411.914062 294.722656 415.695312 281.617188 415.695312 Z M 281.617188 415.695312 " fill-opacity="1" fillRule="nonzero"/><path fill="#366088" d="M 365.777344 289.589844 C 364.550781 289.589844 363.339844 289.042969 362.535156 287.996094 C 361.160156 286.207031 361.492188 283.640625 363.28125 282.265625 C 365.351562 280.675781 367.957031 278.875 370.972656 276.792969 C 393.601562 261.164062 440.679688 228.640625 441.144531 157.65625 C 441.292969 134.707031 430.464844 109.464844 412.886719 91.773438 C 398.867188 77.667969 382.320312 69.898438 366.292969 69.898438 C 358.554688 69.898438 343.929688 71.882812 332.9375 85.167969 C 326.089844 93.445312 321.605469 104.886719 319.613281 119.175781 C 317.230469 136.238281 318.410156 157.382812 323.117188 182.019531 C 323.542969 184.238281 322.089844 186.375 319.871094 186.800781 C 317.652344 187.222656 315.515625 185.769531 315.089844 183.554688 C 310.214844 158.035156 309.011719 135.996094 311.519531 118.046875 C 313.726562 102.238281 318.8125 89.425781 326.640625 79.960938 C 339.765625 64.097656 357.117188 61.726562 366.292969 61.726562 C 384.515625 61.726562 403.121094 70.351562 418.683594 86.015625 C 427.910156 95.296875 435.613281 106.671875 440.957031 118.90625 C 446.507812 131.609375 449.398438 145.027344 449.316406 157.710938 C 449.105469 190.117188 439.574219 218.757812 420.996094 242.835938 C 405.574219 262.824219 387.546875 275.273438 375.621094 283.515625 C 372.695312 285.535156 370.167969 287.28125 368.265625 288.742188 C 367.523438 289.316406 366.644531 289.589844 365.777344 289.589844 Z M 365.777344 289.589844 " fill-opacity="1" fillRule="nonzero"/><path fill="#ffffff" d="M 103.292969 213.109375 L 195.824219 213.109375 L 172.679688 189.972656 C 167.394531 184.691406 167.394531 176.125 172.679688 170.84375 C 177.957031 165.5625 186.523438 165.5625 191.808594 170.84375 C 195.234375 174.269531 232.65625 211.683594 237.804688 216.785156 C 240.328125 219.285156 241.886719 222.695312 241.980469 226.261719 C 242.191406 234.316406 234.148438 240.101562 228.933594 245.316406 C 222.394531 251.851562 192.4375 281.800781 191.808594 282.429688 C 189.171875 285.070312 185.707031 286.390625 182.246094 286.390625 C 178.785156 286.390625 175.320312 285.070312 172.679688 282.429688 C 167.394531 277.148438 167.394531 268.582031 172.679688 263.300781 L 195.824219 240.160156 L 103.292969 240.160156 Z M 103.292969 213.109375 " fill-opacity="1" fillRule="nonzero"/><path fill="#366088" d="M 182.246094 290.476562 C 177.535156 290.476562 173.113281 288.644531 169.789062 285.316406 C 166.460938 281.992188 164.628906 277.570312 164.628906 272.867188 C 164.628906 268.160156 166.460938 263.738281 169.789062 260.414062 L 185.960938 244.246094 L 103.292969 244.246094 C 101.039062 244.246094 99.207031 242.417969 99.207031 240.160156 C 99.207031 237.90625 101.039062 236.074219 103.292969 236.074219 L 195.824219 236.074219 C 197.476562 236.074219 198.964844 237.070312 199.597656 238.597656 C 200.230469 240.125 199.882812 241.878906 198.710938 243.050781 L 175.566406 266.191406 C 173.78125 267.972656 172.800781 270.34375 172.800781 272.863281 C 172.800781 275.386719 173.78125 277.757812 175.566406 279.539062 C 177.351562 281.324219 179.71875 282.304688 182.242188 282.304688 C 184.765625 282.304688 187.136719 281.324219 188.917969 279.542969 L 226.042969 242.425781 C 226.988281 241.480469 227.980469 240.558594 229.027344 239.578125 C 233.449219 235.460938 238.019531 231.199219 237.894531 226.371094 C 237.832031 223.929688 236.75 221.492188 234.925781 219.6875 C 231.8125 216.601562 215.84375 200.652344 189.960938 174.773438 L 188.917969 173.734375 C 187.136719 171.949219 184.761719 170.96875 182.242188 170.96875 C 179.71875 170.96875 177.347656 171.949219 175.570312 173.730469 C 173.78125 175.515625 172.800781 177.886719 172.800781 180.410156 C 172.800781 182.929688 173.78125 185.300781 175.566406 187.082031 L 198.710938 210.222656 C 199.878906 211.390625 200.230469 213.144531 199.597656 214.671875 C 198.964844 216.199219 197.472656 217.195312 195.820312 217.195312 L 103.292969 217.195312 C 101.035156 217.195312 99.207031 215.367188 99.207031 213.109375 C 99.207031 210.851562 101.035156 209.023438 103.292969 209.023438 L 185.957031 209.023438 L 169.789062 192.859375 C 166.460938 189.535156 164.628906 185.113281 164.628906 180.40625 C 164.628906 175.703125 166.460938 171.28125 169.789062 167.957031 C 173.113281 164.628906 177.535156 162.796875 182.242188 162.796875 C 186.945312 162.796875 191.371094 164.628906 194.699219 167.957031 L 195.738281 168.996094 C 221.613281 194.863281 237.574219 210.804688 240.679688 213.882812 C 243.984375 217.160156 245.949219 221.632812 246.066406 226.15625 C 246.289062 234.667969 239.808594 240.703125 234.601562 245.554688 C 233.605469 246.484375 232.667969 247.359375 231.820312 248.203125 L 194.699219 285.316406 C 191.375 288.644531 186.953125 290.476562 182.246094 290.476562 Z M 182.246094 290.476562 " fill-opacity="1" fillRule="nonzero"/><path fill="#d0fdff" d="M 111.246094 120.097656 L 111.246094 81.421875 L 81.015625 53.300781 L 202.625 53.300781 C 218.363281 53.300781 231.121094 66.054688 231.121094 81.792969 L 231.121094 120.097656 C 231.121094 135.832031 218.363281 148.589844 202.625 148.589844 L 139.742188 148.589844 C 124.003906 148.589844 111.246094 135.832031 111.246094 120.097656 Z M 111.246094 120.097656 " fill-opacity="1" fillRule="nonzero"/><path fill="#366088" d="M 139.742188 152.671875 C 121.777344 152.671875 107.160156 138.058594 107.160156 120.097656 L 107.160156 83.199219 L 78.230469 56.292969 C 77.003906 55.148438 76.597656 53.367188 77.210938 51.804688 C 77.828125 50.242188 79.335938 49.214844 81.015625 49.214844 L 202.625 49.214844 C 220.589844 49.214844 235.207031 63.828125 235.207031 81.789062 L 235.207031 120.097656 C 235.207031 138.058594 220.589844 152.671875 202.625 152.671875 Z M 91.40625 57.386719 L 114.027344 78.429688 C 114.859375 79.203125 115.332031 80.285156 115.332031 81.417969 L 115.332031 120.097656 C 115.332031 133.554688 126.28125 144.503906 139.742188 144.503906 L 202.625 144.503906 C 216.085938 144.503906 227.035156 133.554688 227.035156 120.097656 L 227.035156 81.789062 C 227.035156 68.332031 216.085938 57.386719 202.625 57.386719 Z M 91.40625 57.386719 " fill-opacity="1" fillRule="nonzero"/><g fill="#fbc906" fill-opacity="1"><g transform="translate(675.62469, 241.697938)"><g><path d="M 3.9375 0.140625 C 3.382812 0.140625 2.945312 -0.015625 2.625 -0.328125 C 2.300781 -0.640625 2.140625 -1.050781 2.140625 -1.5625 C 2.140625 -2.070312 2.300781 -2.488281 2.625 -2.8125 C 2.945312 -3.144531 3.382812 -3.3125 3.9375 -3.3125 C 4.507812 -3.3125 4.953125 -3.15625 5.265625 -2.84375 C 5.585938 -2.53125 5.75 -2.113281 5.75 -1.59375 C 5.75 -1.082031 5.585938 -0.664062 5.265625 -0.34375 C 4.941406 -0.0195312 4.5 0.140625 3.9375 0.140625 Z M 3.9375 0.140625 "/></g></g></g></svg>