<svg xmlns="http://www.w3.org/2000/svg" xmlns:xlink="http://www.w3.org/1999/xlink" width="1080" zoomAndPan="magnify" viewBox="0 0 810 809.999993" height="1080" preserveAspectRatio="xMidYMid meet" version="1.0"><defs><g/></defs><path fill="#f6d7d3" d="M 589.265625 709.300781 C 780.457031 589.847656 775.660156 493.152344 776.832031 483.375 C 806.34375 236.304688 732.902344 102.332031 599.40625 42.800781 C 536.140625 14.589844 436.132812 -0.0195312 364.828125 47.496094 C 298.246094 91.867188 327.097656 143.484375 253.644531 232.097656 C 169.042969 334.148438 97.867188 321.417969 41.140625 410.546875 C 3.675781 469.414062 23.335938 539.613281 28.078125 560.046875 C 62.828125 709.871094 245.230469 761.367188 265.691406 766.808594 C 428.097656 809.996094 561.773438 726.476562 589.265625 709.300781 " fill-opacity="1" fillRule="nonzero"/><path fill="#000000" d="M 538 765.578125 C 537.363281 765.578125 536.789062 765.136719 536.648438 764.492188 C 536.488281 763.746094 536.957031 763.003906 537.707031 762.847656 C 598.398438 749.648438 654.753906 718.871094 700.675781 673.828125 C 701.222656 673.296875 702.101562 673.304688 702.628906 673.851562 C 703.171875 674.394531 703.160156 675.269531 702.613281 675.804688 C 656.316406 721.207031 599.5 752.242188 538.292969 765.546875 C 538.191406 765.570312 538.097656 765.578125 538 765.578125 " fill-opacity="1" fillRule="nonzero"/><path fill="#000000" d="M 562.792969 740.875 C 562.214844 740.875 561.675781 740.511719 561.480469 739.929688 C 561.238281 739.207031 561.632812 738.425781 562.351562 738.179688 C 599.484375 725.78125 633.84375 706.367188 664.488281 680.492188 C 665.070312 680 665.941406 680.074219 666.4375 680.660156 C 666.929688 681.246094 666.855469 682.117188 666.269531 682.609375 C 635.363281 708.710938 600.691406 728.289062 563.234375 740.800781 C 563.082031 740.851562 562.9375 740.875 562.792969 740.875 " fill-opacity="1" fillRule="nonzero"/><path fill="#000000" d="M 677.144531 666.414062 C 676.5625 666.414062 675.980469 666.550781 675.445312 666.824219 C 674.546875 667.28125 673.882812 668.054688 673.574219 669.011719 C 673.261719 669.96875 673.339844 670.988281 673.792969 671.882812 C 674.25 672.777344 675.023438 673.445312 675.984375 673.753906 C 676.941406 674.066406 677.957031 673.988281 678.859375 673.535156 C 679.75 673.078125 680.417969 672.300781 680.726562 671.347656 C 681.042969 670.390625 680.960938 669.371094 680.507812 668.472656 C 680.046875 667.578125 679.273438 666.910156 678.320312 666.601562 C 677.933594 666.476562 677.539062 666.414062 677.144531 666.414062 Z M 677.160156 676.710938 C 676.476562 676.710938 675.792969 676.601562 675.128906 676.386719 C 673.46875 675.847656 672.121094 674.691406 671.332031 673.136719 C 670.539062 671.585938 670.402344 669.8125 670.945312 668.15625 C 671.484375 666.5 672.640625 665.148438 674.191406 664.359375 C 677.402344 662.726562 681.339844 664.007812 682.96875 667.222656 C 683.757812 668.777344 683.894531 670.546875 683.359375 672.203125 C 682.816406 673.859375 681.664062 675.207031 680.105469 675.996094 C 679.179688 676.472656 678.171875 676.710938 677.160156 676.710938 " fill-opacity="1" fillRule="nonzero"/><path fill="#000000" d="M 700.507812 660.910156 L 713.691406 670.230469 C 714.566406 664.175781 715.117188 658.355469 715.375 655.324219 Z M 714.722656 674.039062 C 714.4375 674.039062 714.160156 673.949219 713.921875 673.78125 L 696.78125 661.660156 C 696.363281 661.367188 696.140625 660.863281 696.207031 660.355469 C 696.277344 659.847656 696.613281 659.417969 697.09375 659.234375 L 716.441406 651.972656 C 716.882812 651.800781 717.378906 651.875 717.757812 652.160156 C 718.128906 652.4375 718.34375 652.890625 718.3125 653.359375 C 718.300781 653.460938 717.605469 663.257812 716.085938 672.867188 C 716.011719 673.339844 715.699219 673.742188 715.257812 673.929688 C 715.085938 674 714.902344 674.039062 714.722656 674.039062 " fill-opacity="1" fillRule="nonzero"/><path fill="#ed9a94" d="M 507.117188 426.445312 L 369.824219 427.304688 C 368.933594 427.304688 368.644531 428.132812 368.644531 428.925781 L 368.644531 545.738281 C 368.644531 556.921875 290.632812 585.980469 289.875 584.503906 L 289.777344 596.863281 C 289.773438 599.167969 291.796875 601.210938 294.375 601.210938 L 296.09375 601.210938 C 296.105469 601.210938 296.113281 601.210938 296.125 601.210938 L 411.242188 601.210938 C 416.582031 601.210938 421.859375 600.011719 426.695312 597.988281 L 489.984375 571.339844 C 501.378906 566.539062 508.566406 556.234375 508.566406 544.996094 L 508.566406 428.066406 C 508.566406 427.273438 508.007812 426.445312 507.117188 426.445312 " fill-opacity="1" fillRule="nonzero"/><path fill="#ffffff" d="M 354.738281 420.503906 L 354.738281 537.335938 C 354.738281 548.859375 347.328125 559.351562 335.679688 564.324219 L 292.984375 582.546875 C 290.195312 583.734375 291.144531 587.472656 294.234375 587.472656 L 411.546875 587.472656 C 416.820312 587.472656 422.03125 586.433594 426.800781 584.425781 L 474.109375 564.507812 C 485.839844 559.566406 493.328125 549.027344 493.328125 537.457031 L 493.328125 420.503906 C 493.328125 420.023438 492.890625 419.636719 492.355469 419.636719 L 355.707031 419.636719 C 355.171875 419.636719 354.738281 420.023438 354.738281 420.503906 " fill-opacity="1" fillRule="nonzero"/><path fill="#ed9a94" d="M 249.171875 53.429688 L 759.335938 51.953125 C 769.59375 51.953125 777.648438 60.707031 776.738281 70.867188 L 741.03125 471.078125 C 740.226562 480.046875 732.679688 486.917969 723.628906 486.917969 L 95.214844 486.824219 C 84.953125 486.824219 76.796875 477.167969 77.707031 467 L 113.421875 69.269531 C 114.222656 60.304688 121.484375 52.457031 130.535156 52.457031 L 249.171875 53.429688 " fill-opacity="1" fillRule="nonzero"/><path fill="#ffffff" d="M 224.84375 53.441406 L 734.925781 53.441406 C 745.183594 53.441406 753.238281 62.242188 752.324219 72.464844 L 716.777344 471.949219 C 715.980469 480.964844 708.429688 487.871094 699.378906 487.871094 L 70.953125 487.871094 C 60.691406 487.871094 52.640625 479.074219 53.550781 468.851562 L 89.09375 69.363281 C 89.898438 60.351562 97.449219 53.441406 106.496094 53.441406 L 224.84375 53.441406 " fill-opacity="1" fillRule="nonzero"/><path fill="#000000" d="M 69.886719 286.648438 C 69.84375 286.648438 69.804688 286.648438 69.761719 286.644531 C 69.003906 286.574219 68.441406 285.902344 68.507812 285.140625 L 87.71875 69.238281 C 88.589844 59.445312 96.664062 52.054688 106.5 52.054688 L 224.847656 52.054688 C 225.609375 52.054688 226.226562 52.671875 226.226562 53.441406 C 226.226562 54.203125 225.609375 54.820312 224.847656 54.820312 L 106.5 54.820312 C 98.105469 54.820312 91.21875 61.125 90.472656 69.484375 L 71.261719 285.386719 C 71.199219 286.105469 70.59375 286.648438 69.886719 286.648438 " fill-opacity="1" fillRule="nonzero"/><path fill="#000000" d="M 588.753906 489.257812 L 304.808594 489.257812 C 304.042969 489.257812 303.425781 488.636719 303.425781 487.871094 C 303.425781 487.109375 304.042969 486.488281 304.808594 486.488281 L 588.753906 486.488281 C 589.515625 486.488281 590.136719 487.109375 590.136719 487.871094 C 590.136719 488.636719 589.515625 489.257812 588.753906 489.257812 " fill-opacity="1" fillRule="nonzero"/><path fill="#000000" d="M 726.355469 365.765625 C 726.316406 365.765625 726.273438 365.765625 726.234375 365.761719 C 725.472656 365.695312 724.910156 365.023438 724.980469 364.261719 L 750.953125 72.335938 C 751.351562 67.847656 749.835938 63.375 746.796875 60.050781 C 743.757812 56.722656 739.433594 54.824219 734.933594 54.824219 L 224.847656 54.824219 C 224.082031 54.824219 223.464844 54.203125 223.464844 53.4375 C 223.464844 52.675781 224.082031 52.058594 224.847656 52.058594 L 734.933594 52.058594 C 740.207031 52.058594 745.277344 54.289062 748.835938 58.179688 C 752.402344 62.074219 754.175781 67.328125 753.707031 72.578125 L 727.730469 364.503906 C 727.671875 365.226562 727.070312 365.765625 726.355469 365.765625 " fill-opacity="1" fillRule="nonzero"/><path fill="#f6d7d3" d="M 236.191406 69.710938 L 717.796875 69.710938 C 727.480469 69.710938 735.085938 77.832031 734.222656 87.265625 L 700.664062 455.996094 C 699.90625 464.320312 692.777344 470.695312 684.230469 470.695312 L 90.890625 470.695312 C 81.203125 470.695312 73.601562 462.574219 74.457031 453.140625 L 108.019531 84.40625 C 108.777344 76.089844 115.90625 69.710938 124.449219 69.710938 L 236.191406 69.710938 " fill-opacity="1" fillRule="nonzero"/><path fill="#ed9a94" d="M 732.003906 111.859375 L 734.222656 87.445312 C 735.085938 78.007812 727.480469 69.835938 717.796875 69.835938 L 124.449219 69.835938 C 115.90625 69.835938 108.777344 76.265625 108.019531 84.582031 L 105.542969 111.859375 L 732.003906 111.859375 " fill-opacity="1" fillRule="nonzero"/><path fill="#ed9a94" d="M 687.320312 304.449219 L 302.746094 304.449219 L 318.417969 129.171875 L 702.992188 129.171875 L 687.320312 304.449219 " fill-opacity="1" fillRule="nonzero"/><path fill="#ed9a94" d="M 672.804688 452.058594 L 288.234375 452.058594 L 300.253906 317.625 L 684.828125 317.625 L 672.804688 452.058594 " fill-opacity="1" fillRule="nonzero"/><path fill="#ed9a94" d="M 281.0625 305.367188 L 110.433594 305.367188 L 126.636719 130.480469 L 297.269531 130.480469 L 281.0625 305.367188 " fill-opacity="1" fillRule="nonzero"/><path fill="#ed9a94" d="M 276.691406 340 L 106.058594 340 L 107.519531 324.21875 L 278.152344 324.21875 L 276.691406 340 " fill-opacity="1" fillRule="nonzero"/><path fill="#ed9a94" d="M 274.476562 373.300781 L 103.847656 373.300781 L 105.3125 357.515625 L 275.941406 357.515625 L 274.476562 373.300781 " fill-opacity="1" fillRule="nonzero"/><path fill="#ed9a94" d="M 272.332031 399.597656 L 101.703125 399.597656 L 103.164062 383.816406 L 273.792969 383.816406 L 272.332031 399.597656 " fill-opacity="1" fillRule="nonzero"/><path fill="#ed9a94" d="M 270.242188 425.3125 L 99.613281 425.3125 L 101.074219 409.535156 L 271.703125 409.535156 L 270.242188 425.3125 " fill-opacity="1" fillRule="nonzero"/><path fill="#ed9a94" d="M 268.097656 451.613281 L 97.46875 451.613281 L 98.929688 435.835938 L 269.558594 435.835938 L 268.097656 451.613281 " fill-opacity="1" fillRule="nonzero"/><path fill="#ed9a94" d="M 625.261719 594.007812 L 63.269531 594.007812 L 116.003906 542.382812 L 683.714844 542.382812 L 635.378906 589.703125 C 632.53125 592.484375 628.957031 594.007812 625.261719 594.007812 " fill-opacity="1" fillRule="nonzero"/><path fill="#ffffff" d="M 630.980469 612.445312 L 63.269531 612.445312 L 63.269531 593.082031 L 630.980469 593.082031 L 630.980469 612.445312 " fill-opacity="1" fillRule="nonzero"/><path fill="#ffffff" d="M 630.242188 592.933594 L 683.714844 542.382812 L 683.714844 558.976562 L 630.242188 612.445312 L 630.242188 592.933594 " fill-opacity="1" fillRule="nonzero"/><path fill="#000000" d="M 528.714844 685.3125 C 510.320312 620.855469 593.597656 615.363281 629.492188 656.953125 C 634.707031 662.996094 631.808594 672.394531 624.074219 674.339844 L 544.371094 694.355469 C 537.566406 696.0625 530.640625 692.058594 528.714844 685.3125 " fill-opacity="1" fillRule="nonzero"/><path fill="#ffffff" d="M 580.71875 615.664062 C 575.238281 612.855469 567.140625 609.53125 552.839844 611.707031 C 537.082031 614.113281 533.558594 625.75 508.847656 630.957031 C 466.347656 639.917969 487.273438 664.789062 487.273438 664.789062 L 520.328125 649.828125 C 522.464844 648.859375 524.832031 648.480469 527.175781 648.738281 C 534.382812 649.53125 551.632812 650.820312 567.347656 647.269531 C 579.101562 644.617188 594.585938 654.371094 602.925781 647.023438 C 607.769531 642.753906 592.394531 621.65625 580.71875 615.664062 " fill-opacity="1" fillRule="nonzero"/><path fill="#000000" d="M 561.597656 612.386719 C 559.019531 612.386719 556.191406 612.597656 553.050781 613.078125 C 546.109375 614.132812 541.601562 617.085938 536.386719 620.503906 C 529.988281 624.691406 522.742188 629.441406 509.128906 632.3125 C 494.96875 635.296875 486.582031 640.304688 484.199219 647.195312 C 481.871094 653.921875 486.066406 660.757812 487.710938 663.074219 L 519.757812 648.570312 C 522.128906 647.5 524.746094 647.082031 527.328125 647.367188 C 534.0625 648.105469 551.40625 649.453125 567.042969 645.925781 C 572.335938 644.726562 578.191406 645.882812 583.847656 647.003906 C 590.996094 648.414062 597.738281 649.75 602.015625 645.988281 C 602.503906 645.554688 602.5 644.613281 602.414062 643.902344 C 601.578125 637.195312 589.675781 621.8125 580.089844 616.898438 C 575.578125 614.582031 569.949219 612.386719 561.597656 612.386719 Z M 487.273438 666.175781 C 486.878906 666.175781 486.484375 666 486.214844 665.683594 C 485.890625 665.292969 478.234375 656.03125 481.582031 646.308594 C 484.292969 638.425781 493.375 632.804688 508.558594 629.601562 C 521.664062 626.84375 528.675781 622.246094 534.871094 618.191406 C 540.125 614.742188 545.09375 611.488281 552.636719 610.339844 C 566.726562 608.191406 575.054688 611.207031 581.351562 614.433594 C 591.222656 619.5 604.125 635.289062 605.164062 643.5625 C 605.46875 646.046875 604.613281 647.382812 603.839844 648.0625 C 598.546875 652.726562 590.800781 651.195312 583.3125 649.714844 C 577.9375 648.652344 572.375 647.554688 567.648438 648.621094 C 551.613281 652.242188 533.894531 650.867188 527.023438 650.113281 C 524.933594 649.882812 522.816406 650.222656 520.898438 651.089844 L 487.847656 666.050781 C 487.664062 666.132812 487.464844 666.175781 487.273438 666.175781 " fill-opacity="1" fillRule="nonzero"/><path fill="#e45f55" d="M 79.449219 519.621094 C 74.617188 506.992188 85.25 478.191406 98.953125 477.460938 C 158.203125 474.3125 254.761719 471.445312 386.496094 525.128906 C 391.472656 527.160156 395.261719 531.800781 396.855469 537.792969 L 397.792969 541.3125 C 399.296875 546.945312 398.289062 555.78125 395.664062 563.003906 C 393.082031 570.132812 387.089844 575.675781 379.542969 577.148438 C 377.679688 577.511719 375.714844 577.632812 373.800781 577.324219 C 344.214844 572.558594 254 552.386719 188.78125 594.667969 C 131.519531 631.78125 94.613281 559.261719 79.449219 519.621094 " fill-opacity="1" fillRule="nonzero"/><path fill="#e45f55" d="M 509.511719 629.019531 C 504.871094 624.285156 497.84375 622.691406 491.546875 624.871094 C 461.132812 635.398438 362.023438 667.785156 345.132812 648.890625 C 335.492188 638.105469 313.164062 605.964844 288.914062 576.816406 C 273.21875 557.941406 256.714844 540.328125 242.335938 530.570312 C 199.484375 501.488281 84.257812 509.625 84.257812 509.625 C 84.257812 509.625 181.738281 726.53125 271.246094 751.425781 C 286.644531 755.710938 300.023438 758.25 311.894531 759.445312 C 356.617188 763.941406 379.960938 749.335938 409.394531 736.804688 C 453.347656 718.097656 520.964844 671.523438 520.949219 655.011719 C 520.933594 643.355469 514.996094 634.613281 509.511719 629.019531 " fill-opacity="1" fillRule="nonzero"/><path fill="#e45f55" d="M 202.484375 761.867188 C 220.105469 766.707031 278.167969 778.3125 350.980469 780.210938 C 290.238281 747.1875 273.867188 685.980469 273.867188 685.980469 C 325.105469 679.839844 273.535156 583.039062 253.5 547.21875 C 242.398438 527.367188 212.101562 510.957031 191.578125 500.65625 C 146.902344 478.234375 70.015625 462.933594 40.449219 494.332031 C 27.511719 508.074219 25.039062 520.410156 25.023438 541.984375 C 25.019531 545.917969 25.4375 549.847656 26.226562 553.707031 C 58.835938 712.878906 140.441406 744.816406 202.484375 761.867188 " fill-opacity="1" fillRule="nonzero"/><path fill="#f6d7d3" d="M 303.230469 593.734375 C 302.820312 593.734375 302.414062 593.554688 302.144531 593.210938 C 282.328125 568.136719 261.558594 548.414062 240.417969 534.59375 C 228.628906 526.890625 213.726562 520.539062 198.457031 516.710938 C 197.714844 516.527344 197.265625 515.773438 197.453125 515.035156 C 197.636719 514.292969 198.382812 513.84375 199.128906 514.03125 C 214.691406 517.929688 229.894531 524.410156 241.933594 532.277344 C 263.324219 546.261719 284.308594 566.1875 304.3125 591.5 C 304.789062 592.09375 304.683594 592.960938 304.085938 593.4375 C 303.832031 593.640625 303.53125 593.734375 303.230469 593.734375 " fill-opacity="1" fillRule="nonzero"/><path fill="#f6d7d3" d="M 331.75 765.863281 C 331.703125 765.863281 331.648438 765.863281 331.597656 765.855469 C 317.480469 764.3125 305.441406 761.773438 291.347656 757.378906 C 252.054688 745.125 191.90625 676.582031 162.5 622.734375 C 162.132812 622.0625 162.382812 621.222656 163.050781 620.855469 C 163.722656 620.492188 164.558594 620.738281 164.925781 621.40625 C 194.078125 674.792969 253.507812 742.679688 292.171875 754.742188 C 306.085938 759.078125 317.964844 761.582031 331.898438 763.109375 C 332.660156 763.191406 333.207031 763.875 333.125 764.632812 C 333.046875 765.339844 332.445312 765.863281 331.75 765.863281 " fill-opacity="1" fillRule="nonzero"/><path fill="#ffffff" d="M 456.730469 578.929688 C 459.597656 579.179688 463.015625 579.390625 468.308594 578.03125 L 509.285156 566.730469 C 512.847656 565.808594 514.9375 562.167969 513.917969 558.679688 C 513.917969 558.679688 512.464844 553.019531 506.128906 554.210938 C 503.605469 554.6875 489.253906 559.0625 487.550781 559.066406 C 484.820312 559.074219 483.445312 557.136719 484.296875 554.570312 C 484.730469 553.253906 485.078125 552.046875 485.363281 551 C 486.039062 548.480469 488.039062 546.53125 490.578125 545.847656 C 495.730469 544.464844 511.152344 541.296875 513.328125 540.285156 C 516.558594 538.785156 521.347656 537.09375 522.902344 533.746094 L 523.296875 532.875 C 524.871094 529.386719 522.089844 525.511719 518.242188 525.839844 L 480.953125 529.292969 C 476.175781 529.695312 471.675781 531.726562 468.234375 535.03125 L 450.414062 552.125 C 446.398438 555.980469 440.5 557.203125 435.261719 555.269531 L 389.953125 535.625 C 376.515625 530.585938 368.976562 555.933594 368.976562 555.933594 C 367.746094 563.679688 373.375 570.957031 380.898438 572.039062 L 456.730469 578.929688 " fill-opacity="1" fillRule="nonzero"/><path fill="#000000" d="M 456.859375 577.550781 C 459.910156 577.820312 463.054688 577.953125 467.960938 576.695312 L 508.917969 565.398438 C 510.308594 565.039062 511.445312 564.171875 512.132812 562.953125 C 512.8125 561.765625 512.972656 560.382812 512.589844 559.066406 C 512.457031 558.578125 511.25 554.652344 506.386719 555.570312 C 505.402344 555.753906 502.300781 556.628906 499.019531 557.550781 C 491.769531 559.59375 488.574219 560.449219 487.5625 560.449219 C 487.550781 560.449219 487.542969 560.449219 487.535156 560.449219 C 485.777344 560.449219 484.332031 559.796875 483.46875 558.601562 C 482.601562 557.40625 482.425781 555.816406 482.980469 554.136719 C 483.359375 552.988281 483.714844 551.808594 484.027344 550.640625 C 484.824219 547.671875 487.203125 545.324219 490.222656 544.515625 C 492.265625 543.964844 495.847656 543.148438 499.640625 542.289062 C 504.949219 541.082031 511.554688 539.582031 512.742188 539.03125 C 513.203125 538.820312 513.691406 538.601562 514.195312 538.375 C 517.019531 537.128906 520.53125 535.570312 521.648438 533.164062 L 522.039062 532.300781 C 522.566406 531.132812 522.4375 529.804688 521.695312 528.757812 C 520.933594 527.679688 519.6875 527.117188 518.359375 527.214844 L 481.082031 530.664062 C 476.617188 531.046875 472.398438 532.953125 469.191406 536.03125 L 451.371094 553.125 C 447 557.324219 440.484375 558.679688 434.78125 556.570312 L 389.402344 536.894531 C 387.15625 536.054688 384.972656 536.164062 382.792969 537.246094 C 375.210938 541.011719 370.710938 555.019531 370.328125 556.246094 C 369.832031 559.519531 370.671875 562.824219 372.691406 565.5625 C 374.734375 568.335938 377.796875 570.195312 381.09375 570.667969 Z M 460.308594 580.496094 C 458.980469 580.496094 457.773438 580.40625 456.613281 580.308594 L 456.609375 580.308594 L 380.773438 573.414062 C 376.675781 572.828125 372.945312 570.570312 370.464844 567.207031 C 367.984375 563.839844 366.96875 559.753906 367.613281 555.71875 C 367.621094 555.65625 367.632812 555.597656 367.652344 555.539062 C 367.851562 554.875 372.59375 539.230469 381.558594 534.773438 C 384.425781 533.34375 387.417969 533.199219 390.4375 534.335938 L 435.808594 554.003906 C 440.457031 555.714844 445.84375 554.601562 449.460938 551.132812 L 467.273438 534.035156 C 470.9375 530.519531 475.757812 528.34375 480.835938 527.914062 L 518.117188 524.464844 C 520.441406 524.253906 522.621094 525.273438 523.953125 527.160156 C 525.269531 529.019531 525.492188 531.367188 524.554688 533.441406 L 524.164062 534.320312 C 522.597656 537.679688 518.5625 539.472656 515.320312 540.90625 C 514.828125 541.125 514.355469 541.332031 513.910156 541.542969 C 512.554688 542.167969 507.625 543.3125 500.253906 544.988281 C 496.488281 545.84375 492.929688 546.648438 490.9375 547.183594 C 488.867188 547.738281 487.242188 549.34375 486.695312 551.359375 C 486.371094 552.578125 486.003906 553.800781 485.605469 555.003906 C 485.339844 555.816406 485.371094 556.519531 485.707031 556.980469 C 486.035156 557.433594 486.683594 557.683594 487.535156 557.683594 C 487.539062 557.683594 487.542969 557.683594 487.546875 557.683594 C 488.464844 557.652344 494.367188 555.988281 498.269531 554.890625 C 501.757812 553.910156 504.769531 553.058594 505.875 552.855469 C 511.890625 551.71875 514.636719 555.941406 515.253906 558.332031 C 515.839844 560.328125 515.589844 562.46875 514.539062 564.324219 C 513.472656 566.195312 511.734375 567.527344 509.632812 568.066406 L 468.675781 579.367188 C 465.28125 580.234375 462.613281 580.496094 460.308594 580.496094 " fill-opacity="1" fillRule="nonzero"/><path fill="#ffffff" d="M 408.582031 574.082031 C 402.707031 563.421875 410.425781 550.949219 414.617188 545.421875 C 415.773438 543.886719 415.246094 541.699219 413.5 540.875 L 404.613281 536.660156 C 403.398438 536.085938 401.949219 536.367188 401.035156 537.347656 C 395.675781 543.078125 379.425781 562.757812 394.210938 576.78125 C 394.695312 577.246094 395.34375 577.519531 396.015625 577.585938 L 405.585938 578.511719 C 408.019531 578.75 409.75 576.199219 408.582031 574.082031 " fill-opacity="1" fillRule="nonzero"/><path fill="#000000" d="M 403.296875 537.746094 C 402.832031 537.746094 402.382812 537.933594 402.046875 538.289062 C 396.929688 543.765625 381.308594 562.640625 395.160156 575.78125 C 395.410156 576.015625 395.769531 576.171875 396.148438 576.207031 L 405.722656 577.136719 C 406.355469 577.195312 406.953125 576.917969 407.304688 576.386719 C 407.460938 576.144531 407.789062 575.5 407.375 574.75 C 401.019531 563.226562 409.554688 549.820312 413.511719 544.585938 C 413.816406 544.191406 413.921875 543.6875 413.804688 543.210938 C 413.683594 542.726562 413.367188 542.339844 412.90625 542.125 L 404.023438 537.910156 C 403.789062 537.800781 403.542969 537.746094 403.296875 537.746094 Z M 405.894531 579.910156 C 405.746094 579.910156 405.601562 579.902344 405.453125 579.890625 L 395.882812 578.960938 C 394.890625 578.867188 393.953125 578.449219 393.257812 577.789062 C 377.558594 562.890625 394.46875 542.34375 400.027344 536.402344 C 401.363281 534.972656 403.441406 534.578125 405.207031 535.414062 L 414.09375 539.625 C 415.300781 540.195312 416.175781 541.265625 416.488281 542.558594 C 416.808594 543.84375 416.523438 545.191406 415.722656 546.257812 C 412.085938 551.058594 404.226562 563.3125 409.796875 573.414062 C 410.585938 574.851562 410.519531 576.527344 409.613281 577.90625 C 408.785156 579.167969 407.386719 579.910156 405.894531 579.910156 " fill-opacity="1" fillRule="nonzero"/><path fill="#f6d7d3" d="M 412.746094 552.785156 C 412.746094 559.144531 407.503906 564.300781 401.035156 564.300781 C 394.566406 564.300781 389.328125 559.144531 389.328125 552.785156 C 389.328125 546.425781 394.566406 541.273438 401.035156 541.273438 C 407.503906 541.273438 412.746094 546.425781 412.746094 552.785156 " fill-opacity="1" fillRule="nonzero"/><path fill="#000000" d="M 401.035156 542.65625 C 395.339844 542.65625 390.710938 547.199219 390.710938 552.785156 C 390.710938 558.375 395.339844 562.921875 401.035156 562.921875 C 406.730469 562.921875 411.363281 558.375 411.363281 552.785156 C 411.363281 547.199219 406.730469 542.65625 401.035156 542.65625 Z M 401.035156 565.683594 C 393.816406 565.683594 387.945312 559.898438 387.945312 552.785156 C 387.945312 545.675781 393.816406 539.894531 401.035156 539.894531 C 408.257812 539.894531 414.132812 545.675781 414.132812 552.785156 C 414.132812 559.898438 408.257812 565.683594 401.035156 565.683594 " fill-opacity="1" fillRule="nonzero"/><path fill="#ffffff" d="M 92.660156 510.367188 L 87.386719 410.0625 L 155.414062 449.410156 L 159.527344 504.761719 C 160.132812 517.125 150.148438 524.890625 150.148438 524.890625 C 137.863281 535.535156 119.332031 535.355469 105.164062 527.300781 L 101.878906 525.433594 C 96.390625 522.3125 92.910156 516.625 92.660156 510.367188 " fill-opacity="1" fillRule="nonzero"/><path fill="#000000" d="M 88.902344 412.53125 L 94.042969 510.292969 C 94.042969 510.300781 94.042969 510.304688 94.042969 510.316406 C 94.273438 516.125 97.457031 521.328125 102.5625 524.230469 L 105.847656 526.097656 C 120.347656 534.34375 138.191406 533.417969 149.242188 523.84375 C 149.390625 523.730469 158.707031 516.296875 158.148438 504.828125 L 154.089844 450.242188 Z M 126.878906 534.578125 C 119.402344 534.578125 111.632812 532.570312 104.480469 528.503906 L 101.199219 526.636719 C 95.257812 523.261719 91.550781 517.203125 91.277344 510.429688 L 86.003906 410.132812 C 85.980469 409.625 86.234375 409.144531 86.664062 408.878906 C 87.097656 408.617188 87.640625 408.613281 88.078125 408.863281 L 156.105469 448.214844 C 156.5 448.445312 156.757812 448.855469 156.792969 449.308594 L 160.90625 504.65625 C 161.539062 517.625 151.425781 525.648438 150.996094 525.984375 C 144.421875 531.683594 135.859375 534.578125 126.878906 534.578125 " fill-opacity="1" fillRule="nonzero"/><path fill="#000000" d="M 185.734375 319.976562 C 168.84375 316.523438 187.742188 336.859375 127.394531 309.601562 C 103.363281 298.75 111.851562 329.339844 105.613281 326.542969 C 82.5625 316.203125 76.242188 313.621094 64.058594 314.929688 C 55.996094 315.800781 37.339844 328.484375 38.40625 339.160156 C 41.898438 373.988281 58.394531 367.324219 64.441406 398.144531 C 68.6875 419.785156 73.65625 426.914062 81.621094 431.148438 C 89.675781 435.421875 97.585938 425.144531 106.738281 429.167969 C 118.582031 434.375 113.082031 454.988281 123.828125 465.449219 C 130.597656 472.039062 147.851562 477.160156 178.070312 467.792969 C 182.96875 466.28125 186.066406 461.519531 185.417969 456.484375 C 184.585938 450.027344 183.496094 441.882812 181.792969 434.183594 C 173.667969 397.480469 162.207031 387.777344 168.089844 379.433594 C 177.105469 366.65625 202.546875 378.460938 208.605469 367.769531 C 214.898438 356.660156 208.859375 324.710938 185.734375 319.976562 " fill-opacity="1" fillRule="nonzero"/><path fill="#ffffff" d="M 117.554688 371.171875 L 121.074219 380.675781 C 122.765625 385.246094 124.152344 389.921875 125.1875 394.679688 C 127.121094 403.535156 131.054688 418.652344 133.164062 427.175781 C 139.929688 454.53125 176.40625 430.890625 176.40625 430.890625 L 179.691406 424.117188 L 184.292969 423.011719 C 185.128906 422.8125 185.9375 422.457031 186.578125 421.890625 C 188.332031 420.332031 188.71875 417.925781 187.761719 415.988281 C 183.1875 406.730469 174.359375 387.296875 171.027344 369.214844 C 170.230469 364.898438 166.777344 361.507812 162.394531 360.667969 C 152.605469 358.796875 134.875 358.097656 117.554688 371.171875 " fill-opacity="1" fillRule="nonzero"/><path fill="#000000" d="M 119.210938 371.664062 L 122.371094 380.191406 C 124.105469 384.882812 125.507812 389.65625 126.539062 394.386719 C 127.933594 400.785156 130.425781 410.648438 132.429688 418.574219 C 133.203125 421.652344 133.925781 424.5 134.503906 426.84375 C 135.902344 432.503906 138.765625 436.222656 143.007812 437.902344 C 154.433594 442.433594 172.699219 431.566406 175.332031 429.933594 L 178.449219 423.511719 C 178.628906 423.136719 178.96875 422.867188 179.371094 422.773438 L 183.972656 421.667969 C 184.675781 421.496094 185.242188 421.226562 185.660156 420.855469 C 186.890625 419.761719 187.238281 418.046875 186.519531 416.601562 C 181.652344 406.738281 172.992188 387.503906 169.664062 369.46875 C 168.980469 365.746094 165.953125 362.757812 162.136719 362.027344 C 153.292969 360.335938 136.070312 359.382812 119.210938 371.664062 Z M 149.335938 441.761719 C 146.773438 441.761719 144.28125 441.378906 141.992188 440.476562 C 136.871094 438.449219 133.445312 434.085938 131.820312 427.507812 C 131.238281 425.164062 130.523438 422.324219 129.746094 419.25 C 127.738281 411.304688 125.242188 401.414062 123.835938 394.976562 C 122.832031 390.371094 121.46875 385.71875 119.777344 381.152344 L 116.257812 371.648438 C 116.046875 371.074219 116.234375 370.429688 116.722656 370.0625 C 134.695312 356.503906 153.214844 357.503906 162.65625 359.3125 C 167.585938 360.253906 171.492188 364.132812 172.382812 368.964844 C 175.648438 386.671875 184.195312 405.640625 189 415.371094 C 190.277344 417.957031 189.671875 420.992188 187.496094 422.925781 C 186.734375 423.597656 185.765625 424.082031 184.617188 424.355469 L 180.652344 425.308594 L 177.648438 431.496094 C 177.539062 431.722656 177.367188 431.914062 177.15625 432.050781 C 176.429688 432.523438 162 441.761719 149.335938 441.761719 " fill-opacity="1" fillRule="nonzero"/><path fill="#ffffff" d="M 119.886719 403.347656 C 119.886719 403.347656 111.335938 380.152344 101.484375 386.1875 C 91.636719 392.222656 101.699219 417.527344 119.886719 403.347656 " fill-opacity="1" fillRule="nonzero"/><path fill="#000000" d="M 170.832031 386.222656 C 166.839844 383.804688 162.75 385.253906 161.460938 387.503906 C 154.140625 400.273438 158.335938 410.925781 161.84375 411.753906 C 167.605469 413.121094 172.734375 409.945312 173.890625 396.542969 C 174.429688 390.257812 172.945312 387.503906 170.832031 386.222656 " fill-opacity="1" fillRule="nonzero"/><path fill="#000000" d="M 166.191406 386.230469 C 166.183594 386.230469 166.171875 386.230469 166.164062 386.230469 L 111.945312 385.089844 C 111.183594 385.074219 110.574219 384.445312 110.59375 383.679688 C 110.609375 382.914062 111.25 382.34375 112.003906 382.328125 L 166.222656 383.464844 C 166.984375 383.480469 167.59375 384.109375 167.574219 384.875 C 167.558594 385.628906 166.941406 386.230469 166.191406 386.230469 " fill-opacity="1" fillRule="nonzero"/><path fill="#000000" d="M 177.429688 388.046875 C 177.429688 388.046875 188.277344 381.898438 191.292969 389.257812 C 194.9375 398.15625 189.085938 409.269531 186.910156 409.902344 L 177.429688 388.046875 " fill-opacity="1" fillRule="nonzero"/><path fill="#ffffff" d="M 436.96875 167.574219 C 436.96875 203.410156 407.921875 232.460938 372.085938 232.460938 C 336.25 232.460938 307.203125 203.410156 307.203125 167.574219 C 307.203125 131.742188 336.25 102.691406 372.085938 102.691406 C 407.921875 102.691406 436.96875 131.742188 436.96875 167.574219 " fill-opacity="1" fillRule="nonzero"/><path fill="#000000" d="M 372.089844 104.066406 C 337.074219 104.066406 308.589844 132.558594 308.589844 167.570312 C 308.589844 202.585938 337.074219 231.070312 372.089844 231.070312 C 407.097656 231.070312 435.589844 202.585938 435.589844 167.570312 C 435.589844 132.558594 407.097656 104.066406 372.089844 104.066406 Z M 372.089844 233.835938 C 335.550781 233.835938 305.820312 204.105469 305.820312 167.570312 C 305.820312 131.03125 335.550781 101.304688 372.089844 101.304688 C 408.628906 101.304688 438.355469 131.03125 438.355469 167.570312 C 438.355469 204.105469 408.628906 233.835938 372.089844 233.835938 " fill-opacity="1" fillRule="nonzero"/><path fill="#e45f55" d="M 402.816406 154.257812 L 387.980469 154.257812 L 387.78125 153.269531 L 387.78125 153.285156 L 360.285156 140.28125 C 358.957031 139.65625 357.46875 140.660156 357.453125 142.164062 L 357.011719 187.414062 C 357 188.957031 358.347656 190.03125 359.769531 189.5 L 387.464844 179.117188 L 387.429688 178.671875 L 387.390625 178.226562 L 402.964844 178.226562 C 404.28125 178.226562 405.355469 177.855469 405.375 176.507812 L 405.585938 156.546875 C 405.605469 154.964844 404.367188 154.257812 402.816406 154.257812 " fill-opacity="1" fillRule="nonzero"/><path fill="#e45f55" d="M 349.980469 147.332031 C 349.921875 148.027344 349.660156 148.714844 349.1875 149.257812 C 344.808594 154.273438 342.34375 159.804688 341.859375 165.695312 C 341.375 171.589844 342.902344 177.429688 346.40625 183.039062 C 347.253906 184.398438 346.953125 186.316406 345.734375 187.320312 C 344.515625 188.320312 342.839844 188.03125 341.984375 186.671875 C 337.796875 179.957031 335.902344 172.566406 336.5 165.296875 C 337.101562 158.019531 340.179688 151.003906 345.417969 145.007812 C 346.480469 143.785156 348.179688 143.753906 349.222656 144.925781 C 349.800781 145.578125 350.050781 146.464844 349.980469 147.332031 " fill-opacity="1" fillRule="nonzero"/><path fill="#e45f55" d="M 340.90625 139.523438 C 340.847656 140.230469 340.578125 140.925781 340.09375 141.464844 C 333.804688 148.554688 330.265625 156.394531 329.574219 164.765625 C 328.886719 173.136719 331.097656 181.414062 336.152344 189.359375 C 337.011719 190.710938 336.726562 192.625 335.511719 193.640625 C 334.300781 194.660156 332.621094 194.382812 331.761719 193.03125 C 328.949219 188.609375 326.875 183.972656 325.597656 179.261719 C 324.273438 174.351562 323.804688 169.339844 324.21875 164.359375 C 324.625 159.382812 325.90625 154.503906 328.023438 149.855469 C 330.050781 145.390625 332.851562 141.128906 336.359375 137.175781 C 337.429688 135.972656 339.132812 135.953125 340.164062 137.136719 C 340.730469 137.789062 340.980469 138.667969 340.90625 139.523438 " fill-opacity="1" fillRule="nonzero"/><path fill="#e45f55" d="M 367.71875 201.066406 L 373.703125 203.234375 L 398.203125 134.238281 L 392.222656 132.074219 L 367.71875 201.066406 " fill-opacity="1" fillRule="nonzero"/><path fill="#ffffff" d="M 369.480469 200.242188 L 372.859375 201.464844 L 396.4375 135.074219 L 393.0625 133.851562 Z M 374.53125 205.011719 L 365.957031 201.90625 L 391.382812 130.304688 L 399.964844 133.410156 L 374.53125 205.011719 " fill-opacity="1" fillRule="nonzero"/><path fill="#ffffff" d="M 696.65625 261.503906 C 696.65625 297.339844 667.609375 326.386719 631.773438 326.386719 C 595.9375 326.386719 566.890625 297.339844 566.890625 261.503906 C 566.890625 225.671875 595.9375 196.621094 631.773438 196.621094 C 667.609375 196.621094 696.65625 225.671875 696.65625 261.503906 " fill-opacity="1" fillRule="nonzero"/><path fill="#000000" d="M 631.769531 198.003906 C 596.753906 198.003906 568.269531 226.496094 568.269531 261.511719 C 568.269531 296.523438 596.753906 325.003906 631.769531 325.003906 C 666.785156 325.003906 695.269531 296.523438 695.269531 261.511719 C 695.269531 226.496094 666.785156 198.003906 631.769531 198.003906 Z M 631.769531 327.769531 C 595.230469 327.769531 565.507812 298.046875 565.507812 261.511719 C 565.507812 224.972656 595.230469 195.242188 631.769531 195.242188 C 668.308594 195.242188 698.039062 224.972656 698.039062 261.511719 C 698.039062 298.046875 668.308594 327.769531 631.769531 327.769531 " fill-opacity="1" fillRule="nonzero"/><path fill="#e45f55" d="M 653.433594 272.109375 L 643.515625 270.789062 L 643.917969 231.613281 L 654.289062 232.449219 L 654.191406 271.453125 C 654.191406 271.859375 653.84375 272.160156 653.433594 272.109375 " fill-opacity="1" fillRule="nonzero"/><path fill="#e45f55" d="M 653.429688 265.433594 L 617.601562 265.367188 C 616.824219 265.367188 616.164062 265.824219 615.910156 266.535156 L 604.1875 298.871094 L 610.476562 301.527344 L 622.320312 273.339844 C 622.628906 272.605469 623.335938 272.140625 624.152344 272.140625 L 653.382812 272.140625 C 653.667969 272.140625 653.886719 271.902344 653.871094 271.617188 L 653.429688 265.433594 " fill-opacity="1" fillRule="nonzero"/><path fill="#e45f55" d="M 610.753906 301.15625 C 610.371094 302.09375 609.277344 302.496094 608.304688 302.050781 L 597.546875 297.113281 C 596.539062 296.65625 596.03125 295.484375 596.425781 294.5 L 596.988281 293.0625 C 597.421875 291.980469 598.675781 291.511719 599.796875 292.019531 L 612.230469 297.269531 L 610.753906 301.15625 " fill-opacity="1" fillRule="nonzero"/><path fill="#e45f55" d="M 646.105469 255.242188 L 620.675781 255.242188 C 620.214844 255.242188 619.820312 254.867188 619.785156 254.410156 L 619.542969 251.046875 C 619.511719 250.585938 619.855469 250.214844 620.3125 250.214844 L 645.746094 250.214844 C 646.199219 250.214844 646.597656 250.585938 646.632812 251.046875 L 646.871094 254.410156 C 646.90625 254.867188 646.554688 255.242188 646.105469 255.242188 " fill-opacity="1" fillRule="nonzero"/><path fill="#e45f55" d="M 656.265625 221.691406 C 657.113281 225.757812 654.554688 229.511719 650.550781 230.074219 C 646.542969 230.632812 642.601562 227.792969 641.757812 223.726562 C 640.902344 219.65625 643.460938 215.902344 647.472656 215.34375 C 651.480469 214.78125 655.414062 217.621094 656.265625 221.691406 " fill-opacity="1" fillRule="nonzero"/><path fill="#e45f55" d="M 666.226562 262.777344 C 664.964844 260.816406 663.054688 258.3125 660.472656 256.074219 C 659.902344 255.585938 658.957031 254.699219 657.453125 253.703125 L 657.476562 261.800781 C 661.378906 265.5625 663.621094 270.953125 663.988281 276.109375 C 664.792969 287.3125 656.480469 296.421875 645.335938 296.421875 C 638.515625 296.421875 631.761719 292.777344 627.472656 287.191406 C 626.519531 285.957031 625.75 284.640625 625.085938 283.242188 C 625.085938 283.242188 623.617188 280.703125 623.34375 277.261719 L 619.8125 285.0625 C 620.636719 286.832031 621.476562 288.394531 622.386719 289.464844 C 627.632812 297.34375 636.378906 302.085938 645.5 302.085938 C 651.421875 302.085938 657.292969 300.242188 661.632812 296.5 C 665.910156 292.808594 669.132812 287.292969 670.007812 281.558594 C 671.011719 274.929688 669.992188 268.632812 666.226562 262.777344 " fill-opacity="1" fillRule="nonzero"/><path fill="#e45f55" d="M 587.519531 161.835938 C 587.519531 197.671875 558.472656 226.722656 522.636719 226.722656 C 486.800781 226.722656 457.753906 197.671875 457.753906 161.835938 C 457.753906 126.003906 486.800781 96.953125 522.636719 96.953125 C 558.472656 96.953125 587.519531 126.003906 587.519531 161.835938 " fill-opacity="1" fillRule="nonzero"/><path fill="#ffffff" d="M 573.167969 164.484375 C 540.675781 130.503906 507.113281 130.210938 472.457031 164.933594 C 496.898438 194.953125 543.832031 199.433594 573.167969 164.484375 " fill-opacity="1" fillRule="nonzero"/><path fill="#e45f55" d="M 474.328125 165.023438 C 486.425781 179.320312 503.816406 187.578125 522.234375 187.710938 C 540.832031 187.824219 558.210938 179.636719 571.300781 164.542969 C 555.8125 148.644531 539.964844 140.5 524.195312 140.332031 C 507.917969 140.160156 491.148438 148.460938 474.328125 165.023438 Z M 522.699219 190.476562 C 522.535156 190.476562 522.375 190.476562 522.214844 190.476562 C 502.554688 190.332031 484.027344 181.339844 471.382812 165.808594 C 470.933594 165.257812 470.972656 164.460938 471.472656 163.957031 C 489.144531 146.257812 506.863281 137.355469 524.226562 137.566406 C 541.058594 137.75 557.863281 146.484375 574.164062 163.53125 C 574.652344 164.039062 574.679688 164.835938 574.222656 165.375 C 560.628906 181.574219 542.34375 190.476562 522.699219 190.476562 " fill-opacity="1" fillRule="nonzero"/><path fill="#e45f55" d="M 541.285156 164.652344 C 541.285156 174.511719 533.289062 182.503906 523.4375 182.503906 C 513.578125 182.503906 505.582031 174.511719 505.582031 164.652344 C 505.582031 154.792969 513.578125 146.800781 523.4375 146.800781 C 533.289062 146.800781 541.285156 154.792969 541.285156 164.652344 " fill-opacity="1" fillRule="nonzero"/><path fill="#ffffff" d="M 507.007812 193.917969 L 512.183594 196.558594 L 543.109375 135.878906 L 537.933594 133.246094 L 507.007812 193.917969 " fill-opacity="1" fillRule="nonzero"/><path fill="#e45f55" d="M 508.875 193.316406 L 511.582031 194.691406 L 541.25 136.480469 L 538.546875 135.101562 Z M 512.1875 197.933594 C 511.96875 197.933594 511.753906 197.886719 511.554688 197.785156 L 506.382812 195.148438 C 505.707031 194.800781 505.433594 193.96875 505.78125 193.289062 L 536.707031 132.613281 C 537.054688 131.933594 537.886719 131.664062 538.570312 132.007812 L 543.738281 134.640625 C 544.066406 134.8125 544.3125 135.101562 544.425781 135.449219 C 544.542969 135.796875 544.511719 136.175781 544.34375 136.503906 L 513.414062 197.179688 C 513.25 197.507812 512.960938 197.757812 512.613281 197.867188 C 512.472656 197.914062 512.328125 197.933594 512.1875 197.933594 " fill-opacity="1" fillRule="nonzero"/><path fill="#e45f55" d="M 712.84375 405.972656 C 712.84375 441.808594 683.792969 470.855469 647.960938 470.855469 C 612.125 470.855469 583.078125 441.808594 583.078125 405.972656 C 583.078125 370.136719 612.125 341.089844 647.960938 341.089844 C 683.792969 341.089844 712.84375 370.136719 712.84375 405.972656 " fill-opacity="1" fillRule="nonzero"/><path fill="#ffffff" d="M 666.671875 407.523438 C 664.867188 419.539062 659.949219 426.015625 655.804688 434.648438 C 651.453125 443.730469 651.007812 451.066406 639.316406 451.761719 C 631.933594 452.199219 625.25 446.472656 622.359375 437.78125 C 619.609375 429.53125 620.585938 418.648438 616.324219 405.8125 C 605.523438 373.226562 629.101562 355.578125 643.6875 360.308594 C 666.835938 367.8125 668.859375 392.890625 666.671875 407.523438 " fill-opacity="1" fillRule="nonzero"/><path fill="#e45f55" d="M 638.371094 436.300781 C 637.945312 436.300781 637.535156 436.109375 637.261719 435.75 C 635.558594 433.484375 630.761719 432.03125 626.578125 432.5 C 625.816406 432.582031 625.136719 432.039062 625.046875 431.277344 C 624.964844 430.519531 625.507812 429.832031 626.265625 429.75 C 630.710938 429.246094 636.847656 430.601562 639.472656 434.085938 C 639.929688 434.699219 639.808594 435.5625 639.199219 436.023438 C 638.949219 436.207031 638.652344 436.300781 638.371094 436.300781 " fill-opacity="1" fillRule="nonzero"/><path fill="#e45f55" d="M 654.355469 426.121094 C 654.105469 426.121094 653.851562 426.054688 653.628906 425.914062 C 652.976562 425.511719 652.773438 424.660156 653.175781 424.011719 C 665.191406 404.574219 661.667969 381.105469 651 372.199219 C 644.277344 366.589844 635.148438 365.59375 631.132812 367.023438 C 625.445312 369.058594 622.820312 373.480469 621.625 376.828125 C 619.449219 382.890625 620.21875 390.199219 623.617188 395.90625 C 625.863281 399.65625 629.464844 403.917969 631.738281 404.441406 C 632.476562 404.609375 632.945312 405.355469 632.777344 406.097656 C 632.601562 406.84375 631.863281 407.308594 631.117188 407.136719 C 626.601562 406.097656 621.777344 398.214844 621.246094 397.320312 C 617.425781 390.921875 616.578125 382.714844 619.019531 375.898438 C 621 370.371094 624.972656 366.292969 630.207031 364.421875 C 635.519531 362.515625 645.65625 364.136719 652.769531 370.074219 C 665.773438 380.925781 667.066406 406.808594 655.53125 425.460938 C 655.269531 425.882812 654.820312 426.121094 654.355469 426.121094 " fill-opacity="1" fillRule="nonzero"/><path fill="#e45f55" d="M 629.800781 426.695312 C 629.703125 426.695312 629.613281 426.6875 629.519531 426.667969 C 628.769531 426.511719 628.289062 425.777344 628.445312 425.027344 C 629.535156 419.8125 637.144531 411.953125 645.78125 407.144531 C 648.117188 405.839844 649.066406 403.375 649.453125 401.535156 C 650.433594 396.824219 648.925781 390.964844 645.605469 386.601562 C 642.261719 382.21875 636.023438 377.667969 630.261719 378.011719 C 626.421875 378.238281 623.152344 380.605469 620.558594 385.027344 C 620.167969 385.691406 619.324219 385.910156 618.667969 385.523438 C 618.007812 385.136719 617.78125 384.289062 618.167969 383.632812 C 621.261719 378.359375 625.277344 375.539062 630.09375 375.246094 C 636.921875 374.832031 643.914062 379.8125 647.804688 384.929688 C 651.589844 389.898438 653.296875 396.636719 652.15625 402.097656 C 651.4375 405.546875 649.699219 408.121094 647.128906 409.558594 C 638.574219 414.316406 631.960938 421.695312 631.15625 425.59375 C 631.015625 426.25 630.441406 426.695312 629.800781 426.695312 " fill-opacity="1" fillRule="nonzero"/><path fill="#ffffff" d="M 673.578125 397.386719 C 673.019531 397.386719 672.492188 397.042969 672.285156 396.484375 C 672.019531 395.777344 672.378906 394.976562 673.09375 394.710938 L 691.667969 387.742188 C 692.386719 387.472656 693.183594 387.835938 693.453125 388.558594 C 693.71875 389.265625 693.351562 390.066406 692.644531 390.332031 L 674.070312 397.296875 C 673.902344 397.355469 673.746094 397.386719 673.578125 397.386719 " fill-opacity="1" fillRule="nonzero"/><path fill="#ffffff" d="M 695.703125 409.625 L 675.417969 409.625 C 674.65625 409.625 674.039062 409.003906 674.039062 408.246094 C 674.039062 407.480469 674.65625 406.855469 675.417969 406.855469 L 695.703125 406.855469 C 696.464844 406.855469 697.085938 407.480469 697.085938 408.246094 C 697.085938 409.003906 696.464844 409.625 695.703125 409.625 " fill-opacity="1" fillRule="nonzero"/><path fill="#ffffff" d="M 693.898438 426.988281 C 693.734375 426.988281 693.5625 426.953125 693.398438 426.890625 L 675.40625 419.925781 C 674.695312 419.652344 674.339844 418.855469 674.613281 418.140625 C 674.890625 417.429688 675.691406 417.070312 676.40625 417.351562 L 694.398438 424.316406 C 695.109375 424.589844 695.464844 425.386719 695.191406 426.101562 C 694.980469 426.648438 694.449219 426.988281 693.898438 426.988281 " fill-opacity="1" fillRule="nonzero"/><path fill="#ffffff" d="M 482.839844 280.25 L 483.042969 280.078125 L 479.46875 274.171875 C 478.558594 272.671875 476.535156 272.316406 475.167969 273.414062 L 461.875 284.101562 L 400.367188 303.386719 C 397.714844 304.210938 397.109375 307.703125 399.328125 309.382812 L 411.800781 318.835938 C 413.492188 320.121094 413.621094 322.617188 412.074219 324.070312 L 411.5625 324.546875 L 336.765625 384.671875 L 340.796875 392.425781 C 340.847656 393.375 341.28125 394.300781 342.097656 394.941406 L 383.132812 427.050781 C 384.539062 428.152344 386.558594 427.976562 387.757812 426.648438 L 451.554688 356.078125 C 452.792969 354.703125 454.902344 354.570312 456.304688 355.78125 L 471.960938 369.289062 C 474.089844 371.121094 477.402344 369.738281 477.589844 366.9375 L 483.328125 282.261719 C 483.378906 281.515625 483.1875 280.820312 482.839844 280.25 " fill-opacity="1" fillRule="nonzero"/><path fill="#e45f55" d="M 337.8125 382.347656 L 407.128906 317.710938 C 408.660156 316.285156 408.53125 313.820312 406.863281 312.558594 L 394.546875 303.25 C 392.359375 301.601562 392.957031 298.167969 395.570312 297.347656 L 473.121094 273.113281 C 475.386719 272.40625 477.648438 274.195312 477.488281 276.558594 L 471.824219 359.886719 C 471.636719 362.65625 468.371094 364.027344 466.265625 362.214844 L 450.808594 348.921875 C 449.425781 347.730469 447.34375 347.859375 446.113281 349.210938 L 383.125 418.679688 C 381.9375 419.984375 379.945312 420.15625 378.554688 419.070312 L 338.035156 387.472656 C 336.402344 386.195312 336.296875 383.761719 337.8125 382.347656 " fill-opacity="1" fillRule="nonzero"/><path fill="#000000" d="M 337.8125 382.347656 L 337.824219 382.347656 Z M 474.136719 274.339844 C 473.9375 274.339844 473.730469 274.375 473.535156 274.433594 L 395.984375 298.667969 C 395.261719 298.898438 394.746094 299.476562 394.617188 300.226562 C 394.488281 300.972656 394.773438 301.691406 395.378906 302.148438 L 407.695312 311.453125 C 408.820312 312.304688 409.503906 313.59375 409.574219 315 C 409.652344 316.410156 409.097656 317.761719 408.070312 318.722656 L 338.753906 383.359375 L 338.753906 383.363281 C 338.328125 383.753906 338.101562 384.320312 338.125 384.898438 C 338.148438 385.484375 338.429688 386.023438 338.890625 386.382812 L 379.402344 417.980469 C 380.222656 418.617188 381.402344 418.515625 382.09375 417.75 L 445.089844 348.285156 C 446.832031 346.359375 449.742188 346.179688 451.710938 347.875 L 467.167969 361.164062 C 467.75 361.667969 468.519531 361.789062 469.230469 361.492188 C 469.941406 361.195312 470.390625 360.558594 470.445312 359.796875 L 476.109375 276.46875 C 476.152344 275.804688 475.878906 275.183594 475.355469 274.769531 C 474.996094 274.488281 474.570312 274.339844 474.136719 274.339844 Z M 380.617188 421.164062 C 379.59375 421.164062 378.566406 420.832031 377.703125 420.160156 L 337.191406 388.558594 C 336.089844 387.699219 335.421875 386.414062 335.363281 385.019531 C 335.300781 383.628906 335.851562 382.285156 336.867188 381.339844 L 406.183594 316.703125 C 406.613281 316.300781 406.84375 315.734375 406.816406 315.144531 C 406.78125 314.554688 406.496094 314.015625 406.027344 313.660156 L 393.710938 304.359375 C 392.285156 303.277344 391.585938 301.515625 391.898438 299.753906 C 392.203125 297.988281 393.453125 296.5625 395.160156 296.027344 L 472.707031 271.792969 C 474.207031 271.324219 475.835938 271.628906 477.066406 272.601562 C 478.304688 273.574219 478.976562 275.089844 478.867188 276.65625 L 473.207031 359.984375 C 473.082031 361.789062 471.96875 363.347656 470.300781 364.042969 C 468.625 364.742188 466.738281 364.445312 465.363281 363.261719 L 449.90625 349.972656 C 449.082031 349.261719 447.871094 349.339844 447.140625 350.144531 L 384.144531 419.605469 C 383.214844 420.632812 381.921875 421.164062 380.617188 421.164062 " fill-opacity="1" fillRule="nonzero"/><g fill="#fbc906" fill-opacity="1"><g transform="translate(675.62469, 241.697938)"><g><path d="M 3.9375 0.140625 C 3.382812 0.140625 2.945312 -0.015625 2.625 -0.328125 C 2.300781 -0.640625 2.140625 -1.050781 2.140625 -1.5625 C 2.140625 -2.070312 2.300781 -2.488281 2.625 -2.8125 C 2.945312 -3.144531 3.382812 -3.3125 3.9375 -3.3125 C 4.507812 -3.3125 4.953125 -3.15625 5.265625 -2.84375 C 5.585938 -2.53125 5.75 -2.113281 5.75 -1.59375 C 5.75 -1.082031 5.585938 -0.664062 5.265625 -0.34375 C 4.941406 -0.0195312 4.5 0.140625 3.9375 0.140625 Z M 3.9375 0.140625 "/></g></g></g></svg>