<svg xmlns="http://www.w3.org/2000/svg" xmlns:xlink="http://www.w3.org/1999/xlink" width="1080" zoomAndPan="magnify" viewBox="0 0 810 809.999993" height="1080" preserveAspectRatio="xMidYMid meet" version="1.0"><defs><g/><clipPath id="c7e33c062e"><path d="M 466.15625 244.421875 L 791.136719 244.421875 L 791.136719 687.449219 L 466.15625 687.449219 Z M 466.15625 244.421875 " clip-rule="nonzero"/></clipPath><clipPath id="42ff05ea01"><path d="M 216 391.84375 L 578 391.84375 L 578 809.949219 L 216 809.949219 Z M 216 391.84375 " clip-rule="nonzero"/></clipPath></defs><path fill="#4f4c4c" d="M 306.355469 770.730469 C 329.632812 765.222656 344.035156 741.898438 338.527344 718.636719 C 333.019531 695.367188 309.6875 680.96875 286.410156 686.472656 C 263.136719 691.980469 248.734375 715.304688 254.242188 738.570312 C 259.75 761.835938 283.082031 776.238281 306.355469 770.730469 " fill-opacity="1" fillRule="nonzero"/><path fill="#4f4c4c" d="M 577.289062 424.925781 C 577.09375 413.664062 575.875 402.660156 573.742188 391.996094 C 559.6875 477.566406 484.734375 529.386719 396.285156 545.085938 C 274.121094 566.773438 214.679688 630.164062 216.429688 731.210938 C 216.621094 742.46875 234.511719 692.125 272.964844 662.847656 C 365.453125 605.203125 374.09375 808.992188 374.09375 808.992188 C 383.296875 777.875 410.5 643.804688 489.027344 584.667969 C 539.34375 546.777344 578.457031 492.429688 577.289062 424.925781 " fill-opacity="1" fillRule="nonzero"/><path fill="#f14624" d="M 35.777344 412.824219 C 47.535156 433.496094 73.464844 439.621094 93.691406 426.503906 C 113.914062 413.390625 120.777344 385.996094 109.015625 365.324219 C 97.253906 344.648438 71.324219 338.523438 51.101562 351.644531 C 30.875 364.761719 24.015625 392.152344 35.777344 412.824219 " fill-opacity="1" fillRule="nonzero"/><path fill="#f14624" d="M 436.492188 559.144531 C 446.976562 555.183594 456.9375 550.324219 466.320312 544.691406 C 382.195312 559.742188 312.402344 504.582031 272.597656 424.277344 C 217.617188 313.359375 141.390625 277.074219 47.261719 312.597656 C 36.773438 316.554688 88.996094 317.007812 127.320312 344.40625 C 207.550781 414.574219 19.164062 491.160156 19.164062 491.160156 C 50.917969 489.644531 184.183594 471.078125 261.847656 527.242188 C 311.617188 563.230469 373.605469 582.875 436.492188 559.144531 " fill-opacity="1" fillRule="nonzero"/><path fill="#98198e" d="M 294.136719 31.246094 C 278.117188 49.542969 279.742188 76.679688 297.765625 91.851562 C 315.789062 107.023438 343.386719 104.492188 359.40625 86.195312 C 375.429688 67.898438 373.804688 40.765625 355.78125 25.59375 C 337.757812 10.417969 310.160156 12.949219 294.136719 31.246094 " fill-opacity="1" fillRule="nonzero"/><path fill="#98198e" d="M 270.84375 467.875 C 277.527344 476.695312 284.902344 484.707031 292.84375 491.894531 C 254.875 415.554688 286.71875 329.566406 350.625 264.179688 C 438.890625 173.859375 451.234375 87.964844 391.253906 8.800781 C 384.574219 -0.015625 398.972656 50.652344 384.191406 96.898438 C 341.25 198.003906 216.066406 41.40625 216.066406 41.40625 C 226.496094 71.613281 281.707031 194.316406 251.152344 288.253906 C 231.574219 348.441406 230.773438 414.988281 270.84375 467.875 " fill-opacity="1" fillRule="nonzero"/><path fill="#51ade5" d="M 724.785156 153.433594 C 703.105469 144.058594 678.15625 154.714844 669.0625 177.230469 C 659.96875 199.746094 670.171875 225.59375 691.855469 234.964844 C 713.535156 244.339844 738.484375 233.683594 747.578125 211.171875 C 756.671875 188.65625 746.46875 162.804688 724.785156 153.433594 " fill-opacity="1" fillRule="nonzero"/><path fill="#51ade5" d="M 309.300781 277.078125 C 302.9375 286.496094 297.53125 296.3125 293.050781 306.398438 C 353.765625 244.113281 443.320312 246.132812 522.691406 286.058594 C 632.320312 341.207031 716.253906 324.390625 773.363281 239.867188 C 779.730469 230.445312 736.367188 261.339844 688.863281 262.527344 C 582 254.835938 693.117188 81.308594 693.117188 81.308594 C 667.789062 101.511719 568.550781 196 471.917969 197.890625 C 409.996094 199.105469 347.453125 220.605469 309.300781 277.078125 " fill-opacity="1" fillRule="nonzero"/><path fill="#85c536" d="M 732.585938 610.9375 C 735.207031 586.824219 718.148438 566.257812 694.484375 564.996094 C 670.820312 563.738281 649.507812 582.265625 646.886719 606.378906 C 644.261719 630.488281 661.320312 651.058594 684.984375 652.316406 C 708.648438 653.574219 729.960938 635.046875 732.585938 610.9375 " fill-opacity="1" fillRule="nonzero"/><g clip-path="url(#c7e33c062e)"><path fill="#85c536" d="M 498.882812 250.398438 C 488.257812 247.398438 477.53125 245.453125 466.8125 244.5 C 542.371094 282.378906 565.898438 369.691406 551.03125 459.839844 C 530.503906 584.351562 570.070312 659.917969 665.429688 686.867188 C 676.058594 689.871094 634.820312 658.265625 620.226562 612.710938 C 597.105469 506.753906 791.136719 556.15625 791.136719 556.15625 C 765.027344 538.414062 648.382812 474.050781 619.1875 381.203125 C 600.476562 321.707031 562.59375 268.402344 498.882812 250.398438 " fill-opacity="1" fillRule="nonzero"/></g><path fill="#f8bd0a" d="M 306.371094 771.648438 C 329.695312 766.113281 344.113281 742.726562 338.578125 719.414062 C 333.042969 696.097656 309.644531 681.6875 286.324219 687.222656 C 263 692.757812 248.578125 716.140625 254.117188 739.453125 C 259.652344 762.769531 283.050781 777.183594 306.371094 771.648438 " fill-opacity="1" fillRule="nonzero"/><g clip-path="url(#42ff05ea01)"><path fill="#f8bd0a" d="M 577.667969 424.871094 C 577.464844 413.582031 576.238281 402.554688 574.09375 391.867188 C 560.066406 477.644531 484.980469 529.632812 396.34375 545.433594 C 273.917969 567.261719 214.382812 630.839844 216.210938 732.105469 C 216.414062 743.394531 234.308594 692.921875 272.824219 663.554688 C 365.484375 605.710938 374.289062 809.949219 374.289062 809.949219 C 383.492188 778.753906 410.664062 644.367188 489.320312 585.039062 C 539.726562 547.019531 578.890625 492.527344 577.667969 424.871094 " fill-opacity="1" fillRule="nonzero"/></g><g fill="#fbc906" fill-opacity="1"><g transform="translate(675.62469, 241.697938)"><g><path d="M 3.9375 0.140625 C 3.382812 0.140625 2.945312 -0.015625 2.625 -0.328125 C 2.300781 -0.640625 2.140625 -1.050781 2.140625 -1.5625 C 2.140625 -2.070312 2.300781 -2.488281 2.625 -2.8125 C 2.945312 -3.144531 3.382812 -3.3125 3.9375 -3.3125 C 4.507812 -3.3125 4.953125 -3.15625 5.265625 -2.84375 C 5.585938 -2.53125 5.75 -2.113281 5.75 -1.59375 C 5.75 -1.082031 5.585938 -0.664062 5.265625 -0.34375 C 4.941406 -0.0195312 4.5 0.140625 3.9375 0.140625 Z M 3.9375 0.140625 "/></g></g></g></svg>