<svg xmlns="http://www.w3.org/2000/svg" xmlns:xlink="http://www.w3.org/1999/xlink" width="1080" zoomAndPan="magnify" viewBox="0 0 810 809.999993" height="1080" preserveAspectRatio="xMidYMid meet" version="1.0"><defs><g/></defs><path fill="#98d6fc" d="M 732.855469 0 L 308.570312 0 C 307.308594 0 306.046875 0.0625 304.789062 0.1875 C 303.535156 0.308594 302.285156 0.496094 301.046875 0.742188 C 299.808594 0.988281 298.582031 1.292969 297.375 1.660156 C 296.164062 2.027344 294.976562 2.453125 293.8125 2.9375 C 292.644531 3.417969 291.503906 3.960938 290.390625 4.554688 C 289.273438 5.148438 288.191406 5.796875 287.140625 6.5 C 286.09375 7.203125 285.078125 7.953125 284.101562 8.753906 C 283.125 9.558594 282.191406 10.402344 281.296875 11.296875 C 280.402344 12.191406 279.558594 13.125 278.753906 14.101562 C 277.953125 15.078125 277.203125 16.09375 276.5 17.140625 C 275.796875 18.191406 275.148438 19.273438 274.554688 20.390625 C 273.957031 21.503906 273.417969 22.644531 272.9375 23.8125 C 272.453125 24.976562 272.027344 26.164062 271.660156 27.375 C 271.292969 28.582031 270.988281 29.808594 270.742188 31.046875 C 270.496094 32.285156 270.308594 33.535156 270.1875 34.789062 C 270.0625 36.046875 270 37.308594 270 38.570312 L 270 289.285156 C 270 290.550781 270.0625 291.808594 270.1875 293.066406 C 270.308594 294.324219 270.496094 295.570312 270.742188 296.8125 C 270.988281 298.050781 271.292969 299.273438 271.660156 300.480469 C 272.027344 301.691406 272.453125 302.878906 272.9375 304.046875 C 273.417969 305.214844 273.957031 306.355469 274.554688 307.46875 C 275.148438 308.582031 275.796875 309.664062 276.5 310.714844 C 277.203125 311.765625 277.953125 312.777344 278.753906 313.753906 C 279.558594 314.730469 280.402344 315.667969 281.296875 316.558594 C 282.191406 317.453125 283.125 318.300781 284.101562 319.101562 C 285.078125 319.902344 286.09375 320.65625 287.140625 321.355469 C 288.191406 322.058594 289.273438 322.707031 290.390625 323.300781 C 291.503906 323.898438 292.644531 324.4375 293.8125 324.921875 C 294.976562 325.40625 296.164062 325.828125 297.375 326.195312 C 298.582031 326.5625 299.808594 326.871094 301.046875 327.117188 C 302.285156 327.363281 303.535156 327.546875 304.789062 327.671875 C 306.046875 327.796875 307.308594 327.855469 308.570312 327.855469 L 449.550781 327.855469 L 518.59375 405 L 587.441406 327.855469 L 732.855469 327.855469 C 734.121094 327.855469 735.378906 327.796875 736.636719 327.671875 C 737.894531 327.546875 739.144531 327.363281 740.382812 327.117188 C 741.621094 326.871094 742.84375 326.5625 744.054688 326.195312 C 745.261719 325.828125 746.449219 325.40625 747.617188 324.921875 C 748.785156 324.4375 749.925781 323.898438 751.039062 323.300781 C 752.152344 322.707031 753.234375 322.058594 754.285156 321.355469 C 755.335938 320.65625 756.351562 319.902344 757.328125 319.101562 C 758.304688 318.300781 759.238281 317.453125 760.132812 316.558594 C 761.023438 315.667969 761.871094 314.730469 762.671875 313.753906 C 763.472656 312.777344 764.226562 311.765625 764.929688 310.714844 C 765.628906 309.664062 766.277344 308.582031 766.875 307.46875 C 767.46875 306.355469 768.007812 305.214844 768.492188 304.046875 C 768.976562 302.878906 769.402344 301.691406 769.765625 300.480469 C 770.132812 299.273438 770.441406 298.050781 770.6875 296.8125 C 770.933594 295.570312 771.117188 294.324219 771.242188 293.066406 C 771.367188 291.808594 771.429688 290.550781 771.429688 289.285156 L 771.429688 38.570312 C 771.429688 37.308594 771.367188 36.046875 771.242188 34.789062 C 771.117188 33.535156 770.933594 32.285156 770.6875 31.046875 C 770.441406 29.808594 770.132812 28.582031 769.769531 27.375 C 769.402344 26.164062 768.976562 24.976562 768.492188 23.8125 C 768.007812 22.644531 767.46875 21.503906 766.875 20.390625 C 766.277344 19.273438 765.628906 18.191406 764.929688 17.140625 C 764.226562 16.09375 763.476562 15.078125 762.671875 14.101562 C 761.871094 13.125 761.023438 12.191406 760.132812 11.296875 C 759.238281 10.402344 758.304688 9.558594 757.328125 8.753906 C 756.351562 7.953125 755.335938 7.203125 754.285156 6.5 C 753.234375 5.796875 752.152344 5.148438 751.039062 4.554688 C 749.925781 3.957031 748.785156 3.417969 747.617188 2.9375 C 746.449219 2.453125 745.261719 2.027344 744.054688 1.660156 C 742.84375 1.292969 741.621094 0.988281 740.382812 0.742188 C 739.144531 0.496094 737.894531 0.308594 736.636719 0.1875 C 735.378906 0.0625 734.121094 0 732.855469 0 Z M 732.855469 0 " fill-opacity="1" fillRule="nonzero"/><path fill="#446c9e" d="M 771.429688 405 L 347.144531 405 C 345.878906 405 344.621094 405.0625 343.363281 405.1875 C 342.105469 405.308594 340.855469 405.496094 339.617188 405.742188 C 338.378906 405.988281 337.15625 406.292969 335.945312 406.660156 C 334.738281 407.027344 333.550781 407.453125 332.382812 407.9375 C 331.214844 408.417969 330.074219 408.957031 328.960938 409.554688 C 327.847656 410.148438 326.765625 410.796875 325.714844 411.5 C 324.664062 412.203125 323.648438 412.953125 322.671875 413.753906 C 321.695312 414.558594 320.761719 415.402344 319.867188 416.296875 C 318.976562 417.191406 318.128906 418.125 317.328125 419.101562 C 316.523438 420.078125 315.773438 421.09375 315.070312 422.140625 C 314.371094 423.191406 313.722656 424.273438 313.125 425.390625 C 312.53125 426.503906 311.992188 427.644531 311.507812 428.8125 C 311.023438 429.976562 310.597656 431.164062 310.230469 432.375 C 309.867188 433.582031 309.558594 434.808594 309.3125 436.046875 C 309.066406 437.285156 308.882812 438.535156 308.757812 439.789062 C 308.632812 441.046875 308.570312 442.308594 308.570312 443.570312 L 308.570312 694.285156 C 308.570312 695.550781 308.632812 696.808594 308.757812 698.066406 C 308.882812 699.324219 309.066406 700.570312 309.3125 701.8125 C 309.558594 703.050781 309.867188 704.273438 310.230469 705.480469 C 310.597656 706.691406 311.023438 707.878906 311.507812 709.046875 C 311.992188 710.214844 312.53125 711.355469 313.125 712.46875 C 313.722656 713.582031 314.371094 714.664062 315.070312 715.714844 C 315.773438 716.765625 316.523438 717.777344 317.328125 718.753906 C 318.128906 719.730469 318.976562 720.667969 319.867188 721.558594 C 320.761719 722.453125 321.695312 723.300781 322.671875 724.101562 C 323.648438 724.902344 324.664062 725.65625 325.714844 726.355469 C 326.765625 727.058594 327.847656 727.707031 328.960938 728.300781 C 330.074219 728.898438 331.214844 729.4375 332.382812 729.921875 C 333.550781 730.40625 334.738281 730.828125 335.945312 731.195312 C 337.15625 731.5625 338.378906 731.871094 339.617188 732.117188 C 340.855469 732.363281 342.105469 732.546875 343.363281 732.671875 C 344.621094 732.796875 345.878906 732.855469 347.144531 732.855469 L 488.121094 732.855469 L 557.164062 810 L 626.015625 732.855469 L 771.429688 732.855469 C 772.691406 732.855469 773.953125 732.796875 775.210938 732.671875 C 776.464844 732.546875 777.714844 732.363281 778.953125 732.117188 C 780.191406 731.871094 781.417969 731.5625 782.625 731.195312 C 783.835938 730.828125 785.023438 730.40625 786.1875 729.921875 C 787.355469 729.4375 788.496094 728.898438 789.609375 728.300781 C 790.726562 727.707031 791.808594 727.058594 792.859375 726.355469 C 793.90625 725.65625 794.921875 724.902344 795.898438 724.101562 C 796.875 723.300781 797.808594 722.453125 798.703125 721.558594 C 799.597656 720.667969 800.441406 719.730469 801.246094 718.753906 C 802.046875 717.777344 802.796875 716.765625 803.5 715.714844 C 804.203125 714.664062 804.851562 713.582031 805.445312 712.46875 C 806.042969 711.355469 806.582031 710.214844 807.0625 709.046875 C 807.546875 707.878906 807.972656 706.691406 808.339844 705.480469 C 808.707031 704.273438 809.011719 703.050781 809.257812 701.8125 C 809.503906 700.570312 809.691406 699.324219 809.8125 698.066406 C 809.9375 696.808594 810 695.550781 810 694.285156 L 810 443.570312 C 810 442.308594 809.9375 441.046875 809.8125 439.789062 C 809.691406 438.535156 809.503906 437.285156 809.257812 436.046875 C 809.011719 434.808594 808.707031 433.582031 808.339844 432.375 C 807.972656 431.164062 807.546875 429.976562 807.0625 428.8125 C 806.582031 427.644531 806.042969 426.503906 805.445312 425.390625 C 804.851562 424.273438 804.203125 423.191406 803.5 422.140625 C 802.796875 421.09375 802.046875 420.078125 801.246094 419.101562 C 800.441406 418.125 799.597656 417.191406 798.703125 416.296875 C 797.808594 415.402344 796.875 414.558594 795.898438 413.753906 C 794.921875 412.953125 793.90625 412.203125 792.859375 411.5 C 791.808594 410.796875 790.726562 410.148438 789.609375 409.554688 C 788.496094 408.957031 787.355469 408.417969 786.1875 407.9375 C 785.023438 407.453125 783.835938 407.027344 782.625 406.660156 C 781.417969 406.292969 780.191406 405.988281 778.953125 405.742188 C 777.714844 405.496094 776.464844 405.308594 775.210938 405.1875 C 773.953125 405.0625 772.691406 405 771.429688 405 Z M 771.429688 405 " fill-opacity="1" fillRule="nonzero"/><path fill="#fbe639" d="M 675 578.570312 C 675 580.464844 674.953125 582.359375 674.859375 584.25 C 674.769531 586.140625 674.628906 588.027344 674.441406 589.914062 C 674.257812 591.796875 674.023438 593.675781 673.746094 595.550781 C 673.46875 597.421875 673.144531 599.289062 672.777344 601.144531 C 672.40625 603.003906 671.992188 604.851562 671.53125 606.6875 C 671.070312 608.523438 670.566406 610.347656 670.015625 612.160156 C 669.46875 613.972656 668.875 615.769531 668.234375 617.554688 C 667.597656 619.335938 666.917969 621.105469 666.191406 622.851562 C 665.46875 624.601562 664.699219 626.332031 663.890625 628.046875 C 663.082031 629.757812 662.230469 631.449219 661.335938 633.117188 C 660.445312 634.789062 659.511719 636.4375 658.535156 638.058594 C 657.5625 639.683594 656.550781 641.285156 655.5 642.859375 C 654.445312 644.433594 653.355469 645.980469 652.226562 647.503906 C 651.101562 649.023438 649.933594 650.515625 648.734375 651.980469 C 647.53125 653.445312 646.296875 654.878906 645.023438 656.28125 C 643.753906 657.683594 642.445312 659.054688 641.109375 660.394531 C 639.769531 661.734375 638.398438 663.039062 636.996094 664.308594 C 635.589844 665.582031 634.15625 666.816406 632.695312 668.019531 C 631.230469 669.222656 629.738281 670.386719 628.214844 671.515625 C 626.695312 672.640625 625.148438 673.730469 623.574219 674.785156 C 622 675.835938 620.398438 676.847656 618.773438 677.824219 C 617.148438 678.796875 615.503906 679.730469 613.832031 680.621094 C 612.164062 681.515625 610.472656 682.367188 608.761719 683.175781 C 607.046875 683.984375 605.316406 684.753906 603.566406 685.476562 C 601.816406 686.203125 600.050781 686.882812 598.269531 687.519531 C 596.484375 688.160156 594.6875 688.753906 592.875 689.304688 C 591.0625 689.851562 589.238281 690.359375 587.402344 690.816406 C 585.566406 691.277344 583.71875 691.691406 581.859375 692.0625 C 580.003906 692.429688 578.136719 692.753906 576.265625 693.03125 C 574.390625 693.3125 572.511719 693.542969 570.628906 693.726562 C 568.742188 693.914062 566.855469 694.054688 564.964844 694.144531 C 563.070312 694.238281 561.179688 694.285156 559.285156 694.285156 C 557.390625 694.285156 555.5 694.238281 553.609375 694.144531 C 551.714844 694.054688 549.828125 693.914062 547.945312 693.726562 C 546.058594 693.542969 544.179688 693.3125 542.308594 693.03125 C 540.433594 692.753906 538.566406 692.429688 536.710938 692.0625 C 534.851562 691.691406 533.007812 691.277344 531.167969 690.816406 C 529.332031 690.359375 527.507812 689.851562 525.695312 689.304688 C 523.882812 688.753906 522.085938 688.160156 520.300781 687.519531 C 518.519531 686.882812 516.753906 686.203125 515.003906 685.476562 C 513.253906 684.753906 511.523438 683.984375 509.8125 683.175781 C 508.097656 682.367188 506.410156 681.515625 504.738281 680.621094 C 503.066406 679.730469 501.421875 678.796875 499.796875 677.824219 C 498.171875 676.847656 496.574219 675.835938 495 674.785156 C 493.421875 673.730469 491.875 672.640625 490.355469 671.515625 C 488.832031 670.386719 487.339844 669.222656 485.878906 668.019531 C 484.414062 666.816406 482.980469 665.582031 481.578125 664.308594 C 480.171875 663.039062 478.800781 661.734375 477.464844 660.394531 C 476.125 659.054688 474.820312 657.683594 473.546875 656.28125 C 472.273438 654.878906 471.039062 653.445312 469.835938 651.980469 C 468.636719 650.515625 467.472656 649.023438 466.34375 647.503906 C 465.214844 645.980469 464.125 644.433594 463.074219 642.859375 C 462.019531 641.285156 461.007812 639.683594 460.035156 638.058594 C 459.0625 636.4375 458.128906 634.789062 457.234375 633.117188 C 456.34375 631.449219 455.492188 629.757812 454.679688 628.046875 C 453.871094 626.332031 453.105469 624.601562 452.378906 622.851562 C 451.65625 621.105469 450.972656 619.335938 450.335938 617.554688 C 449.699219 615.769531 449.105469 613.972656 448.554688 612.160156 C 448.003906 610.347656 447.5 608.523438 447.039062 606.6875 C 446.578125 604.851562 446.164062 603.003906 445.792969 601.144531 C 445.425781 599.289062 445.101562 597.421875 444.824219 595.550781 C 444.546875 593.675781 444.3125 591.796875 444.128906 589.914062 C 443.941406 588.027344 443.804688 586.140625 443.710938 584.25 C 443.617188 582.359375 443.570312 580.464844 443.570312 578.570312 C 443.570312 576.675781 443.617188 574.785156 443.710938 572.894531 C 443.804688 571.003906 443.941406 569.113281 444.128906 567.230469 C 444.3125 565.34375 444.546875 563.464844 444.824219 561.59375 C 445.101562 559.71875 445.425781 557.855469 445.792969 555.996094 C 446.164062 554.140625 446.578125 552.292969 447.039062 550.453125 C 447.5 548.617188 448.003906 546.792969 448.554688 544.980469 C 449.105469 543.167969 449.699219 541.371094 450.335938 539.589844 C 450.972656 537.804688 451.65625 536.039062 452.378906 534.289062 C 453.105469 532.539062 453.871094 530.808594 454.679688 529.097656 C 455.492188 527.386719 456.34375 525.695312 457.234375 524.023438 C 458.128906 522.355469 459.0625 520.707031 460.035156 519.082031 C 461.007812 517.457031 462.019531 515.859375 463.074219 514.285156 C 464.125 512.710938 465.214844 511.160156 466.34375 509.640625 C 467.472656 508.121094 468.636719 506.625 469.835938 505.164062 C 471.039062 503.699219 472.273438 502.265625 473.546875 500.863281 C 474.820312 499.460938 476.125 498.089844 477.464844 496.75 C 478.800781 495.410156 480.171875 494.105469 481.578125 492.832031 C 482.980469 491.5625 484.414062 490.324219 485.878906 489.121094 C 487.339844 487.921875 488.832031 486.757812 490.355469 485.628906 C 491.875 484.5 493.421875 483.410156 495 482.359375 C 496.574219 481.304688 498.171875 480.292969 499.796875 479.320312 C 501.421875 478.347656 503.066406 477.414062 504.738281 476.519531 C 506.410156 475.628906 508.097656 474.777344 509.8125 473.96875 C 511.523438 473.15625 513.253906 472.390625 515.003906 471.664062 C 516.753906 470.941406 518.519531 470.257812 520.300781 469.621094 C 522.085938 468.984375 523.882812 468.390625 525.695312 467.839844 C 527.507812 467.289062 529.332031 466.785156 531.167969 466.324219 C 533.007812 465.863281 534.851562 465.449219 536.710938 465.082031 C 538.566406 464.710938 540.433594 464.386719 542.308594 464.109375 C 544.179688 463.832031 546.058594 463.601562 547.945312 463.414062 C 549.828125 463.230469 551.714844 463.089844 553.609375 462.996094 C 555.5 462.902344 557.390625 462.855469 559.285156 462.855469 C 561.179688 462.855469 563.070312 462.902344 564.964844 462.996094 C 566.855469 463.089844 568.742188 463.230469 570.628906 463.414062 C 572.511719 463.601562 574.390625 463.832031 576.265625 464.109375 C 578.136719 464.386719 580.003906 464.710938 581.859375 465.082031 C 583.71875 465.449219 585.566406 465.863281 587.402344 466.324219 C 589.238281 466.785156 591.0625 467.289062 592.875 467.839844 C 594.6875 468.390625 596.484375 468.984375 598.269531 469.621094 C 600.050781 470.257812 601.816406 470.941406 603.566406 471.664062 C 605.316406 472.390625 607.046875 473.15625 608.761719 473.96875 C 610.472656 474.777344 612.164062 475.628906 613.832031 476.519531 C 615.503906 477.414062 617.148438 478.347656 618.773438 479.320312 C 620.398438 480.292969 622 481.304688 623.574219 482.359375 C 625.148438 483.410156 626.695312 484.5 628.214844 485.628906 C 629.738281 486.757812 631.230469 487.921875 632.695312 489.121094 C 634.15625 490.324219 635.589844 491.5625 636.996094 492.832031 C 638.398438 494.105469 639.769531 495.410156 641.109375 496.75 C 642.445312 498.089844 643.753906 499.460938 645.023438 500.863281 C 646.296875 502.265625 647.53125 503.699219 648.734375 505.164062 C 649.933594 506.625 651.101562 508.121094 652.226562 509.640625 C 653.355469 511.160156 654.445312 512.710938 655.5 514.285156 C 656.550781 515.859375 657.5625 517.457031 658.535156 519.082031 C 659.511719 520.707031 660.445312 522.355469 661.335938 524.023438 C 662.230469 525.695312 663.082031 527.386719 663.890625 529.097656 C 664.699219 530.808594 665.46875 532.539062 666.191406 534.289062 C 666.917969 536.039062 667.597656 537.804688 668.234375 539.589844 C 668.875 541.371094 669.46875 543.167969 670.015625 544.980469 C 670.566406 546.792969 671.070312 548.617188 671.53125 550.453125 C 671.992188 552.292969 672.40625 554.140625 672.777344 555.996094 C 673.144531 557.855469 673.46875 559.71875 673.746094 561.59375 C 674.023438 563.464844 674.257812 565.34375 674.441406 567.230469 C 674.628906 569.113281 674.769531 571.003906 674.859375 572.894531 C 674.953125 574.785156 675 576.675781 675 578.570312 Z M 675 578.570312 " fill-opacity="1" fillRule="nonzero"/><path fill="#446c9e" d="M 559.285156 646.070312 C 557.390625 646.070312 555.5 645.976562 553.613281 645.792969 C 551.730469 645.605469 549.855469 645.328125 548 644.960938 C 546.140625 644.589844 544.304688 644.128906 542.492188 643.578125 C 540.675781 643.03125 538.894531 642.390625 537.144531 641.667969 C 535.394531 640.941406 533.683594 640.132812 532.011719 639.238281 C 530.339844 638.347656 528.71875 637.375 527.140625 636.320312 C 525.566406 635.269531 524.046875 634.140625 522.582031 632.9375 C 521.117188 631.734375 519.714844 630.464844 518.375 629.125 C 517.035156 627.785156 515.761719 626.382812 514.5625 624.917969 C 513.359375 623.453125 512.230469 621.933594 511.179688 620.359375 C 510.125 618.78125 509.152344 617.160156 508.261719 615.488281 C 507.367188 613.816406 506.558594 612.105469 505.832031 610.355469 C 505.109375 608.605469 504.46875 606.824219 503.917969 605.007812 C 503.371094 603.195312 502.910156 601.359375 502.539062 599.5 C 502.171875 597.644531 501.894531 595.769531 501.707031 593.886719 C 501.519531 592 501.429688 590.109375 501.429688 588.214844 C 501.429688 587.582031 501.460938 586.953125 501.519531 586.324219 C 501.582031 585.695312 501.675781 585.070312 501.800781 584.453125 C 501.921875 583.832031 502.074219 583.21875 502.257812 582.617188 C 502.441406 582.011719 502.65625 581.417969 502.898438 580.832031 C 503.136719 580.25 503.40625 579.679688 503.707031 579.121094 C 504.003906 578.566406 504.328125 578.023438 504.679688 577.5 C 505.03125 576.972656 505.40625 576.46875 505.804688 575.980469 C 506.207031 575.492188 506.628906 575.023438 507.078125 574.578125 C 507.523438 574.128906 507.992188 573.707031 508.480469 573.304688 C 508.96875 572.90625 509.472656 572.53125 510 572.179688 C 510.523438 571.828125 511.066406 571.503906 511.621094 571.207031 C 512.179688 570.90625 512.75 570.636719 513.332031 570.398438 C 513.917969 570.15625 514.511719 569.941406 515.117188 569.757812 C 515.71875 569.574219 516.332031 569.421875 516.953125 569.300781 C 517.570312 569.175781 518.195312 569.082031 518.824219 569.019531 C 519.453125 568.960938 520.082031 568.929688 520.714844 568.929688 C 521.347656 568.929688 521.976562 568.960938 522.605469 569.019531 C 523.234375 569.082031 523.855469 569.175781 524.476562 569.300781 C 525.097656 569.421875 525.707031 569.574219 526.3125 569.757812 C 526.917969 569.941406 527.511719 570.15625 528.09375 570.398438 C 528.679688 570.636719 529.25 570.90625 529.804688 571.207031 C 530.363281 571.503906 530.902344 571.828125 531.429688 572.179688 C 531.953125 572.53125 532.460938 572.90625 532.949219 573.304688 C 533.4375 573.707031 533.90625 574.128906 534.351562 574.578125 C 534.796875 575.023438 535.222656 575.492188 535.621094 575.980469 C 536.023438 576.46875 536.398438 576.972656 536.75 577.5 C 537.101562 578.023438 537.425781 578.566406 537.722656 579.121094 C 538.019531 579.679688 538.289062 580.25 538.53125 580.832031 C 538.773438 581.417969 538.984375 582.011719 539.167969 582.617188 C 539.351562 583.21875 539.507812 583.832031 539.628906 584.453125 C 539.753906 585.070312 539.84375 585.695312 539.90625 586.324219 C 539.96875 586.953125 540 587.582031 540 588.214844 C 540 588.847656 540.03125 589.476562 540.09375 590.105469 C 540.15625 590.734375 540.246094 591.355469 540.371094 591.976562 C 540.492188 592.597656 540.648438 593.207031 540.832031 593.8125 C 541.015625 594.417969 541.226562 595.011719 541.46875 595.59375 C 541.710938 596.179688 541.980469 596.75 542.277344 597.304688 C 542.574219 597.863281 542.898438 598.402344 543.25 598.929688 C 543.601562 599.453125 543.976562 599.960938 544.378906 600.449219 C 544.777344 600.9375 545.203125 601.40625 545.648438 601.851562 C 546.09375 602.296875 546.5625 602.722656 547.050781 603.121094 C 547.539062 603.523438 548.046875 603.898438 548.570312 604.25 C 549.097656 604.601562 549.636719 604.925781 550.195312 605.222656 C 550.75 605.519531 551.320312 605.789062 551.90625 606.03125 C 552.488281 606.273438 553.082031 606.484375 553.6875 606.667969 C 554.292969 606.851562 554.902344 607.007812 555.523438 607.128906 C 556.144531 607.253906 556.765625 607.34375 557.394531 607.40625 C 558.023438 607.46875 558.652344 607.5 559.285156 607.5 C 559.917969 607.5 560.546875 607.46875 561.175781 607.40625 C 561.804688 607.34375 562.429688 607.253906 563.046875 607.128906 C 563.667969 607.007812 564.28125 606.851562 564.882812 606.667969 C 565.488281 606.484375 566.082031 606.273438 566.664062 606.03125 C 567.25 605.789062 567.820312 605.519531 568.375 605.222656 C 568.933594 604.925781 569.476562 604.601562 570 604.25 C 570.527344 603.898438 571.03125 603.523438 571.519531 603.121094 C 572.007812 602.722656 572.476562 602.296875 572.921875 601.851562 C 573.371094 601.40625 573.792969 600.9375 574.195312 600.449219 C 574.59375 599.960938 574.96875 599.453125 575.320312 598.929688 C 575.671875 598.402344 575.996094 597.863281 576.292969 597.304688 C 576.59375 596.75 576.863281 596.179688 577.101562 595.59375 C 577.34375 595.011719 577.558594 594.417969 577.742188 593.8125 C 577.925781 593.207031 578.078125 592.597656 578.199219 591.976562 C 578.324219 591.355469 578.417969 590.734375 578.476562 590.105469 C 578.539062 589.476562 578.570312 588.847656 578.570312 588.214844 C 578.570312 587.582031 578.601562 586.953125 578.664062 586.324219 C 578.726562 585.695312 578.820312 585.070312 578.941406 584.453125 C 579.066406 583.832031 579.21875 583.21875 579.402344 582.617188 C 579.585938 582.011719 579.796875 581.417969 580.039062 580.832031 C 580.28125 580.25 580.550781 579.679688 580.847656 579.121094 C 581.144531 578.566406 581.472656 578.023438 581.820312 577.5 C 582.171875 576.972656 582.546875 576.46875 582.949219 575.980469 C 583.351562 575.492188 583.773438 575.023438 584.21875 574.578125 C 584.667969 574.128906 585.132812 573.707031 585.621094 573.304688 C 586.109375 572.90625 586.617188 572.53125 587.140625 572.179688 C 587.667969 571.828125 588.207031 571.503906 588.765625 571.207031 C 589.324219 570.90625 589.894531 570.636719 590.476562 570.398438 C 591.058594 570.15625 591.65625 569.941406 592.257812 569.757812 C 592.863281 569.574219 593.476562 569.421875 594.09375 569.300781 C 594.714844 569.175781 595.339844 569.082031 595.96875 569.019531 C 596.59375 568.960938 597.226562 568.929688 597.855469 568.929688 C 598.488281 568.929688 599.117188 568.960938 599.746094 569.019531 C 600.375 569.082031 601 569.175781 601.621094 569.300781 C 602.238281 569.421875 602.851562 569.574219 603.457031 569.757812 C 604.058594 569.941406 604.652344 570.15625 605.238281 570.398438 C 605.820312 570.636719 606.390625 570.90625 606.949219 571.207031 C 607.503906 571.503906 608.046875 571.828125 608.570312 572.179688 C 609.097656 572.53125 609.605469 572.90625 610.089844 573.304688 C 610.578125 573.707031 611.046875 574.128906 611.492188 574.578125 C 611.941406 575.023438 612.363281 575.492188 612.765625 575.980469 C 613.164062 576.46875 613.542969 576.972656 613.890625 577.5 C 614.242188 578.023438 614.566406 578.566406 614.867188 579.121094 C 615.164062 579.679688 615.433594 580.25 615.675781 580.832031 C 615.917969 581.417969 616.128906 582.011719 616.3125 582.617188 C 616.496094 583.21875 616.648438 583.832031 616.773438 584.453125 C 616.894531 585.070312 616.988281 585.695312 617.050781 586.324219 C 617.113281 586.953125 617.144531 587.582031 617.144531 588.214844 C 617.144531 590.109375 617.050781 592 616.863281 593.886719 C 616.679688 595.769531 616.402344 597.644531 616.03125 599.5 C 615.660156 601.359375 615.203125 603.195312 614.652344 605.007812 C 614.101562 606.824219 613.464844 608.605469 612.738281 610.355469 C 612.011719 612.105469 611.203125 613.816406 610.3125 615.488281 C 609.417969 617.160156 608.445312 618.78125 607.390625 620.359375 C 606.339844 621.933594 605.210938 623.453125 604.011719 624.917969 C 602.808594 626.382812 601.535156 627.785156 600.195312 629.125 C 598.855469 630.464844 597.453125 631.734375 595.988281 632.9375 C 594.523438 634.140625 593.003906 635.269531 591.429688 636.320312 C 589.855469 637.375 588.230469 638.347656 586.558594 639.238281 C 584.886719 640.132812 583.175781 640.941406 581.425781 641.667969 C 579.675781 642.390625 577.894531 643.03125 576.082031 643.578125 C 574.265625 644.128906 572.429688 644.589844 570.574219 644.960938 C 568.714844 645.328125 566.84375 645.605469 564.957031 645.792969 C 563.070312 645.976562 561.179688 646.070312 559.285156 646.070312 Z M 559.285156 646.070312 " fill-opacity="1" fillRule="nonzero"/><path fill="#f47f8f" d="M 462.855469 231.429688 L 38.570312 231.429688 C 37.308594 231.429688 36.046875 231.492188 34.789062 231.613281 C 33.535156 231.738281 32.285156 231.921875 31.046875 232.167969 C 29.808594 232.417969 28.582031 232.722656 27.375 233.089844 C 26.164062 233.457031 24.976562 233.882812 23.8125 234.363281 C 22.644531 234.847656 21.503906 235.386719 20.390625 235.984375 C 19.273438 236.578125 18.191406 237.226562 17.140625 237.929688 C 16.09375 238.632812 15.078125 239.382812 14.101562 240.183594 C 13.125 240.984375 12.191406 241.832031 11.296875 242.726562 C 10.402344 243.621094 9.558594 244.554688 8.753906 245.53125 C 7.953125 246.507812 7.203125 247.519531 6.5 248.570312 C 5.796875 249.621094 5.148438 250.703125 4.554688 251.816406 C 3.957031 252.933594 3.417969 254.074219 2.9375 255.238281 C 2.453125 256.40625 2.027344 257.59375 1.660156 258.804688 C 1.292969 260.011719 0.988281 261.234375 0.742188 262.476562 C 0.496094 263.714844 0.308594 264.960938 0.1875 266.21875 C 0.0625 267.476562 0 268.738281 0 270 L 0 520.714844 C 0 521.976562 0.0625 523.238281 0.1875 524.496094 C 0.308594 525.753906 0.496094 527 0.742188 528.238281 C 0.988281 529.476562 1.292969 530.703125 1.660156 531.910156 C 2.027344 533.121094 2.453125 534.308594 2.9375 535.476562 C 3.417969 536.640625 3.957031 537.78125 4.554688 538.898438 C 5.148438 540.011719 5.796875 541.09375 6.5 542.144531 C 7.203125 543.195312 7.953125 544.207031 8.753906 545.183594 C 9.558594 546.160156 10.402344 547.09375 11.296875 547.988281 C 12.191406 548.882812 13.125 549.730469 14.101562 550.53125 C 15.078125 551.332031 16.09375 552.082031 17.140625 552.785156 C 18.191406 553.488281 19.273438 554.136719 20.390625 554.730469 C 21.503906 555.328125 22.644531 555.867188 23.8125 556.347656 C 24.976562 556.832031 26.164062 557.257812 27.375 557.625 C 28.582031 557.992188 29.808594 558.296875 31.046875 558.542969 C 32.285156 558.789062 33.535156 558.976562 34.789062 559.101562 C 36.046875 559.222656 37.308594 559.285156 38.570312 559.285156 L 179.550781 559.285156 L 248.59375 636.429688 L 317.441406 559.285156 L 462.855469 559.285156 C 464.121094 559.285156 465.378906 559.222656 466.636719 559.101562 C 467.894531 558.976562 469.144531 558.789062 470.382812 558.542969 C 471.621094 558.296875 472.84375 557.992188 474.054688 557.625 C 475.261719 557.257812 476.449219 556.832031 477.617188 556.347656 C 478.785156 555.867188 479.925781 555.328125 481.039062 554.730469 C 482.152344 554.136719 483.234375 553.488281 484.285156 552.785156 C 485.335938 552.082031 486.351562 551.332031 487.328125 550.53125 C 488.304688 549.730469 489.238281 548.882812 490.132812 547.988281 C 491.023438 547.09375 491.871094 546.160156 492.671875 545.183594 C 493.472656 544.207031 494.226562 543.195312 494.929688 542.144531 C 495.628906 541.09375 496.277344 540.011719 496.875 538.898438 C 497.46875 537.78125 498.007812 536.640625 498.492188 535.476562 C 498.976562 534.308594 499.402344 533.121094 499.769531 531.910156 C 500.132812 530.703125 500.441406 529.476562 500.6875 528.238281 C 500.933594 527 501.117188 525.753906 501.242188 524.496094 C 501.367188 523.238281 501.429688 521.976562 501.429688 520.714844 L 501.429688 270 C 501.429688 268.738281 501.367188 267.476562 501.242188 266.21875 C 501.117188 264.960938 500.933594 263.714844 500.6875 262.476562 C 500.441406 261.234375 500.132812 260.011719 499.769531 258.804688 C 499.402344 257.59375 498.976562 256.40625 498.492188 255.238281 C 498.007812 254.070312 497.46875 252.929688 496.875 251.816406 C 496.277344 250.703125 495.628906 249.621094 494.929688 248.570312 C 494.226562 247.519531 493.472656 246.507812 492.671875 245.53125 C 491.871094 244.554688 491.023438 243.617188 490.132812 242.726562 C 489.238281 241.832031 488.304688 240.984375 487.328125 240.183594 C 486.351562 239.382812 485.335938 238.628906 484.285156 237.929688 C 483.234375 237.226562 482.152344 236.578125 481.039062 235.984375 C 479.925781 235.386719 478.785156 234.847656 477.617188 234.363281 C 476.449219 233.882812 475.261719 233.457031 474.054688 233.089844 C 472.84375 232.722656 471.621094 232.417969 470.382812 232.167969 C 469.144531 231.921875 467.894531 231.738281 466.636719 231.613281 C 465.378906 231.492188 464.121094 231.429688 462.855469 231.429688 Z M 462.855469 231.429688 " fill-opacity="1" fillRule="nonzero"/><path fill="#446c9e" d="M 617.144531 96.429688 L 366.429688 96.429688 C 365.796875 96.429688 365.167969 96.398438 364.539062 96.335938 C 363.910156 96.273438 363.285156 96.179688 362.667969 96.058594 C 362.046875 95.933594 361.433594 95.78125 360.832031 95.597656 C 360.226562 95.414062 359.632812 95.203125 359.046875 94.960938 C 358.464844 94.71875 357.894531 94.449219 357.335938 94.152344 C 356.78125 93.855469 356.238281 93.527344 355.714844 93.179688 C 355.1875 92.828125 354.683594 92.453125 354.195312 92.050781 C 353.707031 91.648438 353.238281 91.226562 352.792969 90.78125 C 352.34375 90.332031 351.921875 89.867188 351.519531 89.378906 C 351.121094 88.890625 350.742188 88.382812 350.394531 87.855469 C 350.042969 87.332031 349.71875 86.792969 349.421875 86.234375 C 349.121094 85.675781 348.851562 85.105469 348.609375 84.523438 C 348.367188 83.941406 348.15625 83.34375 347.972656 82.742188 C 347.789062 82.136719 347.636719 81.523438 347.511719 80.90625 C 347.390625 80.285156 347.296875 79.660156 347.234375 79.03125 C 347.171875 78.40625 347.144531 77.773438 347.144531 77.144531 C 347.144531 76.511719 347.171875 75.882812 347.234375 75.253906 C 347.296875 74.625 347.390625 74 347.511719 73.378906 C 347.636719 72.761719 347.789062 72.148438 347.972656 71.542969 C 348.15625 70.941406 348.367188 70.347656 348.609375 69.761719 C 348.851562 69.179688 349.121094 68.609375 349.421875 68.050781 C 349.71875 67.496094 350.042969 66.953125 350.394531 66.429688 C 350.742188 65.902344 351.121094 65.394531 351.519531 64.90625 C 351.921875 64.417969 352.34375 63.953125 352.792969 63.503906 C 353.238281 63.058594 353.707031 62.636719 354.195312 62.234375 C 354.683594 61.835938 355.1875 61.457031 355.714844 61.105469 C 356.238281 60.757812 356.78125 60.433594 357.335938 60.132812 C 357.894531 59.835938 358.464844 59.566406 359.046875 59.324219 C 359.632812 59.082031 360.226562 58.871094 360.832031 58.6875 C 361.433594 58.503906 362.046875 58.351562 362.667969 58.226562 C 363.285156 58.105469 363.910156 58.011719 364.539062 57.949219 C 365.167969 57.886719 365.796875 57.855469 366.429688 57.855469 L 617.144531 57.855469 C 617.773438 57.855469 618.40625 57.886719 619.03125 57.949219 C 619.660156 58.011719 620.285156 58.105469 620.90625 58.226562 C 621.523438 58.351562 622.136719 58.503906 622.742188 58.6875 C 623.34375 58.871094 623.941406 59.082031 624.523438 59.324219 C 625.105469 59.566406 625.675781 59.835938 626.234375 60.132812 C 626.792969 60.433594 627.332031 60.757812 627.855469 61.105469 C 628.382812 61.457031 628.890625 61.835938 629.378906 62.234375 C 629.867188 62.636719 630.332031 63.058594 630.78125 63.503906 C 631.226562 63.953125 631.648438 64.417969 632.050781 64.90625 C 632.453125 65.394531 632.828125 65.902344 633.179688 66.429688 C 633.527344 66.953125 633.851562 67.496094 634.152344 68.050781 C 634.449219 68.609375 634.71875 69.179688 634.960938 69.761719 C 635.203125 70.347656 635.414062 70.941406 635.597656 71.542969 C 635.78125 72.148438 635.933594 72.761719 636.058594 73.378906 C 636.179688 74 636.273438 74.625 636.335938 75.253906 C 636.398438 75.882812 636.429688 76.511719 636.429688 77.144531 C 636.429688 77.773438 636.398438 78.40625 636.335938 79.03125 C 636.273438 79.660156 636.179688 80.285156 636.058594 80.90625 C 635.933594 81.523438 635.78125 82.136719 635.597656 82.742188 C 635.414062 83.34375 635.203125 83.941406 634.960938 84.523438 C 634.71875 85.105469 634.449219 85.675781 634.152344 86.234375 C 633.851562 86.792969 633.527344 87.332031 633.179688 87.855469 C 632.828125 88.382812 632.453125 88.890625 632.050781 89.378906 C 631.648438 89.867188 631.226562 90.332031 630.78125 90.78125 C 630.332031 91.226562 629.867188 91.648438 629.378906 92.050781 C 628.890625 92.453125 628.382812 92.828125 627.855469 93.179688 C 627.332031 93.527344 626.792969 93.855469 626.234375 94.152344 C 625.675781 94.449219 625.105469 94.71875 624.523438 94.960938 C 623.941406 95.203125 623.34375 95.414062 622.742188 95.597656 C 622.136719 95.78125 621.523438 95.933594 620.90625 96.058594 C 620.285156 96.179688 619.660156 96.273438 619.03125 96.335938 C 618.40625 96.398438 617.773438 96.429688 617.144531 96.429688 Z M 617.144531 96.429688 " fill-opacity="1" fillRule="nonzero"/><path fill="#446c9e" d="M 520.714844 173.570312 L 366.429688 173.570312 C 365.796875 173.570312 365.167969 173.539062 364.539062 173.480469 C 363.910156 173.417969 363.285156 173.324219 362.667969 173.199219 C 362.046875 173.078125 361.433594 172.925781 360.832031 172.742188 C 360.226562 172.558594 359.632812 172.34375 359.046875 172.101562 C 358.464844 171.863281 357.894531 171.59375 357.335938 171.292969 C 356.78125 170.996094 356.238281 170.671875 355.714844 170.320312 C 355.1875 169.96875 354.683594 169.59375 354.195312 169.195312 C 353.707031 168.792969 353.238281 168.371094 352.792969 167.921875 C 352.34375 167.476562 351.921875 167.007812 351.519531 166.519531 C 351.121094 166.03125 350.742188 165.527344 350.394531 165 C 350.042969 164.476562 349.71875 163.933594 349.421875 163.375 C 349.121094 162.820312 348.851562 162.25 348.609375 161.664062 C 348.367188 161.082031 348.15625 160.488281 347.972656 159.882812 C 347.789062 159.28125 347.636719 158.667969 347.511719 158.046875 C 347.390625 157.429688 347.296875 156.804688 347.234375 156.175781 C 347.171875 155.546875 347.144531 154.917969 347.144531 154.285156 C 347.144531 153.652344 347.171875 153.023438 347.234375 152.394531 C 347.296875 151.765625 347.390625 151.144531 347.511719 150.523438 C 347.636719 149.902344 347.789062 149.292969 347.972656 148.6875 C 348.15625 148.082031 348.367188 147.488281 348.609375 146.90625 C 348.851562 146.320312 349.121094 145.75 349.421875 145.195312 C 349.71875 144.636719 350.042969 144.097656 350.394531 143.570312 C 350.742188 143.046875 351.121094 142.539062 351.519531 142.050781 C 351.921875 141.5625 352.34375 141.09375 352.792969 140.648438 C 353.238281 140.203125 353.707031 139.777344 354.195312 139.378906 C 354.683594 138.976562 355.1875 138.601562 355.714844 138.25 C 356.238281 137.898438 356.78125 137.574219 357.335938 137.277344 C 357.894531 136.980469 358.464844 136.710938 359.046875 136.46875 C 359.632812 136.226562 360.226562 136.015625 360.832031 135.832031 C 361.433594 135.648438 362.046875 135.492188 362.667969 135.371094 C 363.285156 135.246094 363.910156 135.15625 364.539062 135.09375 C 365.167969 135.03125 365.796875 135 366.429688 135 L 520.714844 135 C 521.347656 135 521.976562 135.03125 522.605469 135.09375 C 523.234375 135.15625 523.855469 135.246094 524.476562 135.371094 C 525.097656 135.492188 525.707031 135.648438 526.3125 135.832031 C 526.917969 136.015625 527.511719 136.226562 528.09375 136.46875 C 528.679688 136.710938 529.25 136.980469 529.804688 137.277344 C 530.363281 137.574219 530.902344 137.898438 531.429688 138.25 C 531.953125 138.601562 532.460938 138.976562 532.949219 139.378906 C 533.4375 139.777344 533.90625 140.203125 534.351562 140.648438 C 534.796875 141.09375 535.222656 141.5625 535.621094 142.050781 C 536.023438 142.539062 536.398438 143.046875 536.75 143.570312 C 537.101562 144.097656 537.425781 144.636719 537.722656 145.195312 C 538.019531 145.75 538.289062 146.320312 538.53125 146.90625 C 538.773438 147.488281 538.984375 148.082031 539.167969 148.6875 C 539.351562 149.292969 539.507812 149.902344 539.628906 150.523438 C 539.753906 151.144531 539.84375 151.765625 539.90625 152.394531 C 539.96875 153.023438 540 153.652344 540 154.285156 C 540 154.917969 539.96875 155.546875 539.90625 156.175781 C 539.84375 156.804688 539.753906 157.429688 539.628906 158.046875 C 539.507812 158.667969 539.351562 159.28125 539.167969 159.882812 C 538.984375 160.488281 538.773438 161.082031 538.53125 161.664062 C 538.289062 162.25 538.019531 162.820312 537.722656 163.375 C 537.425781 163.933594 537.101562 164.476562 536.75 165 C 536.398438 165.527344 536.023438 166.03125 535.621094 166.519531 C 535.222656 167.007812 534.796875 167.476562 534.351562 167.921875 C 533.90625 168.371094 533.4375 168.792969 532.949219 169.195312 C 532.460938 169.59375 531.953125 169.96875 531.429688 170.320312 C 530.902344 170.671875 530.363281 170.996094 529.804688 171.292969 C 529.25 171.59375 528.679688 171.863281 528.09375 172.101562 C 527.511719 172.34375 526.917969 172.558594 526.3125 172.742188 C 525.707031 172.925781 525.097656 173.078125 524.476562 173.199219 C 523.855469 173.324219 523.234375 173.417969 522.605469 173.480469 C 521.976562 173.539062 521.347656 173.570312 520.714844 173.570312 Z M 520.714844 173.570312 " fill-opacity="1" fillRule="nonzero"/><path fill="#f8f6f7" d="M 250.714844 514.542969 L 169.714844 433.734375 C 89.101562 353.121094 169.714844 272.3125 250.519531 352.734375 C 331.519531 271.734375 412.328125 352.734375 331.328125 433.734375 Z M 250.714844 514.542969 " fill-opacity="1" fillRule="nonzero"/><g fill="#fbc906" fill-opacity="1"><g transform="translate(675.62469, 241.697938)"><g><path d="M 3.9375 0.140625 C 3.382812 0.140625 2.945312 -0.015625 2.625 -0.328125 C 2.300781 -0.640625 2.140625 -1.050781 2.140625 -1.5625 C 2.140625 -2.070312 2.300781 -2.488281 2.625 -2.8125 C 2.945312 -3.144531 3.382812 -3.3125 3.9375 -3.3125 C 4.507812 -3.3125 4.953125 -3.15625 5.265625 -2.84375 C 5.585938 -2.53125 5.75 -2.113281 5.75 -1.59375 C 5.75 -1.082031 5.585938 -0.664062 5.265625 -0.34375 C 4.941406 -0.0195312 4.5 0.140625 3.9375 0.140625 Z M 3.9375 0.140625 "/></g></g></g></svg>