<svg xmlns="http://www.w3.org/2000/svg" xmlns:xlink="http://www.w3.org/1999/xlink" width="1080" zoomAndPan="magnify" viewBox="0 0 810 809.999993" height="1080" preserveAspectRatio="xMidYMid meet" version="1.0"><defs><g/><clipPath id="0a7229d59f"><path d="M 386 26.832031 L 425 26.832031 L 425 782.832031 L 386 782.832031 Z M 386 26.832031 " clip-rule="nonzero"/></clipPath></defs><path fill="#bfbb78" d="M 497.792969 107.234375 C 497.792969 107.234375 618.769531 92.984375 674.375 96.152344 C 729.984375 99.320312 795.351562 109.960938 802.664062 119.679688 C 809.980469 129.398438 807.054688 244.96875 796.324219 259.21875 C 785.59375 273.464844 509.5 262.382812 497.792969 259.21875 C 486.085938 256.050781 491.0625 108 497.792969 107.234375 Z M 497.792969 107.234375 " fill-opacity="1" fillRule="nonzero"/><path fill="#000000" d="M 702.042969 268.328125 C 685.84375 268.328125 667.625 268.132812 647.386719 267.742188 C 577.664062 266.398438 503.710938 262.886719 497.273438 261.140625 C 495.105469 260.554688 490.027344 259.183594 488.945312 213.21875 C 488.382812 189.332031 489.144531 159.054688 490.878906 136.085938 C 493.167969 105.789062 495.605469 105.472656 497.558594 105.25 C 498.773438 105.105469 619.332031 91.011719 674.488281 94.15625 C 723.3125 96.9375 795.570312 106.9375 804.257812 118.476562 C 809.167969 124.996094 809.082031 165.128906 808.257812 187.820312 C 807.171875 217.71875 803.886719 252.492188 797.921875 260.414062 C 793.957031 265.679688 761.765625 268.328125 702.042969 268.328125 Z M 498.632812 109.148438 C 494.039062 117.660156 489.535156 216.597656 495.726562 249.5 C 497.027344 256.4375 498.332031 257.285156 498.390625 257.316406 C 503.824219 258.777344 574.316406 262.34375 647.464844 263.75 C 751.335938 265.753906 791.652344 262.105469 794.730469 258.015625 C 799.117188 252.1875 802.949219 223.921875 804.265625 187.675781 C 805.625 150.324219 803.707031 124.382812 801.070312 120.878906 C 794.796875 112.546875 733.171875 101.5 674.265625 98.144531 C 621.472656 95.144531 507.980469 108.066406 498.632812 109.148438 Z M 498.03125 109.21875 L 498.023438 109.21875 C 498.027344 109.21875 498.03125 109.21875 498.03125 109.21875 Z M 498.03125 109.21875 " fill-opacity="1" fillRule="nonzero"/><path fill="#f2cf63" d="M 497.792969 406.484375 C 497.792969 406.484375 618.769531 392.238281 674.375 395.402344 C 729.984375 398.570312 795.351562 409.210938 802.664062 418.929688 C 809.980469 428.648438 807.054688 544.21875 796.324219 558.46875 C 785.59375 572.714844 509.5 561.632812 497.792969 558.46875 C 486.085938 555.300781 491.0625 407.25 497.792969 406.484375 Z M 497.792969 406.484375 " fill-opacity="1" fillRule="nonzero"/><path fill="#000000" d="M 702.042969 567.578125 C 685.84375 567.578125 667.625 567.382812 647.386719 566.992188 C 577.664062 565.648438 503.710938 562.136719 497.273438 560.390625 C 495.105469 559.808594 490.027344 558.433594 488.945312 512.492188 C 488.382812 488.617188 489.140625 458.347656 490.878906 435.375 C 493.167969 405.039062 495.601562 404.722656 497.5625 404.503906 C 498.773438 404.359375 619.335938 390.269531 674.488281 393.410156 C 723.3125 396.191406 795.574219 406.1875 804.261719 417.726562 C 809.171875 424.25 809.085938 464.382812 808.261719 487.074219 C 807.175781 516.972656 803.886719 551.746094 797.921875 559.667969 C 793.957031 564.929688 761.765625 567.578125 702.042969 567.578125 Z M 498.632812 408.398438 C 494.039062 416.910156 489.535156 515.84375 495.722656 548.75 C 497.027344 555.683594 498.332031 556.53125 498.390625 556.566406 C 503.824219 558.027344 574.316406 561.589844 647.464844 563 C 751.335938 565.007812 791.652344 561.351562 794.730469 557.261719 C 799.117188 551.4375 802.949219 523.171875 804.265625 486.925781 C 805.625 449.574219 803.707031 423.628906 801.070312 420.128906 C 794.796875 411.796875 733.171875 400.75 674.265625 397.394531 C 621.472656 394.386719 507.980469 407.316406 498.632812 408.398438 Z M 498.03125 408.46875 L 498.023438 408.46875 C 498.027344 408.46875 498.03125 408.46875 498.03125 408.46875 Z M 498.03125 408.46875 " fill-opacity="1" fillRule="nonzero"/><path fill="#f58298" d="M 312.382812 275.050781 C 312.382812 275.050781 191.410156 260.800781 135.800781 263.96875 C 80.195312 267.132812 14.828125 277.773438 7.511719 287.492188 C 0.195312 297.210938 3.125 412.78125 13.851562 427.03125 C 24.585938 441.28125 300.675781 430.195312 312.382812 427.03125 C 324.089844 423.867188 319.113281 275.816406 312.382812 275.050781 Z M 312.382812 275.050781 " fill-opacity="1" fillRule="nonzero"/><path fill="#000000" d="M 108.132812 436.144531 C 48.40625 436.144531 16.222656 433.496094 12.257812 428.234375 C 6.292969 420.3125 3.003906 385.539062 1.921875 355.640625 C 1.097656 332.953125 1.011719 292.816406 5.917969 286.292969 C 14.609375 274.753906 86.867188 264.753906 135.691406 261.976562 C 190.851562 258.820312 311.40625 272.921875 312.621094 273.066406 C 314.578125 273.289062 317.011719 273.605469 319.304688 303.941406 C 321.039062 326.914062 321.796875 357.1875 321.234375 381.058594 C 320.152344 427 315.074219 428.375 312.90625 428.957031 C 306.46875 430.703125 232.515625 434.214844 162.792969 435.558594 C 142.558594 435.949219 124.328125 436.144531 108.132812 436.144531 Z M 154.113281 265.507812 C 147.515625 265.507812 141.390625 265.648438 135.914062 265.960938 C 77.007812 269.316406 15.382812 280.367188 9.109375 288.695312 C 6.472656 292.199219 4.554688 318.144531 5.914062 355.492188 C 7.230469 391.738281 11.0625 420.007812 15.449219 425.832031 C 18.53125 429.917969 58.84375 433.574219 162.714844 431.566406 C 235.867188 430.15625 306.355469 426.59375 311.863281 425.105469 C 311.847656 425.101562 313.152344 424.25 314.457031 417.3125 C 320.644531 384.410156 316.144531 285.476562 311.546875 276.960938 C 303.164062 275.996094 211.121094 265.507812 154.113281 265.507812 Z M 312.148438 277.035156 C 312.152344 277.035156 312.152344 277.035156 312.15625 277.035156 Z M 312.148438 277.035156 " fill-opacity="1" fillRule="nonzero"/><path fill="#5fa0d9" d="M 312.382812 575.425781 C 312.382812 575.425781 191.410156 561.175781 135.800781 564.34375 C 80.195312 567.507812 14.828125 578.152344 7.511719 587.871094 C 0.195312 597.589844 3.125 713.160156 13.851562 727.40625 C 24.585938 741.65625 300.675781 730.574219 312.382812 727.40625 C 324.089844 724.238281 319.113281 576.191406 312.382812 575.425781 Z M 312.382812 575.425781 " fill-opacity="1" fillRule="nonzero"/><path fill="#000000" d="M 108.132812 736.519531 C 48.40625 736.519531 16.222656 733.871094 12.257812 728.609375 C 6.292969 720.6875 3.003906 685.914062 1.921875 656.011719 C 1.097656 633.324219 1.011719 593.1875 5.917969 586.667969 C 14.609375 575.128906 86.867188 565.128906 135.691406 562.351562 C 190.773438 559.195312 311.113281 573.265625 312.613281 573.441406 C 314.570312 573.664062 317.003906 573.957031 319.296875 604.199219 C 320.71875 622.996094 325.589844 725.902344 312.90625 729.332031 C 306.46875 731.074219 232.515625 734.589844 162.792969 735.933594 C 142.558594 736.324219 124.328125 736.519531 108.132812 736.519531 Z M 154.113281 565.882812 C 147.515625 565.882812 141.390625 566.023438 135.914062 566.335938 C 77.007812 569.691406 15.382812 580.742188 9.109375 589.070312 C 6.472656 592.570312 4.554688 618.515625 5.914062 655.867188 C 7.230469 692.109375 11.0625 720.378906 15.449219 726.203125 C 18.527344 730.292969 58.835938 733.945312 162.714844 731.941406 C 235.867188 730.53125 306.355469 726.96875 311.863281 725.480469 C 311.847656 725.472656 313.152344 724.625 314.453125 717.691406 C 320.644531 684.789062 316.144531 585.851562 311.546875 577.339844 C 303.164062 576.367188 211.121094 565.882812 154.113281 565.882812 Z M 312.148438 577.40625 C 312.152344 577.40625 312.152344 577.40625 312.15625 577.40625 Z M 312.148438 577.40625 " fill-opacity="1" fillRule="nonzero"/><path fill="#ffffff" d="M 509.738281 138.972656 C 460.285156 137.675781 447.191406 181.992188 459.8125 205.507812 C 472.4375 229.027344 564.253906 246.808594 556.21875 193.464844 C 548.1875 140.121094 516.042969 139.136719 509.738281 138.972656 Z M 509.738281 138.972656 " fill-opacity="1" fillRule="nonzero"/><path fill="#000000" d="M 518.269531 230.324219 C 509.792969 230.324219 500.570312 229.066406 491.480469 226.566406 C 474.855469 221.992188 462.359375 214.476562 458.054688 206.453125 C 450.878906 193.09375 451.914062 174.617188 460.625 160.484375 C 470.328125 144.75 487.796875 136.441406 509.789062 136.976562 C 524.765625 137.371094 550.96875 145.195312 558.195312 193.167969 C 560.75 210.128906 553.542969 222.332031 537.902344 227.53125 C 532.28125 229.398438 525.546875 230.324219 518.269531 230.324219 Z M 507.675781 140.941406 C 488.105469 140.941406 472.660156 148.582031 464.027344 162.582031 C 456.039062 175.542969 455.050781 192.417969 461.574219 204.566406 C 465.316406 211.539062 477.183594 218.492188 492.539062 222.71875 C 508.699219 227.15625 525.191406 227.546875 536.640625 223.738281 C 550.617188 219.097656 556.539062 209.007812 554.242188 193.761719 C 547.453125 148.667969 523.410156 141.332031 509.683594 140.972656 C 509.011719 140.953125 508.339844 140.941406 507.675781 140.941406 Z M 507.675781 140.941406 " fill-opacity="1" fillRule="nonzero"/><path fill="#ffffff" d="M 509.738281 440.707031 C 460.285156 439.410156 447.191406 483.726562 459.8125 507.246094 C 472.4375 530.765625 564.253906 548.546875 556.21875 495.199219 C 548.1875 441.855469 516.042969 440.875 509.738281 440.707031 Z M 509.738281 440.707031 " fill-opacity="1" fillRule="nonzero"/><path fill="#000000" d="M 518.269531 532.0625 C 509.792969 532.0625 500.570312 530.804688 491.480469 528.300781 C 474.855469 523.730469 462.359375 516.210938 458.054688 508.191406 C 450.878906 494.828125 451.914062 476.355469 460.625 462.222656 C 470.328125 446.484375 487.734375 438.148438 509.789062 438.714844 C 524.765625 439.105469 550.96875 446.929688 558.195312 494.90625 C 560.75 511.867188 553.542969 524.070312 537.902344 529.265625 C 532.28125 531.132812 525.550781 532.0625 518.269531 532.0625 Z M 507.679688 442.675781 C 488.109375 442.675781 472.660156 450.316406 464.027344 464.320312 C 456.039062 477.277344 455.050781 494.152344 461.574219 506.300781 C 465.316406 513.273438 477.183594 520.226562 492.539062 524.453125 C 508.703125 528.898438 525.191406 529.277344 536.640625 525.476562 C 550.617188 520.832031 556.539062 510.746094 554.242188 495.496094 C 547.453125 450.40625 523.410156 443.066406 509.683594 442.707031 C 509.011719 442.6875 508.339844 442.675781 507.679688 442.675781 Z M 507.679688 442.675781 " fill-opacity="1" fillRule="nonzero"/><path fill="#ffffff" d="M 300.4375 304.574219 C 349.890625 303.277344 362.988281 347.59375 350.363281 371.113281 C 337.738281 394.628906 245.921875 412.414062 253.957031 359.066406 C 261.988281 305.722656 294.132812 304.742188 300.4375 304.574219 Z M 300.4375 304.574219 " fill-opacity="1" fillRule="nonzero"/><path fill="#000000" d="M 291.90625 395.925781 C 284.625 395.925781 277.894531 395 272.273438 393.132812 C 256.632812 387.933594 249.425781 375.730469 251.980469 358.769531 C 259.207031 310.792969 285.410156 302.972656 300.386719 302.578125 C 322.386719 302.003906 339.84375 310.351562 349.550781 326.089844 C 358.261719 340.21875 359.296875 358.691406 352.121094 372.054688 C 347.816406 380.078125 335.320312 387.597656 318.695312 392.167969 C 309.605469 394.667969 300.382812 395.925781 291.90625 395.925781 Z M 300.492188 306.570312 C 286.765625 306.933594 262.722656 314.269531 255.933594 359.363281 C 253.632812 374.609375 259.558594 384.695312 273.53125 389.339844 C 284.984375 393.144531 301.46875 392.761719 317.632812 388.316406 C 332.996094 384.09375 344.859375 377.136719 348.605469 370.167969 C 355.125 358.015625 354.140625 341.144531 346.148438 328.183594 C 337.222656 313.707031 321.015625 305.996094 300.492188 306.570312 Z M 300.492188 306.570312 " fill-opacity="1" fillRule="nonzero"/><path fill="#ffffff" d="M 300.4375 612.292969 C 349.890625 610.996094 362.988281 655.3125 350.363281 678.832031 C 337.738281 702.347656 245.921875 720.132812 253.957031 666.785156 C 261.988281 613.441406 294.132812 612.460938 300.4375 612.292969 Z M 300.4375 612.292969 " fill-opacity="1" fillRule="nonzero"/><path fill="#000000" d="M 291.90625 703.648438 C 284.625 703.648438 277.894531 702.71875 272.269531 700.851562 C 256.632812 695.652344 249.425781 683.449219 251.980469 666.492188 C 259.207031 618.515625 285.410156 610.691406 300.386719 610.300781 C 322.359375 609.738281 339.847656 618.066406 349.550781 633.808594 C 358.261719 647.9375 359.296875 666.414062 352.121094 679.777344 C 347.816406 687.796875 335.320312 695.316406 318.695312 699.886719 C 309.605469 702.386719 300.378906 703.648438 291.90625 703.648438 Z M 300.492188 614.292969 C 286.765625 614.652344 262.722656 621.992188 255.933594 667.082031 C 253.632812 682.328125 259.554688 692.414062 273.53125 697.058594 C 284.980469 700.863281 301.464844 700.480469 317.632812 696.039062 C 332.992188 691.8125 344.859375 684.859375 348.605469 677.890625 C 355.125 665.738281 354.140625 648.863281 346.148438 635.902344 C 337.222656 621.425781 320.980469 613.726562 300.492188 614.292969 Z M 300.492188 614.292969 " fill-opacity="1" fillRule="nonzero"/><path fill="#f2cf63" d="M 405.089844 780.734375 C 395.738281 780.734375 388.160156 773.160156 388.160156 763.816406 L 388.160156 45.667969 C 388.160156 36.324219 395.738281 28.746094 405.089844 28.746094 C 414.4375 28.746094 422.019531 36.324219 422.019531 45.667969 L 422.019531 763.816406 C 422.015625 773.160156 414.4375 780.734375 405.089844 780.734375 Z M 405.089844 780.734375 " fill-opacity="1" fillRule="nonzero"/><g clip-path="url(#0a7229d59f)"><path fill="#000000" d="M 405.085938 782.734375 C 394.652344 782.734375 386.160156 774.246094 386.160156 763.816406 L 386.160156 45.667969 C 386.160156 35.238281 394.652344 26.75 405.085938 26.75 C 415.523438 26.75 424.015625 35.238281 424.015625 45.667969 L 424.015625 763.816406 C 424.015625 774.246094 415.527344 782.734375 405.085938 782.734375 Z M 405.085938 30.746094 C 396.855469 30.746094 390.15625 37.441406 390.15625 45.667969 L 390.15625 763.816406 C 390.15625 772.042969 396.855469 778.742188 405.085938 778.742188 C 413.320312 778.742188 420.019531 772.046875 420.019531 763.816406 L 420.019531 45.667969 C 420.019531 37.441406 413.320312 30.746094 405.085938 30.746094 Z M 405.085938 30.746094 " fill-opacity="1" fillRule="nonzero"/></g><g fill="#fbc906" fill-opacity="1"><g transform="translate(675.62469, 241.697938)"><g><path d="M 3.9375 0.140625 C 3.382812 0.140625 2.945312 -0.015625 2.625 -0.328125 C 2.300781 -0.640625 2.140625 -1.050781 2.140625 -1.5625 C 2.140625 -2.070312 2.300781 -2.488281 2.625 -2.8125 C 2.945312 -3.144531 3.382812 -3.3125 3.9375 -3.3125 C 4.507812 -3.3125 4.953125 -3.15625 5.265625 -2.84375 C 5.585938 -2.53125 5.75 -2.113281 5.75 -1.59375 C 5.75 -1.082031 5.585938 -0.664062 5.265625 -0.34375 C 4.941406 -0.0195312 4.5 0.140625 3.9375 0.140625 Z M 3.9375 0.140625 "/></g></g></g></svg>