<svg xmlns="http://www.w3.org/2000/svg" xmlns:xlink="http://www.w3.org/1999/xlink" width="1080" zoomAndPan="magnify" viewBox="0 0 810 809.999993" height="1080" preserveAspectRatio="xMidYMid meet" version="1.0"><defs><g/><clipPath id="09171b7a13"><path d="M 640 529 L 805.234375 529 L 805.234375 704.988281 L 640 704.988281 Z M 640 529 " clip-rule="nonzero"/></clipPath><clipPath id="1c7d653b15"><path d="M 305 104.988281 L 805.234375 104.988281 L 805.234375 704.988281 L 305 704.988281 Z M 305 104.988281 " clip-rule="nonzero"/></clipPath><clipPath id="7232e5047d"><path d="M 4.984375 104.988281 L 406 104.988281 L 406 704.988281 L 4.984375 704.988281 Z M 4.984375 104.988281 " clip-rule="nonzero"/></clipPath><clipPath id="75a32159d4"><path d="M 640 529 L 805.234375 529 L 805.234375 704.988281 L 640 704.988281 Z M 640 529 " clip-rule="nonzero"/></clipPath><clipPath id="3d90bcdc69"><path d="M 355 104.988281 L 406 104.988281 L 406 704.988281 L 355 704.988281 Z M 355 104.988281 " clip-rule="nonzero"/></clipPath></defs><g clip-path="url(#09171b7a13)"><path fill="#bfc9d1" d="M 640.53125 529.988281 L 805.230469 529.988281 L 805.230469 654.988281 C 805.230469 656.625 805.148438 658.261719 804.988281 659.890625 C 804.828125 661.519531 804.585938 663.136719 804.269531 664.742188 C 803.949219 666.347656 803.550781 667.9375 803.074219 669.503906 C 802.601562 671.070312 802.046875 672.609375 801.421875 674.121094 C 800.796875 675.636719 800.09375 677.113281 799.324219 678.558594 C 798.550781 680.003906 797.710938 681.40625 796.800781 682.765625 C 795.890625 684.128906 794.914062 685.441406 793.875 686.707031 C 792.835938 687.972656 791.738281 689.1875 790.578125 690.34375 C 789.421875 691.5 788.210938 692.601562 786.941406 693.640625 C 785.675781 694.679688 784.363281 695.652344 783 696.5625 C 781.640625 697.472656 780.234375 698.3125 778.789062 699.085938 C 777.347656 699.855469 775.867188 700.554688 774.355469 701.183594 C 772.839844 701.808594 771.300781 702.359375 769.734375 702.835938 C 768.164062 703.3125 766.578125 703.707031 764.972656 704.027344 C 763.363281 704.347656 761.746094 704.585938 760.117188 704.746094 C 758.484375 704.910156 756.851562 704.988281 755.214844 704.988281 L 640.53125 704.988281 Z M 640.53125 529.988281 " fill-opacity="1" fillRule="nonzero"/></g><g clip-path="url(#1c7d653b15)"><path fill="#e4edfb" d="M 640.53125 704.988281 L 305.078125 704.988281 L 305.078125 104.988281 L 755.214844 104.988281 C 756.851562 104.988281 758.484375 105.070312 760.117188 105.230469 C 761.746094 105.390625 763.363281 105.628906 764.972656 105.949219 C 766.578125 106.269531 768.164062 106.667969 769.734375 107.140625 C 771.300781 107.617188 772.839844 108.167969 774.355469 108.792969 C 775.867188 109.421875 777.347656 110.121094 778.789062 110.894531 C 780.234375 111.664062 781.640625 112.503906 783 113.414062 C 784.363281 114.324219 785.675781 115.300781 786.941406 116.339844 C 788.210938 117.378906 789.421875 118.476562 790.578125 119.632812 C 791.738281 120.792969 792.835938 122.003906 793.875 123.269531 C 794.914062 124.535156 795.890625 125.847656 796.800781 127.210938 C 797.710938 128.570312 798.550781 129.976562 799.324219 131.417969 C 800.09375 132.863281 800.796875 134.339844 801.421875 135.855469 C 802.046875 137.367188 802.601562 138.90625 803.074219 140.472656 C 803.550781 142.042969 803.949219 143.628906 804.269531 145.234375 C 804.585938 146.839844 804.828125 148.457031 804.988281 150.085938 C 805.148438 151.71875 805.230469 153.351562 805.230469 154.988281 L 805.230469 529.988281 Z M 640.53125 704.988281 " fill-opacity="1" fillRule="nonzero"/></g><g clip-path="url(#7232e5047d)"><path fill="#6ae5d3" d="M 405.109375 704.988281 L 55.003906 704.988281 C 53.367188 704.988281 51.734375 704.910156 50.101562 704.746094 C 48.472656 704.585938 46.855469 704.347656 45.25 704.027344 C 43.640625 703.707031 42.054688 703.3125 40.488281 702.835938 C 38.917969 702.359375 37.378906 701.808594 35.867188 701.183594 C 34.351562 700.554688 32.875 699.855469 31.429688 699.085938 C 29.984375 698.3125 28.582031 697.472656 27.21875 696.5625 C 25.855469 695.652344 24.542969 694.679688 23.277344 693.640625 C 22.011719 692.601562 20.796875 691.5 19.640625 690.34375 C 18.480469 689.1875 17.382812 687.972656 16.34375 686.707031 C 15.304688 685.441406 14.328125 684.128906 13.417969 682.765625 C 12.507812 681.40625 11.667969 680.003906 10.894531 678.558594 C 10.125 677.113281 9.425781 675.636719 8.796875 674.121094 C 8.171875 672.609375 7.621094 671.070312 7.144531 669.503906 C 6.667969 667.9375 6.269531 666.347656 5.953125 664.742188 C 5.632812 663.136719 5.390625 661.519531 5.230469 659.890625 C 5.070312 658.261719 4.992188 656.625 4.992188 654.988281 L 4.992188 154.988281 C 4.992188 153.351562 5.070312 151.71875 5.230469 150.085938 C 5.390625 148.457031 5.632812 146.839844 5.953125 145.234375 C 6.269531 143.628906 6.667969 142.042969 7.144531 140.472656 C 7.621094 138.90625 8.171875 137.367188 8.796875 135.855469 C 9.425781 134.339844 10.125 132.863281 10.894531 131.417969 C 11.667969 129.976562 12.507812 128.570312 13.417969 127.210938 C 14.328125 125.847656 15.304688 124.535156 16.34375 123.269531 C 17.382812 122.003906 18.480469 120.792969 19.640625 119.632812 C 20.796875 118.476562 22.011719 117.378906 23.277344 116.339844 C 24.542969 115.300781 25.855469 114.324219 27.21875 113.414062 C 28.582031 112.503906 29.984375 111.664062 31.429688 110.894531 C 32.875 110.121094 34.351562 109.421875 35.867188 108.792969 C 37.378906 108.167969 38.917969 107.617188 40.488281 107.140625 C 42.054688 106.667969 43.640625 106.269531 45.25 105.949219 C 46.855469 105.628906 48.472656 105.390625 50.101562 105.230469 C 51.734375 105.070312 53.367188 104.988281 55.003906 104.988281 L 405.109375 104.988281 Z M 405.109375 704.988281 " fill-opacity="1" fillRule="nonzero"/></g><path fill="#bfc9d1" d="M 505.140625 204.988281 L 705.199219 204.988281 C 706.019531 204.988281 706.835938 205.027344 707.648438 205.109375 C 708.464844 205.1875 709.273438 205.308594 710.078125 205.46875 C 710.882812 205.628906 711.675781 205.828125 712.457031 206.066406 C 713.242188 206.304688 714.011719 206.578125 714.769531 206.890625 C 715.527344 207.203125 716.265625 207.554688 716.988281 207.941406 C 717.710938 208.328125 718.410156 208.746094 719.09375 209.203125 C 719.773438 209.65625 720.429688 210.144531 721.0625 210.664062 C 721.695312 211.183594 722.304688 211.730469 722.882812 212.3125 C 723.460938 212.890625 724.011719 213.496094 724.53125 214.128906 C 725.050781 214.761719 725.535156 215.417969 725.992188 216.097656 C 726.445312 216.78125 726.867188 217.480469 727.253906 218.203125 C 727.640625 218.925781 727.988281 219.664062 728.304688 220.421875 C 728.617188 221.179688 728.890625 221.949219 729.128906 222.730469 C 729.367188 223.515625 729.566406 224.308594 729.726562 225.113281 C 729.886719 225.914062 730.007812 226.722656 730.085938 227.539062 C 730.167969 228.351562 730.207031 229.167969 730.207031 229.988281 C 730.207031 230.808594 730.167969 231.625 730.085938 232.4375 C 730.007812 233.253906 729.886719 234.0625 729.726562 234.867188 C 729.566406 235.667969 729.367188 236.460938 729.128906 237.246094 C 728.890625 238.03125 728.617188 238.800781 728.304688 239.554688 C 727.988281 240.3125 727.640625 241.050781 727.253906 241.773438 C 726.867188 242.496094 726.445312 243.195312 725.992188 243.878906 C 725.535156 244.558594 725.050781 245.214844 724.53125 245.847656 C 724.011719 246.480469 723.460938 247.085938 722.882812 247.667969 C 722.304688 248.246094 721.695312 248.792969 721.0625 249.3125 C 720.429688 249.832031 719.773438 250.320312 719.09375 250.773438 C 718.410156 251.230469 717.710938 251.652344 716.988281 252.035156 C 716.265625 252.421875 715.527344 252.773438 714.769531 253.085938 C 714.011719 253.398438 713.242188 253.675781 712.457031 253.914062 C 711.675781 254.148438 710.882812 254.347656 710.078125 254.507812 C 709.273438 254.667969 708.464844 254.789062 707.648438 254.867188 C 706.835938 254.949219 706.019531 254.988281 705.199219 254.988281 L 505.140625 254.988281 C 504.320312 254.988281 503.503906 254.949219 502.6875 254.867188 C 501.875 254.789062 501.0625 254.667969 500.261719 254.507812 C 499.457031 254.347656 498.664062 254.148438 497.878906 253.914062 C 497.097656 253.675781 496.328125 253.398438 495.570312 253.085938 C 494.8125 252.773438 494.074219 252.421875 493.351562 252.035156 C 492.628906 251.652344 491.925781 251.230469 491.246094 250.773438 C 490.566406 250.320312 489.90625 249.832031 489.273438 249.3125 C 488.640625 248.792969 488.035156 248.246094 487.457031 247.667969 C 486.878906 247.085938 486.328125 246.480469 485.808594 245.847656 C 485.289062 245.214844 484.800781 244.558594 484.347656 243.878906 C 483.890625 243.195312 483.472656 242.496094 483.085938 241.773438 C 482.699219 241.050781 482.347656 240.3125 482.035156 239.554688 C 481.722656 238.800781 481.445312 238.03125 481.210938 237.246094 C 480.972656 236.460938 480.773438 235.667969 480.613281 234.867188 C 480.453125 234.0625 480.332031 233.253906 480.253906 232.4375 C 480.171875 231.625 480.132812 230.808594 480.132812 229.988281 C 480.132812 229.167969 480.171875 228.351562 480.253906 227.539062 C 480.332031 226.722656 480.453125 225.914062 480.613281 225.113281 C 480.773438 224.308594 480.972656 223.515625 481.210938 222.730469 C 481.445312 221.949219 481.722656 221.179688 482.035156 220.421875 C 482.347656 219.664062 482.699219 218.925781 483.085938 218.203125 C 483.472656 217.480469 483.890625 216.78125 484.347656 216.097656 C 484.800781 215.417969 485.289062 214.761719 485.808594 214.128906 C 486.328125 213.496094 486.878906 212.890625 487.457031 212.3125 C 488.035156 211.730469 488.640625 211.183594 489.273438 210.664062 C 489.90625 210.144531 490.566406 209.65625 491.246094 209.203125 C 491.925781 208.746094 492.628906 208.328125 493.351562 207.941406 C 494.074219 207.554688 494.8125 207.203125 495.570312 206.890625 C 496.328125 206.578125 497.097656 206.304688 497.878906 206.066406 C 498.664062 205.828125 499.457031 205.628906 500.261719 205.46875 C 501.0625 205.308594 501.875 205.1875 502.6875 205.109375 C 503.503906 205.027344 504.320312 204.988281 505.140625 204.988281 Z M 505.140625 204.988281 " fill-opacity="1" fillRule="nonzero"/><path fill="#bfc9d1" d="M 505.140625 304.988281 L 705.199219 304.988281 C 706.019531 304.988281 706.835938 305.027344 707.648438 305.109375 C 708.464844 305.1875 709.273438 305.308594 710.078125 305.46875 C 710.882812 305.628906 711.675781 305.828125 712.457031 306.066406 C 713.242188 306.304688 714.011719 306.578125 714.769531 306.890625 C 715.527344 307.203125 716.265625 307.554688 716.988281 307.941406 C 717.710938 308.328125 718.410156 308.746094 719.09375 309.203125 C 719.773438 309.65625 720.429688 310.144531 721.0625 310.664062 C 721.695312 311.183594 722.304688 311.730469 722.882812 312.3125 C 723.460938 312.890625 724.011719 313.496094 724.53125 314.128906 C 725.050781 314.761719 725.535156 315.417969 725.992188 316.097656 C 726.445312 316.78125 726.867188 317.480469 727.253906 318.203125 C 727.640625 318.925781 727.988281 319.664062 728.304688 320.421875 C 728.617188 321.179688 728.890625 321.949219 729.128906 322.730469 C 729.367188 323.515625 729.566406 324.308594 729.726562 325.113281 C 729.886719 325.914062 730.007812 326.722656 730.085938 327.539062 C 730.167969 328.351562 730.207031 329.167969 730.207031 329.988281 C 730.207031 330.808594 730.167969 331.625 730.085938 332.4375 C 730.007812 333.253906 729.886719 334.0625 729.726562 334.867188 C 729.566406 335.667969 729.367188 336.460938 729.128906 337.246094 C 728.890625 338.027344 728.617188 338.800781 728.304688 339.554688 C 727.988281 340.3125 727.640625 341.050781 727.253906 341.773438 C 726.867188 342.496094 726.445312 343.195312 725.992188 343.878906 C 725.535156 344.558594 725.050781 345.214844 724.53125 345.847656 C 724.011719 346.480469 723.460938 347.085938 722.882812 347.667969 C 722.304688 348.246094 721.695312 348.792969 721.0625 349.3125 C 720.429688 349.832031 719.773438 350.320312 719.09375 350.773438 C 718.410156 351.230469 717.710938 351.652344 716.988281 352.035156 C 716.265625 352.421875 715.527344 352.773438 714.769531 353.085938 C 714.011719 353.398438 713.242188 353.675781 712.457031 353.910156 C 711.675781 354.148438 710.882812 354.347656 710.078125 354.507812 C 709.273438 354.667969 708.464844 354.789062 707.648438 354.867188 C 706.835938 354.949219 706.019531 354.988281 705.199219 354.988281 L 505.140625 354.988281 C 504.320312 354.988281 503.503906 354.949219 502.6875 354.867188 C 501.875 354.789062 501.0625 354.667969 500.261719 354.507812 C 499.457031 354.347656 498.664062 354.148438 497.878906 353.914062 C 497.097656 353.675781 496.328125 353.398438 495.570312 353.085938 C 494.8125 352.773438 494.074219 352.421875 493.351562 352.035156 C 492.628906 351.652344 491.925781 351.230469 491.246094 350.773438 C 490.566406 350.320312 489.90625 349.832031 489.273438 349.3125 C 488.640625 348.792969 488.035156 348.246094 487.457031 347.667969 C 486.878906 347.085938 486.328125 346.480469 485.808594 345.847656 C 485.289062 345.214844 484.800781 344.558594 484.347656 343.878906 C 483.890625 343.195312 483.472656 342.496094 483.085938 341.773438 C 482.699219 341.050781 482.347656 340.3125 482.035156 339.554688 C 481.722656 338.800781 481.445312 338.027344 481.210938 337.246094 C 480.972656 336.460938 480.773438 335.667969 480.613281 334.867188 C 480.453125 334.0625 480.332031 333.253906 480.253906 332.4375 C 480.171875 331.625 480.132812 330.808594 480.132812 329.988281 C 480.132812 329.167969 480.171875 328.351562 480.253906 327.539062 C 480.332031 326.722656 480.453125 325.914062 480.613281 325.113281 C 480.773438 324.308594 480.972656 323.515625 481.210938 322.730469 C 481.445312 321.949219 481.722656 321.179688 482.035156 320.421875 C 482.347656 319.664062 482.699219 318.925781 483.085938 318.203125 C 483.472656 317.480469 483.890625 316.78125 484.347656 316.097656 C 484.800781 315.417969 485.289062 314.761719 485.808594 314.128906 C 486.328125 313.496094 486.878906 312.890625 487.457031 312.3125 C 488.035156 311.730469 488.640625 311.183594 489.273438 310.664062 C 489.90625 310.144531 490.566406 309.65625 491.246094 309.203125 C 491.925781 308.746094 492.628906 308.328125 493.351562 307.941406 C 494.074219 307.554688 494.8125 307.203125 495.570312 306.890625 C 496.328125 306.578125 497.097656 306.304688 497.878906 306.066406 C 498.664062 305.828125 499.457031 305.628906 500.261719 305.46875 C 501.0625 305.308594 501.875 305.1875 502.6875 305.109375 C 503.503906 305.027344 504.320312 304.988281 505.140625 304.988281 Z M 505.140625 304.988281 " fill-opacity="1" fillRule="nonzero"/><path fill="#bfc9d1" d="M 505.140625 404.988281 L 705.199219 404.988281 C 706.019531 404.988281 706.835938 405.027344 707.648438 405.109375 C 708.464844 405.1875 709.273438 405.308594 710.078125 405.46875 C 710.882812 405.628906 711.675781 405.828125 712.457031 406.066406 C 713.242188 406.304688 714.011719 406.578125 714.769531 406.890625 C 715.527344 407.203125 716.265625 407.554688 716.988281 407.941406 C 717.710938 408.328125 718.410156 408.746094 719.09375 409.203125 C 719.773438 409.65625 720.429688 410.144531 721.0625 410.664062 C 721.695312 411.183594 722.304688 411.730469 722.882812 412.3125 C 723.460938 412.890625 724.011719 413.496094 724.53125 414.128906 C 725.050781 414.761719 725.535156 415.417969 725.992188 416.097656 C 726.445312 416.78125 726.867188 417.480469 727.253906 418.203125 C 727.640625 418.925781 727.988281 419.664062 728.304688 420.421875 C 728.617188 421.179688 728.890625 421.949219 729.128906 422.730469 C 729.367188 423.515625 729.566406 424.308594 729.726562 425.113281 C 729.886719 425.914062 730.007812 426.722656 730.085938 427.539062 C 730.167969 428.351562 730.207031 429.167969 730.207031 429.988281 C 730.207031 430.808594 730.167969 431.625 730.085938 432.4375 C 730.007812 433.253906 729.886719 434.0625 729.726562 434.867188 C 729.566406 435.667969 729.367188 436.460938 729.128906 437.246094 C 728.890625 438.027344 728.617188 438.800781 728.304688 439.554688 C 727.988281 440.3125 727.640625 441.050781 727.253906 441.773438 C 726.867188 442.496094 726.445312 443.195312 725.992188 443.878906 C 725.535156 444.558594 725.050781 445.214844 724.53125 445.847656 C 724.011719 446.480469 723.460938 447.085938 722.882812 447.667969 C 722.304688 448.246094 721.695312 448.792969 721.0625 449.3125 C 720.429688 449.832031 719.773438 450.320312 719.09375 450.773438 C 718.410156 451.230469 717.710938 451.652344 716.988281 452.035156 C 716.265625 452.421875 715.527344 452.773438 714.769531 453.085938 C 714.011719 453.398438 713.242188 453.675781 712.457031 453.914062 C 711.675781 454.148438 710.882812 454.347656 710.078125 454.507812 C 709.273438 454.667969 708.464844 454.789062 707.648438 454.867188 C 706.835938 454.949219 706.019531 454.988281 705.199219 454.988281 L 505.140625 454.988281 C 504.320312 454.988281 503.503906 454.949219 502.6875 454.867188 C 501.875 454.789062 501.0625 454.667969 500.261719 454.507812 C 499.457031 454.347656 498.664062 454.148438 497.878906 453.914062 C 497.097656 453.675781 496.328125 453.398438 495.570312 453.085938 C 494.8125 452.773438 494.074219 452.421875 493.351562 452.035156 C 492.628906 451.652344 491.925781 451.230469 491.246094 450.773438 C 490.566406 450.320312 489.90625 449.832031 489.273438 449.3125 C 488.640625 448.792969 488.035156 448.246094 487.457031 447.667969 C 486.878906 447.085938 486.328125 446.480469 485.808594 445.847656 C 485.289062 445.214844 484.800781 444.558594 484.347656 443.878906 C 483.890625 443.195312 483.472656 442.496094 483.085938 441.773438 C 482.699219 441.050781 482.347656 440.3125 482.035156 439.554688 C 481.722656 438.800781 481.445312 438.027344 481.210938 437.246094 C 480.972656 436.460938 480.773438 435.667969 480.613281 434.867188 C 480.453125 434.0625 480.332031 433.253906 480.253906 432.4375 C 480.171875 431.625 480.132812 430.808594 480.132812 429.988281 C 480.132812 429.167969 480.171875 428.351562 480.253906 427.539062 C 480.332031 426.722656 480.453125 425.914062 480.613281 425.113281 C 480.773438 424.308594 480.972656 423.515625 481.210938 422.730469 C 481.445312 421.949219 481.722656 421.179688 482.035156 420.421875 C 482.347656 419.664062 482.699219 418.925781 483.085938 418.203125 C 483.472656 417.480469 483.890625 416.78125 484.347656 416.097656 C 484.800781 415.417969 485.289062 414.761719 485.808594 414.128906 C 486.328125 413.496094 486.878906 412.890625 487.457031 412.3125 C 488.035156 411.730469 488.640625 411.183594 489.273438 410.664062 C 489.90625 410.144531 490.566406 409.65625 491.246094 409.203125 C 491.925781 408.746094 492.628906 408.328125 493.351562 407.941406 C 494.074219 407.554688 494.8125 407.203125 495.570312 406.890625 C 496.328125 406.578125 497.097656 406.304688 497.878906 406.066406 C 498.664062 405.828125 499.457031 405.628906 500.261719 405.46875 C 501.0625 405.308594 501.875 405.1875 502.6875 405.109375 C 503.503906 405.027344 504.320312 404.988281 505.140625 404.988281 Z M 505.140625 404.988281 " fill-opacity="1" fillRule="nonzero"/><g clip-path="url(#75a32159d4)"><path fill="#d7e1f2" d="M 640.53125 529.988281 L 640.53125 704.988281 L 805.230469 529.988281 Z M 640.53125 529.988281 " fill-opacity="1" fillRule="nonzero"/></g><g clip-path="url(#3d90bcdc69)"><path fill="#0ac1a7" d="M 405.109375 704.988281 L 355.09375 704.988281 L 355.09375 154.988281 C 355.09375 153.351562 355.175781 151.71875 355.335938 150.085938 C 355.496094 148.457031 355.738281 146.839844 356.054688 145.234375 C 356.375 143.628906 356.773438 142.042969 357.25 140.472656 C 357.722656 138.90625 358.273438 137.367188 358.902344 135.855469 C 359.527344 134.339844 360.226562 132.863281 361 131.417969 C 361.773438 129.976562 362.613281 128.570312 363.523438 127.210938 C 364.433594 125.847656 365.410156 124.535156 366.449219 123.269531 C 367.488281 122.003906 368.585938 120.792969 369.742188 119.632812 C 370.902344 118.476562 372.113281 117.378906 373.378906 116.339844 C 374.648438 115.300781 375.960938 114.324219 377.324219 113.414062 C 378.683594 112.503906 380.089844 111.664062 381.53125 110.894531 C 382.976562 110.121094 384.457031 109.421875 385.96875 108.792969 C 387.484375 108.167969 389.023438 107.617188 390.589844 107.140625 C 392.160156 106.667969 393.746094 106.269531 395.351562 105.949219 C 396.960938 105.628906 398.578125 105.390625 400.207031 105.230469 C 401.835938 105.070312 403.472656 104.988281 405.109375 104.988281 Z M 405.109375 704.988281 " fill-opacity="1" fillRule="nonzero"/></g><g fill="#fbc906" fill-opacity="1"><g transform="translate(675.62469, 241.697938)"><g><path d="M 3.9375 0.140625 C 3.382812 0.140625 2.945312 -0.015625 2.625 -0.328125 C 2.300781 -0.640625 2.140625 -1.050781 2.140625 -1.5625 C 2.140625 -2.070312 2.300781 -2.488281 2.625 -2.8125 C 2.945312 -3.144531 3.382812 -3.3125 3.9375 -3.3125 C 4.507812 -3.3125 4.953125 -3.15625 5.265625 -2.84375 C 5.585938 -2.53125 5.75 -2.113281 5.75 -1.59375 C 5.75 -1.082031 5.585938 -0.664062 5.265625 -0.34375 C 4.941406 -0.0195312 4.5 0.140625 3.9375 0.140625 Z M 3.9375 0.140625 "/></g></g></g></svg>