<svg xmlns="http://www.w3.org/2000/svg" xmlns:xlink="http://www.w3.org/1999/xlink" width="1080" zoomAndPan="magnify" viewBox="0 0 810 809.999993" height="1080" preserveAspectRatio="xMidYMid meet" version="1.0"><defs><g/></defs><path fill="#5285ff" d="M 58.8125 228.597656 C 54.253906 223.871094 54.484375 216.265625 59.398438 211.914062 C 106.292969 170.382812 167.128906 144.246094 233.988281 141.433594 C 240.558594 141.15625 246.019531 146.46875 246.019531 153.042969 L 246.019531 394.035156 C 246.019531 404.46875 233.316406 409.597656 226.074219 402.085938 Z M 642.734375 251.742188 L 601.378906 251.742188 C 598.628906 251.742188 596.398438 253.972656 596.398438 256.722656 L 596.398438 298.082031 C 596.398438 300.835938 598.628906 303.066406 601.378906 303.066406 L 642.734375 303.066406 C 645.488281 303.066406 647.71875 300.835938 647.71875 298.082031 L 647.71875 256.722656 C 647.71875 253.972656 645.488281 251.742188 642.734375 251.742188 Z M 224.535156 426.351562 L 79.707031 276.132812 C 75.125 271.386719 67.460938 271.355469 62.953125 276.171875 C 23.898438 317.917969 0 374.023438 0 435.695312 C 0 484.925781 15.222656 530.601562 41.222656 568.253906 C 44.964844 573.667969 52.539062 574.753906 57.757812 570.746094 L 223.253906 443.601562 C 228.738281 439.386719 229.339844 431.335938 224.535156 426.351562 Z M 642.734375 422.132812 L 601.378906 422.132812 C 598.628906 422.132812 596.398438 424.363281 596.398438 427.117188 L 596.398438 468.476562 C 596.398438 471.226562 598.628906 473.460938 601.378906 473.460938 L 642.734375 473.460938 C 645.488281 473.460938 647.71875 471.226562 647.71875 468.476562 L 647.71875 427.117188 C 647.71875 424.363281 645.488281 422.132812 642.734375 422.132812 Z M 277.4375 181.660156 C 270.867188 181.335938 265.398438 186.675781 265.398438 193.253906 L 265.398438 411.175781 C 265.398438 417.582031 270.589844 422.773438 276.996094 422.773438 L 494.898438 422.773438 C 501.476562 422.773438 506.816406 417.304688 506.492188 410.734375 C 500.417969 286.972656 401.1875 187.734375 277.4375 181.660156 Z M 642.734375 507.328125 L 601.378906 507.328125 C 598.628906 507.328125 596.398438 509.558594 596.398438 512.3125 L 596.398438 553.671875 C 596.398438 556.425781 598.628906 558.65625 601.378906 558.65625 L 642.734375 558.65625 C 645.488281 558.65625 647.71875 556.425781 647.71875 553.671875 L 647.71875 512.3125 C 647.71875 509.558594 645.488281 507.328125 642.734375 507.328125 Z M 466.359375 443.8125 L 257.082031 443.8125 C 254.527344 443.8125 252.042969 444.65625 250.015625 446.214844 L 84.046875 573.71875 C 78.8125 577.742188 77.921875 585.367188 82.222656 590.375 C 123.519531 638.488281 184.785156 668.972656 253.140625 668.972656 C 373.4375 668.972656 471.671875 574.628906 477.960938 455.917969 C 478.3125 449.324219 472.964844 443.8125 466.359375 443.8125 Z M 674.707031 282.695312 L 804.707031 282.695312 C 807.628906 282.695312 810 280.328125 810 277.402344 C 810 274.480469 807.628906 272.109375 804.707031 272.109375 L 674.707031 272.109375 C 671.785156 272.109375 669.414062 274.480469 669.414062 277.402344 C 669.414062 280.328125 671.785156 282.695312 674.707031 282.695312 Z M 642.734375 336.9375 L 601.378906 336.9375 C 598.628906 336.9375 596.398438 339.167969 596.398438 341.917969 L 596.398438 383.28125 C 596.398438 386.03125 598.628906 388.261719 601.378906 388.261719 L 642.734375 388.261719 C 645.488281 388.261719 647.71875 386.03125 647.71875 383.28125 L 647.71875 341.917969 C 647.71875 339.167969 645.488281 336.9375 642.734375 336.9375 Z M 804.707031 357.304688 L 674.707031 357.304688 C 671.785156 357.304688 669.414062 359.675781 669.414062 362.601562 C 669.414062 365.523438 671.785156 367.894531 674.707031 367.894531 L 804.707031 367.894531 C 807.628906 367.894531 810 365.523438 810 362.601562 C 810 359.675781 807.628906 357.304688 804.707031 357.304688 Z M 804.707031 442.503906 L 674.707031 442.503906 C 671.785156 442.503906 669.414062 444.875 669.414062 447.796875 C 669.414062 450.71875 671.785156 453.089844 674.707031 453.089844 L 804.707031 453.089844 C 807.628906 453.089844 810 450.71875 810 447.796875 C 810 444.875 807.628906 442.503906 804.707031 442.503906 Z M 804.707031 527.699219 L 674.707031 527.699219 C 671.785156 527.699219 669.414062 530.070312 669.414062 532.992188 C 669.414062 535.914062 671.785156 538.285156 674.707031 538.285156 L 804.707031 538.285156 C 807.628906 538.285156 810 535.914062 810 532.992188 C 810 530.070312 807.628906 527.699219 804.707031 527.699219 Z M 804.707031 527.699219 " fill-opacity="1" fillRule="nonzero"/><path fill="#9fcdff" d="M 246.019531 153.042969 L 246.019531 394.035156 C 246.019531 404.46875 233.316406 409.597656 226.074219 402.085938 L 58.8125 228.597656 C 54.253906 223.871094 54.484375 216.265625 59.398438 211.914062 C 106.292969 170.382812 167.128906 144.246094 233.988281 141.433594 C 240.558594 141.15625 246.019531 146.46875 246.019531 153.042969 Z M 642.734375 251.742188 L 601.378906 251.742188 C 598.628906 251.742188 596.398438 253.972656 596.398438 256.722656 L 596.398438 298.082031 C 596.398438 300.835938 598.628906 303.066406 601.378906 303.066406 L 642.734375 303.066406 C 645.488281 303.066406 647.71875 300.835938 647.71875 298.082031 L 647.71875 256.722656 C 647.71875 253.972656 645.488281 251.742188 642.734375 251.742188 Z M 642.734375 251.742188 " fill-opacity="1" fillRule="nonzero"/><path fill="#984fff" d="M 224.535156 426.351562 C 229.339844 431.335938 228.738281 439.386719 223.253906 443.601562 L 57.757812 570.746094 C 52.539062 574.753906 44.964844 573.667969 41.222656 568.253906 C 15.222656 530.601562 0 484.925781 0 435.695312 C 0 374.023438 23.898438 317.917969 62.953125 276.171875 C 67.460938 271.355469 75.125 271.386719 79.707031 276.132812 Z M 642.734375 422.132812 L 601.378906 422.132812 C 598.628906 422.132812 596.398438 424.363281 596.398438 427.117188 L 596.398438 468.476562 C 596.398438 471.226562 598.628906 473.460938 601.378906 473.460938 L 642.734375 473.460938 C 645.488281 473.460938 647.71875 471.226562 647.71875 468.476562 L 647.71875 427.117188 C 647.71875 424.363281 645.488281 422.132812 642.734375 422.132812 Z M 642.734375 422.132812 " fill-opacity="1" fillRule="nonzero"/><path fill="#1ddd92" d="M 506.492188 410.734375 C 506.816406 417.304688 501.476562 422.773438 494.898438 422.773438 L 276.996094 422.773438 C 270.589844 422.773438 265.398438 417.582031 265.398438 411.175781 L 265.398438 193.253906 C 265.398438 186.675781 270.867188 181.335938 277.4375 181.660156 C 401.1875 187.734375 500.417969 286.972656 506.492188 410.734375 Z M 642.734375 507.328125 L 601.378906 507.328125 C 598.628906 507.328125 596.398438 509.558594 596.398438 512.3125 L 596.398438 553.671875 C 596.398438 556.425781 598.628906 558.65625 601.378906 558.65625 L 642.734375 558.65625 C 645.488281 558.65625 647.71875 556.425781 647.71875 553.671875 L 647.71875 512.3125 C 647.71875 509.558594 645.488281 507.328125 642.734375 507.328125 Z M 642.734375 507.328125 " fill-opacity="1" fillRule="nonzero"/><g fill="#fbc906" fill-opacity="1"><g transform="translate(675.62469, 241.697938)"><g><path d="M 3.9375 0.140625 C 3.382812 0.140625 2.945312 -0.015625 2.625 -0.328125 C 2.300781 -0.640625 2.140625 -1.050781 2.140625 -1.5625 C 2.140625 -2.070312 2.300781 -2.488281 2.625 -2.8125 C 2.945312 -3.144531 3.382812 -3.3125 3.9375 -3.3125 C 4.507812 -3.3125 4.953125 -3.15625 5.265625 -2.84375 C 5.585938 -2.53125 5.75 -2.113281 5.75 -1.59375 C 5.75 -1.082031 5.585938 -0.664062 5.265625 -0.34375 C 4.941406 -0.0195312 4.5 0.140625 3.9375 0.140625 Z M 3.9375 0.140625 "/></g></g></g></svg>